<svg width="40" height="36" viewBox="0 0 40 36" fill="none" xmlns="http://www.w3.org/2000/svg">
<path d="M33 31.5H7C6.45 31.5 6 32.0062 6 32.625V34.875C6 35.4938 6.45 36 7 36H33C33.55 36 34 35.4938 34 34.875V32.625C34 32.0062 33.55 31.5 33 31.5ZM37 9C35.3438 9 34 10.5117 34 12.375C34 12.8742 34.1 13.3383 34.275 13.7672L29.75 16.8188C28.7875 17.4656 27.5437 17.1 26.9875 16.0031L21.8937 5.97656C22.5625 5.35781 23 4.42969 23 3.375C23 1.51172 21.6562 0 20 0C18.3438 0 17 1.51172 17 3.375C17 4.42969 17.4375 5.35781 18.1063 5.97656L13.0125 16.0031C12.4563 17.1 11.2063 17.4656 10.25 16.8188L5.73125 13.7672C5.9 13.3453 6.00625 12.8742 6.00625 12.375C6.00625 10.5117 4.6625 9 3.00625 9C1.35 9 0 10.5117 0 12.375C0 14.2383 1.34375 15.75 3 15.75C3.1625 15.75 3.325 15.7219 3.48125 15.6937L8 29.25H32L36.5187 15.6937C36.675 15.7219 36.8375 15.75 37 15.75C38.6562 15.75 40 14.2383 40 12.375C40 10.5117 38.6562 9 37 9Z" fill="#FFAC33"/>
</svg>
