<svg width="36" height="36" viewBox="0 0 36 36" fill="none" xmlns="http://www.w3.org/2000/svg">
<g clip-path="url(#clip0_101_250)">
<path d="M18 8L11 0H0L14 17L25.521 12.25L18 8Z" fill="#55ACEE"/>
<path d="M25 0L18 8L23.39 15.312L24.617 13.823L36 0H25Z" fill="#3B88C3"/>
<path d="M23.205 16.026C23.285 15.809 23.336 15.578 23.336 15.333C23.336 14.8026 23.1253 14.2939 22.7502 13.9188C22.3751 13.5437 21.8664 13.333 21.336 13.333H14.669C14.1386 13.333 13.6299 13.5437 13.2548 13.9188C12.8797 14.2939 12.669 14.8026 12.669 15.333C12.669 15.578 12.719 15.809 12.8 16.026C9.542 17.852 7.336 21.333 7.336 25.333C7.335 31.224 12.111 36 18.002 36C23.893 36 28.669 31.224 28.669 25.333C28.669 21.333 26.463 17.852 23.205 16.026Z" fill="#CCD6DD"/>
<path d="M22.002 28.921H18.459C19.337 27.687 20.871 25.687 21.469 24.62C21.918 23.741 22.198 23.181 22.198 22.19C22.198 20.114 20.628 18.413 17.954 18.413C15.729 18.413 14.214 20.245 14.214 20.245C14.083 20.395 14.102 20.619 14.233 20.732L15.374 21.891C15.4077 21.9265 15.4482 21.9548 15.4932 21.9742C15.5381 21.9936 15.5866 22.0035 15.6355 22.0035C15.6845 22.0035 15.7329 21.9936 15.7779 21.9742C15.8228 21.9548 15.8634 21.9265 15.897 21.891C16.252 21.498 16.944 20.956 17.71 20.956C18.757 20.956 19.356 21.591 19.356 22.302C19.356 22.825 19.113 23.349 18.87 23.723C17.766 25.405 14.999 29.164 13.915 30.585V30.959C13.915 31.147 14.064 31.314 14.27 31.314H22.002C22.0951 31.3107 22.1836 31.2723 22.2494 31.2064C22.3153 31.1405 22.3538 31.0521 22.357 30.959V29.277C22.3543 29.1836 22.316 29.0948 22.25 29.0286C22.1841 28.9625 22.0954 28.924 22.002 28.921Z" fill="#627077"/>
</g>
<defs>
<clipPath id="clip0_101_250">
<rect width="36" height="36" fill="white"/>
</clipPath>
</defs>
</svg>
