<svg width="36" height="36" viewBox="0 0 36 36" fill="none" xmlns="http://www.w3.org/2000/svg">
<g clip-path="url(#clip0_101_255)">
<path d="M18 8L11 0H0L14 17L25.521 12.25L18 8Z" fill="#55ACEE"/>
<path d="M25 0L18 8L23.39 15.312L24.617 13.823L36 0H25Z" fill="#3B88C3"/>
<path d="M23.205 16.026C23.285 15.809 23.336 15.578 23.336 15.333C23.336 14.8026 23.1253 14.2939 22.7502 13.9188C22.3751 13.5437 21.8664 13.333 21.336 13.333H14.669C14.1386 13.333 13.6299 13.5437 13.2548 13.9188C12.8797 14.2939 12.669 14.8026 12.669 15.333C12.669 15.578 12.719 15.809 12.8 16.026C9.542 17.852 7.336 21.333 7.336 25.333C7.335 31.224 12.111 36 18.002 36C23.893 36 28.669 31.224 28.669 25.333C28.669 21.333 26.463 17.852 23.205 16.026Z" fill="#FF8A3B"/>
<path d="M14.121 29.35L15.299 28.172C15.3578 28.1081 15.4385 28.0686 15.5251 28.0616C15.6116 28.0545 15.6977 28.0804 15.766 28.134C15.766 28.134 16.925 28.995 17.822 28.995C18.627 28.995 19.45 28.322 19.45 27.499C19.45 26.676 18.608 25.985 17.225 25.985H16.586C16.493 25.9818 16.4047 25.9433 16.3389 25.8774C16.2732 25.8115 16.235 25.7231 16.232 25.63V24.078C16.232 23.872 16.4 23.723 16.586 23.723H17.225C18.534 23.723 19.225 23.088 19.225 22.284C19.225 21.479 18.534 20.882 17.729 20.882C16.906 20.882 16.383 21.312 16.103 21.629C15.971 21.779 15.748 21.779 15.599 21.649L14.458 20.527C14.307 20.395 14.326 20.172 14.458 20.041C14.458 20.041 15.991 18.395 18.028 18.395C20.197 18.395 22.067 19.723 22.067 21.817C22.067 23.256 20.982 24.322 20.141 24.714V24.771C21.02 25.145 22.403 26.304 22.403 27.912C22.403 29.95 20.627 31.484 18.046 31.484C15.692 31.484 14.494 30.324 14.102 29.82C13.989 29.686 14.009 29.48 14.121 29.35Z" fill="#7C4119"/>
</g>
<defs>
<clipPath id="clip0_101_255">
<rect width="36" height="36" fill="white"/>
</clipPath>
</defs>
</svg>
