<svg width="1920" height="855" viewBox="0 0 1920 855" fill="none" xmlns="http://www.w3.org/2000/svg">
<rect width="1920" height="855" fill="white"/>
<rect width="1920" height="287.266" fill="url(#paint0_linear_182_2444)"/>
<path fill-rule="evenodd" clip-rule="evenodd" d="M441.805 91.6847C503.319 100.889 565.169 119.26 607.49 176.242C648.608 231.606 646.461 310.965 659.61 384.949C679.66 497.767 752.599 616.725 703.072 714.057C652.057 814.314 536.341 812.598 441.805 812.989C346.866 813.382 243.566 803.688 178.815 716.227C115.369 630.528 114.628 501.413 124.91 384.949C133.94 282.654 165.604 180.914 231.453 119.976C290.529 65.3044 369.011 80.7925 441.805 91.6847Z" fill="#64FCD9"/>
<path fill-rule="evenodd" clip-rule="evenodd" d="M1541.8 93.8703C1601.11 103.238 1657.47 125.458 1701.82 177.882C1748.85 233.474 1781.27 305.347 1790.22 387.5C1800.79 484.623 1800.94 589.319 1755.04 666.84C1704.37 752.42 1621.4 836.335 1541.8 807.05C1463.88 778.382 1475.09 624.458 1422.08 544.337C1377.12 476.376 1281.51 474.537 1264.23 387.5C1245.32 292.255 1279.46 182.228 1337.91 120.398C1393.15 61.9628 1471.31 82.7355 1541.8 93.8703Z" fill="#64FCD9"/>
<defs>
<linearGradient id="paint0_linear_182_2444" x1="960" y1="105.959" x2="960" y2="287.266" gradientUnits="userSpaceOnUse">
<stop stop-color="#B9F0F0"/>
<stop offset="1" stop-color="#B9F0F0" stop-opacity="0"/>
</linearGradient>
</defs>
</svg>
