<svg width="430" height="150" viewBox="0 0 430 150" fill="none" xmlns="http://www.w3.org/2000/svg">
<g filter="url(#filter0_d_188_2446)">
<path d="M10.1296 48.768C8.2096 48.768 6.7056 48.256 5.6176 47.232C4.5936 46.144 4.0816 44.608 4.0816 42.624V7.77601C4.0816 5.60001 4.6576 3.93601 5.8096 2.78401C6.9616 1.63201 8.6256 1.05601 10.8016 1.05601H41.8096C43.9856 1.05601 45.6496 1.63201 46.8016 2.78401C47.9536 3.93601 48.5296 5.60001 48.5296 7.77601V42.624C48.5296 44.608 47.9856 46.144 46.8976 47.232C45.8736 48.256 44.4016 48.768 42.4816 48.768C40.5616 48.768 39.0896 48.256 38.0656 47.232C37.0416 46.144 36.5296 44.608 36.5296 42.624V10.464H16.0816V42.624C16.0816 44.608 15.5696 46.144 14.5456 47.232C13.5856 48.256 12.1136 48.768 10.1296 48.768Z" fill="#64FCD9"/>
<path d="M83.7106 48.96C78.8466 48.96 74.6226 47.968 71.0386 45.984C67.4546 44 64.6706 41.184 62.6866 37.536C60.7026 33.824 59.7106 29.472 59.7106 24.48C59.7106 20.704 60.2546 17.344 61.3426 14.4C62.4946 11.392 64.1266 8.83201 66.2386 6.72001C68.3506 4.54401 70.8786 2.91201 73.8226 1.82401C76.7666 0.672008 80.0626 0.0960083 83.7106 0.0960083C88.5746 0.0960083 92.7986 1.08801 96.3826 3.07201C99.9666 5.05601 102.751 7.87201 104.735 11.52C106.719 15.168 107.711 19.488 107.711 24.48C107.711 28.256 107.135 31.648 105.983 34.656C104.895 37.664 103.295 40.256 101.183 42.432C99.0706 44.544 96.5426 46.176 93.5986 47.328C90.6546 48.416 87.3586 48.96 83.7106 48.96ZM83.7106 39.84C86.0786 39.84 88.1586 39.264 89.9506 38.112C91.7426 36.96 93.1186 35.264 94.0786 33.024C95.1026 30.72 95.6146 27.872 95.6146 24.48C95.6146 19.36 94.5266 15.552 92.3506 13.056C90.1746 10.496 87.2946 9.21601 83.7106 9.21601C81.3426 9.21601 79.2626 9.79201 77.4706 10.944C75.6786 12.032 74.2706 13.728 73.2466 16.032C72.2866 18.272 71.8066 21.088 71.8066 24.48C71.8066 29.536 72.8946 33.376 75.0706 36C77.2466 38.56 80.1266 39.84 83.7106 39.84Z" fill="#64FCD9"/>
<path d="M124.112 48.768C122.448 48.768 121.136 48.288 120.176 47.328C119.28 46.304 118.832 44.896 118.832 43.104V6.81601C118.832 5.40801 119.024 4.22401 119.408 3.26401C119.792 2.30401 120.4 1.56801 121.232 1.05601C122.064 0.544008 123.088 0.288009 124.304 0.288009C125.52 0.288009 126.512 0.512009 127.28 0.960009C128.112 1.34401 128.816 1.85601 129.392 2.49601C129.968 3.13601 130.448 3.84001 130.832 4.60801L144.944 28.8L159.056 4.60801C159.504 3.77601 159.984 3.04001 160.496 2.40001C161.072 1.76001 161.744 1.24801 162.512 0.864007C163.344 0.480008 164.336 0.288009 165.488 0.288009C167.344 0.288009 168.72 0.864008 169.616 2.01601C170.512 3.10401 170.96 4.70401 170.96 6.81601V43.104C170.96 44.896 170.512 46.304 169.616 47.328C168.72 48.288 167.408 48.768 165.68 48.768C164.016 48.768 162.704 48.288 161.744 47.328C160.848 46.304 160.4 44.896 160.4 43.104V14.88H162.704L148.976 38.304C148.656 38.88 148.176 39.456 147.536 40.032C146.96 40.544 146.096 40.8 144.944 40.8C143.728 40.8 142.832 40.512 142.256 39.936C141.68 39.36 141.232 38.816 140.912 38.304L127.088 14.88H129.392V43.104C129.392 44.896 128.944 46.304 128.048 47.328C127.152 48.288 125.84 48.768 124.112 48.768Z" fill="#64FCD9"/>
<path d="M206.054 48.96C201.19 48.96 196.966 47.968 193.382 45.984C189.798 44 187.014 41.184 185.03 37.536C183.046 33.824 182.054 29.472 182.054 24.48C182.054 20.704 182.598 17.344 183.686 14.4C184.838 11.392 186.47 8.83201 188.582 6.72001C190.694 4.54401 193.222 2.91201 196.166 1.82401C199.11 0.672008 202.406 0.0960083 206.054 0.0960083C210.918 0.0960083 215.142 1.08801 218.726 3.07201C222.31 5.05601 225.094 7.87201 227.078 11.52C229.062 15.168 230.054 19.488 230.054 24.48C230.054 28.256 229.478 31.648 228.326 34.656C227.238 37.664 225.638 40.256 223.526 42.432C221.414 44.544 218.886 46.176 215.942 47.328C212.998 48.416 209.702 48.96 206.054 48.96ZM206.054 39.84C208.422 39.84 210.502 39.264 212.294 38.112C214.086 36.96 215.462 35.264 216.422 33.024C217.446 30.72 217.958 27.872 217.958 24.48C217.958 19.36 216.87 15.552 214.694 13.056C212.518 10.496 209.638 9.21601 206.054 9.21601C203.686 9.21601 201.606 9.79201 199.814 10.944C198.022 12.032 196.614 13.728 195.59 16.032C194.63 18.272 194.15 21.088 194.15 24.48C194.15 29.536 195.238 33.376 197.414 36C199.59 38.56 202.47 39.84 206.054 39.84Z" fill="#64FCD9"/>
<path d="M274.007 48.768C272.087 48.768 270.615 48.256 269.591 47.232C268.567 46.144 268.055 44.608 268.055 42.624V28.608H263.255C261.847 28.608 260.631 28.768 259.607 29.088C258.647 29.408 257.751 29.984 256.919 30.816C256.151 31.584 255.351 32.704 254.519 34.176L248.087 45.408C247.319 46.752 246.359 47.648 245.207 48.096C244.055 48.608 242.903 48.736 241.751 48.48C240.599 48.288 239.575 47.84 238.679 47.136C237.847 46.368 237.303 45.44 237.047 44.352C236.855 43.2 237.143 41.952 237.911 40.608L243.671 30.528C244.823 28.48 245.975 26.784 247.127 25.44C248.343 24.032 249.623 22.944 250.967 22.176C252.375 21.408 253.943 20.928 255.671 20.736L253.463 24.576L241.847 9.02401C240.951 7.80801 240.503 6.65601 240.503 5.56801C240.503 4.41601 240.823 3.42401 241.463 2.59201C242.167 1.76001 243.031 1.18401 244.055 0.864007C245.079 0.544007 246.135 0.544007 247.223 0.864007C248.375 1.18401 249.399 1.95201 250.295 3.16801L262.391 19.296H268.055V6.52801C268.055 4.54401 268.567 3.04001 269.591 2.01601C270.615 0.928007 272.087 0.384007 274.007 0.384007C275.927 0.384007 277.399 0.928007 278.423 2.01601C279.511 3.04001 280.055 4.54401 280.055 6.52801V19.296H285.719L297.719 3.16801C298.615 1.95201 299.639 1.18401 300.791 0.864007C301.943 0.480008 303.031 0.448009 304.055 0.768008C305.079 1.08801 305.911 1.66401 306.551 2.49601C307.255 3.32801 307.607 4.32001 307.607 5.47201C307.607 6.56001 307.159 7.71201 306.263 8.92801L294.647 24.576L292.343 20.736C294.071 20.928 295.607 21.408 296.951 22.176C298.359 22.944 299.671 24.032 300.887 25.44C302.103 26.784 303.287 28.48 304.439 30.528L310.103 40.608C310.871 41.952 311.127 43.2 310.871 44.352C310.679 45.44 310.135 46.368 309.239 47.136C308.407 47.84 307.415 48.288 306.263 48.48C305.111 48.736 303.959 48.608 302.807 48.096C301.719 47.648 300.791 46.752 300.023 45.408L293.591 34.176C292.759 32.704 291.927 31.584 291.095 30.816C290.327 29.984 289.431 29.408 288.407 29.088C287.447 28.768 286.263 28.608 284.855 28.608H280.055V42.624C280.055 44.608 279.511 46.144 278.423 47.232C277.399 48.256 275.927 48.768 274.007 48.768Z" fill="#64FCD9"/>
<path d="M343.72 48.96C338.408 48.96 333.832 47.968 329.992 45.984C326.152 44 323.176 41.184 321.064 37.536C319.016 33.888 317.992 29.568 317.992 24.576C317.992 19.712 318.984 15.456 320.968 11.808C323.016 8.16001 325.8 5.31201 329.32 3.26401C332.904 1.15201 336.968 0.0960083 341.512 0.0960083C344.84 0.0960083 347.816 0.640008 350.44 1.72801C353.128 2.81601 355.4 4.38401 357.256 6.43201C359.176 8.48001 360.616 10.976 361.576 13.92C362.6 16.8 363.112 20.064 363.112 23.712C363.112 24.864 362.696 25.76 361.864 26.4C361.096 26.976 359.976 27.264 358.504 27.264H327.688V20.352H354.664L353.128 21.792C353.128 18.848 352.68 16.384 351.784 14.4C350.952 12.416 349.704 10.912 348.04 9.88801C346.44 8.80001 344.424 8.25601 341.992 8.25601C339.304 8.25601 337 8.89601 335.08 10.176C333.224 11.392 331.784 13.152 330.76 15.456C329.8 17.696 329.32 20.384 329.32 23.52V24.192C329.32 29.44 330.536 33.376 332.968 36C335.464 38.56 339.112 39.84 343.912 39.84C345.576 39.84 347.432 39.648 349.48 39.264C351.592 38.816 353.576 38.08 355.432 37.056C356.776 36.288 357.96 35.968 358.984 36.096C360.008 36.16 360.808 36.512 361.384 37.152C362.024 37.792 362.408 38.592 362.536 39.552C362.664 40.448 362.472 41.376 361.96 42.336C361.512 43.296 360.712 44.128 359.56 44.832C357.32 46.24 354.728 47.296 351.784 48C348.904 48.64 346.216 48.96 343.72 48.96Z" fill="#64FCD9"/>
<path d="M379.112 48.768C377.448 48.768 376.136 48.288 375.176 47.328C374.28 46.304 373.832 44.896 373.832 43.104V6.81601C373.832 5.40801 374.024 4.22401 374.408 3.26401C374.792 2.30401 375.4 1.56801 376.232 1.05601C377.064 0.544008 378.088 0.288009 379.304 0.288009C380.52 0.288009 381.512 0.512009 382.28 0.960009C383.112 1.34401 383.816 1.85601 384.392 2.49601C384.968 3.13601 385.448 3.84001 385.832 4.60801L399.944 28.8L414.056 4.60801C414.504 3.77601 414.984 3.04001 415.496 2.40001C416.072 1.76001 416.744 1.24801 417.512 0.864007C418.344 0.480008 419.336 0.288009 420.488 0.288009C422.344 0.288009 423.72 0.864008 424.616 2.01601C425.512 3.10401 425.96 4.70401 425.96 6.81601V43.104C425.96 44.896 425.512 46.304 424.616 47.328C423.72 48.288 422.408 48.768 420.68 48.768C419.016 48.768 417.704 48.288 416.744 47.328C415.848 46.304 415.4 44.896 415.4 43.104V14.88H417.704L403.976 38.304C403.656 38.88 403.176 39.456 402.536 40.032C401.96 40.544 401.096 40.8 399.944 40.8C398.728 40.8 397.832 40.512 397.256 39.936C396.68 39.36 396.232 38.816 395.912 38.304L382.088 14.88H384.392V43.104C384.392 44.896 383.944 46.304 383.048 47.328C382.152 48.288 380.84 48.768 379.112 48.768Z" fill="#64FCD9"/>
<path d="M68.4867 141C66.5667 141 65.0947 140.488 64.0707 139.464C63.0467 138.44 62.5347 136.968 62.5347 135.048V100.008C62.5347 98.088 63.0467 96.616 64.0707 95.592C65.0947 94.568 66.5667 94.056 68.4867 94.056H87.8787C91.9107 94.056 95.1747 94.536 97.6707 95.496C100.231 96.456 102.087 97.864 103.239 99.72C104.391 101.512 104.967 103.72 104.967 106.344C104.967 109.288 103.943 111.784 101.895 113.832C99.9107 115.816 97.2547 117.032 93.9267 117.48V116.136C98.0867 116.392 101.223 117.576 103.335 119.688C105.511 121.8 106.599 124.52 106.599 127.848C106.599 131.88 105.063 135.08 101.991 137.448C98.9187 139.816 94.4707 141 88.6467 141H68.4867ZM73.6707 133.608H87.5907C90.2147 133.608 92.1987 133.064 93.5427 131.976C94.9507 130.888 95.6547 129.288 95.6547 127.176C95.6547 125.064 94.9507 123.464 93.5427 122.376C92.1987 121.288 90.2147 120.744 87.5907 120.744H73.6707V133.608ZM73.6707 113.352H86.7267C89.0307 113.352 90.8227 112.84 92.1027 111.816C93.3827 110.728 94.0227 109.224 94.0227 107.304C94.0227 105.384 93.3827 103.944 92.1027 102.984C90.8227 101.96 89.0307 101.448 86.7267 101.448H73.6707V113.352Z" fill="#64FCD9"/>
<path d="M122.377 141.768C120.713 141.768 119.401 141.288 118.441 140.328C117.545 139.304 117.097 137.896 117.097 136.104V99.816C117.097 98.408 117.289 97.224 117.673 96.264C118.057 95.304 118.665 94.568 119.497 94.056C120.329 93.544 121.353 93.288 122.569 93.288C123.785 93.288 124.777 93.512 125.545 93.96C126.377 94.344 127.081 94.856 127.657 95.496C128.233 96.136 128.713 96.84 129.097 97.608L143.209 121.8L157.321 97.608C157.769 96.776 158.249 96.04 158.761 95.4C159.337 94.76 160.009 94.248 160.777 93.864C161.609 93.48 162.601 93.288 163.753 93.288C165.609 93.288 166.985 93.864 167.881 95.016C168.777 96.104 169.225 97.704 169.225 99.816V136.104C169.225 137.896 168.777 139.304 167.881 140.328C166.985 141.288 165.673 141.768 163.945 141.768C162.281 141.768 160.969 141.288 160.009 140.328C159.113 139.304 158.665 137.896 158.665 136.104V107.88H160.969L147.241 131.304C146.921 131.88 146.441 132.456 145.801 133.032C145.225 133.544 144.361 133.8 143.209 133.8C141.993 133.8 141.097 133.512 140.521 132.936C139.945 132.36 139.497 131.816 139.177 131.304L125.353 107.88H127.657V136.104C127.657 137.896 127.209 139.304 126.313 140.328C125.417 141.288 124.105 141.768 122.377 141.768Z" fill="#64FCD9"/>
<path d="M206.048 141.96C200.736 141.96 196.16 140.968 192.32 138.984C188.48 137 185.504 134.184 183.392 130.536C181.344 126.888 180.32 122.568 180.32 117.576C180.32 112.712 181.312 108.456 183.296 104.808C185.344 101.16 188.128 98.312 191.648 96.264C195.232 94.152 199.296 93.096 203.84 93.096C207.168 93.096 210.144 93.64 212.768 94.728C215.456 95.816 217.728 97.384 219.584 99.432C221.504 101.48 222.944 103.976 223.904 106.92C224.928 109.8 225.44 113.064 225.44 116.712C225.44 117.864 225.024 118.76 224.192 119.4C223.424 119.976 222.304 120.264 220.832 120.264H190.016V113.352H216.992L215.456 114.792C215.456 111.848 215.008 109.384 214.112 107.4C213.28 105.416 212.032 103.912 210.368 102.888C208.768 101.8 206.752 101.256 204.32 101.256C201.632 101.256 199.328 101.896 197.408 103.176C195.552 104.392 194.112 106.152 193.088 108.456C192.128 110.696 191.648 113.384 191.648 116.52V117.192C191.648 122.44 192.864 126.376 195.296 129C197.792 131.56 201.44 132.84 206.24 132.84C207.904 132.84 209.76 132.648 211.808 132.264C213.92 131.816 215.904 131.08 217.76 130.056C219.104 129.288 220.288 128.968 221.312 129.096C222.336 129.16 223.136 129.512 223.712 130.152C224.352 130.792 224.736 131.592 224.864 132.552C224.992 133.448 224.8 134.376 224.288 135.336C223.84 136.296 223.04 137.128 221.888 137.832C219.648 139.24 217.056 140.296 214.112 141C211.232 141.64 208.544 141.96 206.048 141.96Z" fill="#64FCD9"/>
<path d="M257.952 141.96C253.024 141.96 248.736 140.968 245.088 138.984C241.44 136.936 238.624 134.056 236.64 130.344C234.656 126.632 233.664 122.28 233.664 117.288C233.664 113.512 234.208 110.152 235.296 107.208C236.448 104.2 238.08 101.672 240.192 99.624C242.304 97.512 244.864 95.912 247.872 94.824C250.88 93.672 254.24 93.096 257.952 93.096C260.064 93.096 262.336 93.384 264.768 93.96C267.264 94.536 269.6 95.496 271.776 96.84C272.8 97.48 273.472 98.248 273.792 99.144C274.112 100.04 274.176 100.968 273.984 101.928C273.792 102.824 273.376 103.624 272.736 104.328C272.16 104.968 271.424 105.384 270.528 105.576C269.632 105.704 268.64 105.48 267.552 104.904C266.144 104.072 264.704 103.464 263.232 103.08C261.76 102.632 260.352 102.408 259.008 102.408C256.896 102.408 255.04 102.76 253.44 103.464C251.84 104.104 250.464 105.064 249.312 106.344C248.224 107.56 247.392 109.096 246.816 110.952C246.24 112.808 245.952 114.952 245.952 117.384C245.952 122.12 247.072 125.864 249.312 128.616C251.616 131.304 254.848 132.648 259.008 132.648C260.352 132.648 261.728 132.456 263.136 132.072C264.608 131.688 266.08 131.08 267.552 130.248C268.64 129.672 269.6 129.48 270.432 129.672C271.328 129.864 272.064 130.312 272.64 131.016C273.216 131.656 273.568 132.456 273.696 133.416C273.824 134.312 273.696 135.208 273.312 136.104C272.992 137 272.352 137.736 271.392 138.312C269.28 139.592 267.04 140.52 264.672 141.096C262.304 141.672 260.064 141.96 257.952 141.96Z" fill="#64FCD9"/>
<path d="M298.783 141.768C296.863 141.768 295.359 141.256 294.271 140.232C293.247 139.144 292.735 137.608 292.735 135.624V103.464H281.023C277.567 103.464 275.839 101.896 275.839 98.76C275.839 97.288 276.287 96.136 277.183 95.304C278.143 94.472 279.423 94.056 281.023 94.056H316.447C319.903 94.056 321.631 95.624 321.631 98.76C321.631 100.296 321.183 101.48 320.287 102.312C319.391 103.08 318.111 103.464 316.447 103.464H304.735V135.624C304.735 137.608 304.223 139.144 303.199 140.232C302.239 141.256 300.767 141.768 298.783 141.768Z" fill="#64FCD9"/>
<path d="M350.985 141.96C345.673 141.96 341.097 140.968 337.257 138.984C333.417 137 330.441 134.184 328.329 130.536C326.281 126.888 325.257 122.568 325.257 117.576C325.257 112.712 326.249 108.456 328.233 104.808C330.281 101.16 333.065 98.312 336.585 96.264C340.169 94.152 344.233 93.096 348.777 93.096C352.105 93.096 355.081 93.64 357.705 94.728C360.393 95.816 362.665 97.384 364.521 99.432C366.441 101.48 367.881 103.976 368.841 106.92C369.865 109.8 370.377 113.064 370.377 116.712C370.377 117.864 369.961 118.76 369.129 119.4C368.361 119.976 367.241 120.264 365.769 120.264H334.953V113.352H361.929L360.393 114.792C360.393 111.848 359.945 109.384 359.049 107.4C358.217 105.416 356.969 103.912 355.305 102.888C353.705 101.8 351.689 101.256 349.257 101.256C346.569 101.256 344.265 101.896 342.345 103.176C340.489 104.392 339.049 106.152 338.025 108.456C337.065 110.696 336.585 113.384 336.585 116.52V117.192C336.585 122.44 337.801 126.376 340.233 129C342.729 131.56 346.377 132.84 351.177 132.84C352.841 132.84 354.697 132.648 356.745 132.264C358.857 131.816 360.841 131.08 362.697 130.056C364.041 129.288 365.225 128.968 366.249 129.096C367.273 129.16 368.073 129.512 368.649 130.152C369.289 130.792 369.673 131.592 369.801 132.552C369.929 133.448 369.737 134.376 369.225 135.336C368.777 136.296 367.977 137.128 366.825 137.832C364.585 139.24 361.993 140.296 359.049 141C356.169 141.64 353.481 141.96 350.985 141.96Z" fill="#64FCD9"/>
</g>
<defs>
<filter id="filter0_d_188_2446" x="0.081604" y="0.0960083" width="429.878" height="149.864" filterUnits="userSpaceOnUse" color-interpolation-filters="sRGB">
<feFlood flood-opacity="0" result="BackgroundImageFix"/>
<feColorMatrix in="SourceAlpha" type="matrix" values="0 0 0 0 0 0 0 0 0 0 0 0 0 0 0 0 0 0 127 0" result="hardAlpha"/>
<feOffset dy="4"/>
<feGaussianBlur stdDeviation="2"/>
<feComposite in2="hardAlpha" operator="out"/>
<feColorMatrix type="matrix" values="0 0 0 0 0 0 0 0 0 0 0 0 0 0 0 0 0 0 0.25 0"/>
<feBlend mode="normal" in2="BackgroundImageFix" result="effect1_dropShadow_188_2446"/>
<feBlend mode="normal" in="SourceGraphic" in2="effect1_dropShadow_188_2446" result="shape"/>
</filter>
</defs>
</svg>
