<svg width="369" height="174" viewBox="0 0 369 174" fill="none" xmlns="http://www.w3.org/2000/svg">
<path d="M210.718 125.315C213.611 127.797 216.713 130.073 219.983 132.135C238.869 144.036 263.403 148.762 286.132 144.576C300.419 141.946 316.142 135.747 323.426 123.85C331.419 110.796 327.117 95.1791 320.153 82.6137C311.428 66.8715 299.545 52.2127 287.371 38.4575C286.312 37.2601 286.829 35.8479 287.854 35.0894C288.807 34.3847 290.198 34.2444 291.168 35.3656C303.025 49.0653 314.345 63.5737 323.207 78.9897C330.611 91.8703 335.497 107.327 329.434 121.436C323.713 134.753 309.027 142.619 294.291 146.534C280.422 150.219 265.422 150.361 251.354 147.492C235.361 144.231 220.699 136.973 209.35 126.429C208.518 125.656 209.866 124.584 210.718 125.315Z" fill="#FF3737"/>
<path d="M210.718 125.315C213.611 127.797 216.713 130.073 219.983 132.135C238.869 144.036 263.403 148.762 286.132 144.576C300.419 141.946 316.142 135.747 323.426 123.85C331.419 110.796 327.117 95.1791 320.153 82.6137C311.428 66.8715 299.545 52.2127 287.371 38.4575C286.312 37.2601 286.829 35.8479 287.854 35.0894C288.807 34.3847 290.198 34.2444 291.168 35.3656C303.025 49.0653 314.345 63.5737 323.207 78.9897C330.611 91.8703 335.497 107.327 329.434 121.436C323.713 134.753 309.027 142.619 294.291 146.534C280.422 150.219 265.422 150.361 251.354 147.492C235.361 144.231 220.699 136.973 209.35 126.429C208.518 125.656 209.866 124.584 210.718 125.315Z" fill="#FF3737"/>
<path d="M211.238 126.566C232.674 136.457 257.155 137.797 280.277 131.97C290.824 129.313 304.701 124.858 308.502 114.639C312.577 103.687 302.209 91.4478 295.73 82.8909C286.842 71.154 276.317 60.4604 264.584 50.9099C262.712 49.3864 265.64 47.0135 267.494 48.5406C267.723 48.7294 267.952 48.9187 268.181 49.1084C279.459 58.4821 289.507 68.9209 298.154 80.2961C305.021 89.3298 314.802 101.186 312.487 112.796C310.386 123.33 298.768 129.159 288.362 132.398C276.387 136.127 263.594 137.978 250.902 137.69C240.393 137.451 229.746 135.711 219.983 132.135C216.651 130.914 213.422 129.48 210.337 127.818C209.401 127.314 210.299 126.132 211.238 126.566Z" fill="#FF3737"/>
<path d="M211.238 126.566C232.674 136.457 257.155 137.797 280.277 131.97C290.824 129.313 304.701 124.858 308.502 114.639C312.577 103.687 302.209 91.4478 295.73 82.8909C286.842 71.154 276.317 60.4604 264.584 50.9099C262.712 49.3864 265.64 47.0135 267.494 48.5406C267.723 48.7294 267.952 48.9187 268.181 49.1084C279.459 58.4821 289.507 68.9209 298.154 80.2961C305.021 89.3298 314.802 101.186 312.487 112.796C310.386 123.33 298.768 129.159 288.362 132.398C276.387 136.127 263.594 137.978 250.902 137.69C240.393 137.451 229.746 135.711 219.983 132.135C216.651 130.914 213.422 129.48 210.337 127.818C209.401 127.314 210.299 126.132 211.238 126.566Z" fill="#FF3737"/>
<path d="M288.017 34.9585C294.867 30.394 301.526 25.6171 307.753 20.4022C308.745 19.572 309.726 18.7306 310.694 17.8772C310.954 18.9341 311.213 19.9914 311.473 21.0493C310.232 20.8375 308.992 20.6218 307.753 20.4022C288.918 17.0641 270.302 12.8383 251.926 7.87563C251.023 7.63157 250.12 7.38572 249.217 7.13811C250.194 6.54208 251.171 5.94705 252.149 5.35169C252.072 6.19286 251.998 7.03418 251.926 7.87563C250.554 23.973 250.116 40.1193 250.594 56.2562C250.628 57.4116 250.667 58.5669 250.711 59.7221C249.625 59.0951 248.54 58.4674 247.455 57.8393C248.517 57.329 249.563 56.8014 250.594 56.2562C255.593 53.6121 260.233 50.555 264.567 47.0595C266.352 45.6196 268.76 47.4726 268.181 49.1084C268.076 49.4041 267.873 49.6927 267.552 49.9535C262.05 54.4179 256.037 58.2176 249.494 61.3825C247.889 62.1586 246.298 60.9331 246.238 59.499C245.496 41.3578 245.981 23.2187 247.666 5.12766C247.785 3.84094 249.19 2.95294 250.597 3.34158C271.046 8.98382 291.804 13.6354 312.772 17.4751C314.392 17.7717 314.613 19.7647 313.551 20.6473C306.152 26.7913 298.21 32.2749 289.392 36.7168C288.287 37.2732 287.055 35.8699 287.854 35.0894C287.902 35.0434 287.956 34.9996 288.017 34.9585Z" fill="#FF3737"/>
<path d="M288.017 34.9585C294.867 30.394 301.526 25.6171 307.753 20.4022C308.745 19.572 309.726 18.7306 310.694 17.8772C310.954 18.9341 311.213 19.9914 311.473 21.0493C310.232 20.8375 308.992 20.6218 307.753 20.4022C288.918 17.0641 270.302 12.8383 251.926 7.87563C251.023 7.63157 250.12 7.38572 249.217 7.13811C250.194 6.54208 251.171 5.94705 252.149 5.35169C252.072 6.19286 251.998 7.03418 251.926 7.87563C250.554 23.973 250.116 40.1193 250.594 56.2562C250.628 57.4116 250.667 58.5669 250.711 59.7221C249.625 59.0951 248.54 58.4674 247.455 57.8393C248.517 57.329 249.563 56.8014 250.594 56.2562C255.593 53.6121 260.233 50.555 264.567 47.0595C266.352 45.6196 268.76 47.4726 268.181 49.1084C268.076 49.4041 267.873 49.6927 267.552 49.9535C262.05 54.4179 256.037 58.2176 249.494 61.3825C247.889 62.1586 246.298 60.9331 246.238 59.499C245.496 41.3578 245.981 23.2187 247.666 5.12766C247.785 3.84094 249.19 2.95294 250.597 3.34158C271.046 8.98382 291.804 13.6354 312.772 17.4751C314.392 17.7717 314.613 19.7647 313.551 20.6473C306.152 26.7913 298.21 32.2749 289.392 36.7168C288.287 37.2732 287.055 35.8699 287.854 35.0894C287.902 35.0434 287.956 34.9996 288.017 34.9585Z" fill="#FF3737"/>
<path d="M286.132 144.576C263.403 148.762 238.869 144.036 219.983 132.135C229.746 135.711 240.393 137.451 250.902 137.69C263.594 137.978 276.387 136.127 288.362 132.398C298.768 129.159 310.386 123.33 312.487 112.796C314.802 101.186 305.021 89.3298 298.154 80.2961C289.507 68.9209 279.459 58.4821 268.181 49.1084C268.76 47.4726 266.352 45.6196 264.567 47.0595C260.233 50.555 255.593 53.6121 250.594 56.2562C250.116 40.1193 250.554 23.973 251.926 7.87563C270.302 12.8383 288.918 17.0641 307.753 20.4022C301.526 25.6171 294.867 30.394 288.017 34.9585C287.956 34.9996 287.902 35.0434 287.854 35.0894C286.829 35.8479 286.312 37.2601 287.371 38.4575C299.545 52.2127 311.428 66.8715 320.153 82.6137C327.117 95.1791 331.419 110.796 323.426 123.85C316.142 135.747 300.419 141.946 286.132 144.576Z" fill="#FF3737"/>
<path d="M286.132 144.576C263.403 148.762 238.869 144.036 219.983 132.135C229.746 135.711 240.393 137.451 250.902 137.69C263.594 137.978 276.387 136.127 288.362 132.398C298.768 129.159 310.386 123.33 312.487 112.796C314.802 101.186 305.021 89.3298 298.154 80.2961C289.507 68.9209 279.459 58.4821 268.181 49.1084C268.76 47.4726 266.352 45.6196 264.567 47.0595C260.233 50.555 255.593 53.6121 250.594 56.2562C250.116 40.1193 250.554 23.973 251.926 7.87563C270.302 12.8383 288.918 17.0641 307.753 20.4022C301.526 25.6171 294.867 30.394 288.017 34.9585C287.956 34.9996 287.902 35.0434 287.854 35.0894C286.829 35.8479 286.312 37.2601 287.371 38.4575C299.545 52.2127 311.428 66.8715 320.153 82.6137C327.117 95.1791 331.419 110.796 323.426 123.85C316.142 135.747 300.419 141.946 286.132 144.576Z" fill="#FF3737"/>
<path d="M94.4696 136.028C93.8112 136.209 93.3166 136.212 92.9857 136.038C92.6961 135.852 92.3912 135.428 92.0712 134.765L87.551 123.49L87.0254 121.78L85.1362 116.14C83.1084 110.295 81.5635 105.907 80.5015 102.975C80.1247 102.019 79.3419 99.828 78.1532 96.4017L77.3759 93.9662C77.2221 93.5228 77.0489 93.2833 76.8563 93.2478C76.6497 93.1719 76.1621 93.1952 75.3934 93.3175C74.5425 93.4623 73.9318 93.5855 73.5614 93.6869C72.4092 94.0026 71.3957 94.523 70.5207 95.2483C70.4696 95.8803 70.7311 97.0887 71.3053 98.8736C71.8795 100.659 72.6141 102.841 73.5091 105.421C73.6777 106.037 74.6143 108.671 76.3189 113.325L78.018 118.222C78.2837 118.988 78.7506 120.074 79.4186 121.48C80.1706 123.128 80.7004 124.395 81.0081 125.282C81.2039 125.847 81.4144 126.583 81.6398 127.493L82.2284 129.384L84.9284 136.193C85.1242 136.757 85.1064 137.225 84.8751 137.598C84.6438 137.97 84.2331 138.215 83.643 138.332C82.4908 138.648 81.7259 138.262 81.3483 137.173C80.0034 132.907 78.5897 128.637 77.1073 124.365L76.1214 121.523C74.9483 118.401 74.0549 116.086 73.4411 114.576C72.9393 113.39 72.2557 111.679 71.3902 109.444C70.162 106.294 68.3957 101.657 66.0914 95.5348C65.8537 94.8495 65.8229 94.3062 65.9991 93.9048C66.2024 93.4518 66.6263 93.115 67.2707 92.8943C71.5224 91.6412 74.7387 90.716 76.9197 90.1185C77.7015 89.9043 78.4233 89.9714 79.0849 90.3198C79.7877 90.657 80.1756 91.1908 80.2488 91.9211C80.4198 92.9336 80.7221 94.0647 81.1556 95.3143C81.4773 96.2414 81.7426 96.9412 81.9515 97.4137C82.0774 97.7764 82.2312 98.2198 82.413 98.7439C82.636 99.2566 82.8458 99.8613 83.0423 100.558C83.3089 101.456 83.6729 102.57 84.1344 103.9C85.059 106.825 85.6693 108.909 85.9654 110.152C86.3282 111.068 86.8868 112.548 87.6412 114.593C88.4227 116.586 89.0015 117.994 89.3774 118.818C89.5197 119.618 89.7307 120.421 90.0104 121.227C90.332 122.154 90.9519 123.551 91.8701 125.418C92.5242 126.784 93.0116 127.865 93.3325 128.659L93.8976 130.094C94.4275 131.361 94.7972 132.297 95.007 132.902L95.4068 134.249C95.7696 135.165 95.4572 135.758 94.4696 136.028ZM111.18 132.047C110.11 132.34 109.003 132.268 107.86 131.83C106.731 131.433 105.683 130.75 104.715 129.779C102.669 127.647 100.998 125.169 99.703 122.346C98.3817 119.706 97.2805 117.116 96.3994 114.577C96.2316 114.093 96.1124 113.685 96.0416 113.351L95.664 112.262C95.5941 112.061 95.5386 111.966 95.4974 111.977L95.1198 110.889L93.7132 106.639C93.3068 105.338 92.7582 103.237 92.0673 100.337C91.6018 98.3453 91.4247 96.3413 91.5361 94.3244C91.5445 93.4393 91.7051 92.7332 92.0179 92.2061C92.3167 91.6387 92.7542 91.2761 93.3303 91.1182C94.9763 90.6673 96.5626 90.5638 98.0892 90.8077C99.6018 91.0112 100.993 91.5131 102.261 92.3131C103.434 93.0954 104.567 94.1533 105.661 95.487C106.74 96.7803 107.69 98.2195 108.51 99.8045C109.345 101.43 110.09 103.19 110.748 105.084L110.916 105.568C111.349 106.818 111.761 107.941 112.152 108.937L113.409 112.367C117.437 123.976 116.694 130.536 111.18 132.047ZM110.052 129.575C110.792 129.372 111.373 128.904 111.795 128.17C112.202 127.396 112.396 126.461 112.376 125.363C112.444 123.093 112.148 120.746 111.488 118.323C110.98 116.21 110.468 114.409 109.95 112.917C109.321 111.103 108.352 108.764 107.043 105.901C105.719 102.865 104.792 100.581 104.26 99.0487L103.883 97.9604C103.269 96.4512 102.273 95.2675 100.893 94.4094C99.5553 93.54 98.1867 93.297 96.7876 93.6803C95.3885 94.0636 94.7353 95.1033 94.8281 96.7993C94.8501 98.1617 95.2037 99.8304 95.889 101.806C96.1547 102.571 96.399 103.211 96.622 103.724L97.1884 105.356L98.0299 108.171C98.2412 109.04 98.5217 109.979 98.8714 110.986C99.6265 113.163 100.436 115.303 101.301 117.405C102.515 120.384 103.947 123.213 105.598 125.895C107.292 128.698 108.776 129.924 110.052 129.575ZM151.768 123.112C150.493 123.461 149.421 122.387 148.554 119.887L147.212 116.018L145.869 112.148C145.17 110.132 144.11 107.532 142.689 104.345C141.087 100.767 140.049 98.2932 139.573 96.9227L138.396 93.14C138.101 92.0291 137.715 90.7884 137.24 89.4179C137.257 89.987 137.543 92.9544 138.098 98.32C138.597 103.524 138.928 108.377 139.093 112.879C139.243 117.208 138.927 119.479 138.145 119.693C137.363 119.907 136.649 119.861 136.001 119.552C135.381 119.193 134.93 118.61 134.651 117.804C134.035 116.03 131.987 112.464 128.506 107.105C125.066 101.736 122.113 97.3802 119.647 94.039L121.647 100.973C123.317 106.827 124.755 111.686 125.96 115.549C127.165 119.281 128.005 121.831 128.48 123.202C128.592 123.524 128.717 123.821 128.856 124.092L129.15 124.938C129.388 125.624 129.419 126.167 129.243 126.568C129.08 127.01 128.608 127.338 127.826 127.552C127.415 127.665 126.968 127.611 126.486 127.39C126.018 127.209 125.721 126.937 125.595 126.575C124.168 122.463 122.337 116.211 120.102 107.819C117.866 99.4265 116.035 93.1746 114.608 89.063C114.236 88.7678 113.979 88.4187 113.84 88.0156C113.672 87.5319 113.772 87.1071 114.141 86.7412C114.537 86.3238 115.064 86.0249 115.722 85.8445C116.257 85.6979 117.902 87.3219 120.657 90.7165C123.412 94.111 126.342 98.0094 129.446 102.412C132.55 106.814 134.679 110.027 135.832 112.051C135.783 110.872 135.701 109.791 135.585 108.808L135.452 107.255C134.811 101.251 134.359 95.791 134.095 90.8752C133.912 87.8796 133.918 85.4944 134.114 83.7194C134.267 81.8234 134.652 80.7909 135.27 80.6218C135.846 80.464 136.416 80.4843 136.981 80.6828C137.572 80.8297 137.952 81.145 138.12 81.6287C139.127 84.531 140.761 88.8506 143.021 94.5876C145.183 99.9101 146.782 104.063 147.817 107.046L148.867 110.267L149.855 113.506C150.023 113.99 150.336 114.698 150.795 115.632L151.715 117.697C151.882 118.049 152 118.325 152.07 118.527C152.181 118.717 152.244 118.832 152.258 118.873C152.645 119.34 152.881 119.695 152.965 119.937C153.203 120.622 153.207 121.283 152.977 121.92C152.747 122.557 152.344 122.954 151.768 123.112ZM168.023 116.474C166.953 116.767 165.846 116.695 164.703 116.258C163.574 115.861 162.526 115.177 161.558 114.206C159.512 112.074 157.841 109.596 156.546 106.773C155.225 104.134 154.123 101.544 153.242 99.0045C153.075 98.5207 152.955 98.112 152.885 97.7783L152.507 96.6899C152.437 96.4883 152.382 96.3932 152.34 96.4045L151.963 95.3161L150.556 91.0667C150.15 89.7655 149.601 87.6646 148.91 84.764C148.445 82.7728 148.268 80.7687 148.379 78.7519C148.387 77.8668 148.548 77.1607 148.861 76.6336C149.16 76.0662 149.597 75.7035 150.173 75.5457C151.819 75.0948 153.406 74.9912 154.932 75.2351C156.445 75.4387 157.835 75.9405 159.104 76.7406C160.277 77.5228 161.41 78.5808 162.504 79.9144C163.583 81.2078 164.533 82.6469 165.353 84.232C166.188 85.8574 166.933 87.6173 167.591 89.5119L167.759 89.9956C168.192 91.2452 168.604 92.3682 168.995 93.3647L170.252 96.7943C174.28 108.403 173.537 114.963 168.023 116.474ZM166.895 114.002C167.635 113.799 168.216 113.331 168.638 112.598C169.045 111.824 169.239 110.888 169.219 109.79C169.287 107.52 168.991 105.173 168.331 102.75C167.823 100.638 167.311 98.8361 166.793 97.3446C166.164 95.5307 165.195 93.1919 163.886 90.3282C162.562 87.292 161.635 85.008 161.103 83.4762L160.726 82.3879C160.112 80.8786 159.115 79.695 157.736 78.8369C156.398 77.9675 155.03 77.7244 153.631 78.1077C152.231 78.491 151.578 79.5307 151.671 81.2268C151.693 82.5891 152.047 84.2579 152.732 86.2331C152.998 86.999 153.242 87.6383 153.465 88.151L154.031 89.7836L154.873 92.5988C155.084 93.4678 155.365 94.4062 155.714 95.414C156.47 97.5907 157.279 99.7303 158.144 101.833C159.358 104.811 160.79 107.641 162.441 110.323C164.135 113.125 165.619 114.352 166.895 114.002ZM194.187 107.85C194.064 108.016 193.797 108.155 193.385 108.268C193.056 108.358 192.692 108.413 192.294 108.434C191.937 108.444 191.648 108.391 191.427 108.274C191.124 108.049 190.833 107.665 190.555 107.123C190.304 106.53 189.99 105.689 189.612 104.6L186.469 96.1256C186.106 95.2098 185.548 93.7957 184.795 91.8834C184.082 89.9598 183.719 88.9117 183.704 88.7392L183.191 92.5214C182.952 93.911 182.277 94.758 181.166 95.0624C180.508 95.2428 179.759 95.2273 178.919 95.0158C176.594 94.417 174.97 92.9196 174.049 90.5235L173.126 87.8631C172.357 85.6461 171.496 83.0348 170.543 80.0294L169.176 75.5042C169.106 75.3027 168.98 74.9399 168.798 74.4159C168.658 73.8806 168.579 73.3945 168.563 72.9576C168.546 72.5206 168.633 72.1216 168.824 71.7606C169.041 71.3479 169.396 71.0739 169.89 70.9386C170.178 70.8597 170.467 70.8469 170.756 70.9002C171.622 71.0601 172.258 71.7245 172.664 72.8935C172.804 73.2966 172.902 73.7109 172.96 74.1366C173.059 74.551 173.164 74.9194 173.276 75.2419L173.782 77.0896C174.287 78.8052 174.631 80.0572 174.814 80.8456L175.426 83.194C176.088 85.7495 176.544 87.3901 176.796 88.1157C177.117 89.0428 177.466 89.8522 177.841 90.544C178.078 91.0971 178.418 91.6219 178.86 92.1186C179.33 92.5637 179.75 92.7356 180.121 92.6341C180.409 92.5552 180.668 92.2635 180.899 91.7589C181.331 90.537 181.572 89.4778 181.621 88.5814C181.682 87.1965 181.638 85.7076 181.491 84.1147C181.33 82.4815 181.054 81.1005 180.662 79.9719C179.919 77.5711 179.211 75.1388 178.536 72.6751C178.368 72.1914 178.144 71.4143 177.862 70.3437C177.821 70.2227 177.758 70.0413 177.674 69.7995C177.631 69.5463 177.63 69.348 177.67 69.2046C177.887 68.6597 178.111 68.3333 178.344 68.2253C178.947 67.8837 179.627 67.896 180.385 68.2622C181.143 68.6284 181.613 69.1396 181.796 69.7959L182.533 72.507C183.18 74.8901 183.603 76.6943 183.803 77.9196C183.975 79.1966 184.546 81.4901 185.514 84.8003L186.462 88.1161C186.532 88.4499 186.68 88.9392 186.903 89.5842C187.239 90.5516 187.811 91.9399 188.619 93.7491C188.939 94.4118 189.35 95.3365 189.851 96.5232C190.395 97.8309 191.293 99.7699 192.545 102.34C192.879 103.043 193.422 104.086 194.172 105.47C194.631 106.404 194.636 107.197 194.187 107.85ZM203.689 105.18C202.852 105.365 202.232 105.072 201.829 104.299L196.77 89.1324L195.155 84.4766L192.05 75.5279C190.679 71.5775 189.672 68.6091 189.028 66.6227C188.944 66.3808 188.991 66.1253 189.168 65.8561C189.386 65.5756 189.701 65.379 190.112 65.2663C190.441 65.1761 190.805 65.1867 191.205 65.2981C191.604 65.4094 191.942 65.6038 192.218 65.8812C192.812 66.4247 193.326 67.3212 193.759 68.5708C194.067 69.4576 194.406 70.8878 194.775 72.8612C194.945 73.7416 195.184 74.6912 195.493 75.7103C195.801 76.7293 196.011 77.4 196.123 77.7225C196.237 78.3094 196.449 79.2445 196.759 80.5279C197.11 81.8001 197.32 82.4047 197.388 82.3419C197.977 82.0922 198.788 82.0247 199.819 82.1395C200.602 82.1897 201.056 82.1979 201.179 82.164C203.102 81.9905 204.851 82.681 206.426 84.2357C208.029 85.7387 209.242 87.415 210.064 89.2645C210.259 89.6966 210.503 90.3359 210.797 91.1824C211.496 93.1979 211.912 94.982 212.045 96.5346C212.613 99.469 211.556 101.877 208.874 103.76C208.436 104.056 207.826 104.311 207.044 104.526C206.468 104.684 205.824 104.838 205.11 104.989C204.424 105.089 203.95 105.153 203.689 105.18ZM204.887 102.203C205.382 102.2 205.814 102.148 206.184 102.047C207.007 101.821 207.63 101.408 208.052 100.807C208.461 100.165 208.614 99.4388 208.513 98.6278C208.397 97.6443 208.141 96.1916 207.745 94.2697C207.519 93.3604 207.357 92.6324 207.257 92.0858C207.215 91.8327 207.109 91.4643 206.942 90.9806C206.354 89.2876 205.487 87.8258 204.339 86.5954C203.177 85.3246 201.951 84.7777 200.66 84.9546C199.74 85.0302 199.067 85.1041 198.642 85.1765L204.887 102.203Z" fill="#FF3737"/>
</svg>
