<svg width="132" height="27" viewBox="0 0 132 27" fill="none" xmlns="http://www.w3.org/2000/svg">
<path d="M4.04127 26C2.91327 26 2.04927 25.712 1.44927 25.136C0.873266 24.536 0.585266 23.684 0.585266 22.58V4.03999C0.585266 2.93599 0.873266 2.09599 1.44927 1.51999C2.04927 0.919991 2.91327 0.61999 4.04127 0.61999H12.8253C14.6493 0.61999 16.1973 0.89599 17.4693 1.44799C18.7653 1.97599 19.7493 2.73199 20.4213 3.71599C21.0933 4.69999 21.4293 5.85199 21.4293 7.17199C21.4293 8.65999 20.9973 9.93199 20.1333 10.988C19.2933 12.044 18.1413 12.764 16.6773 13.148V12.572C18.4053 12.884 19.7373 13.58 20.6733 14.66C21.6333 15.74 22.1133 17.12 22.1133 18.8C22.1133 21.032 21.3093 22.796 19.7013 24.092C18.1173 25.364 15.9453 26 13.1853 26H4.04127ZM6.92127 21.14H12.2853C13.5093 21.14 14.3973 20.912 14.9493 20.456C15.5253 19.976 15.8133 19.268 15.8133 18.332C15.8133 17.396 15.5253 16.7 14.9493 16.244C14.3973 15.788 13.5093 15.56 12.2853 15.56H6.92127V21.14ZM6.92127 10.7H11.6373C12.8373 10.7 13.7133 10.484 14.2653 10.052C14.8413 9.61999 15.1293 8.95999 15.1293 8.07199C15.1293 7.18399 14.8413 6.53599 14.2653 6.12799C13.7133 5.69599 12.8373 5.47999 11.6373 5.47999H6.92127V10.7Z" fill="#FF3737"/>
<path d="M28.9226 26.324C27.9626 26.324 27.2186 26.06 26.6906 25.532C26.1866 25.004 25.9346 24.26 25.9346 23.3V3.31999C25.9346 2.33599 26.2106 1.59199 26.7626 1.08799C27.3146 0.55999 28.0946 0.29599 29.1026 0.29599C29.9426 0.29599 30.6026 0.46399 31.0826 0.79999C31.5866 1.11199 32.0426 1.63999 32.4506 2.38399L40.1906 16.28H38.9306L46.6346 2.38399C47.0666 1.63999 47.5226 1.11199 48.0026 0.79999C48.5066 0.46399 49.1786 0.29599 50.0186 0.29599C50.9786 0.29599 51.7106 0.55999 52.2146 1.08799C52.7426 1.59199 53.0066 2.33599 53.0066 3.31999V23.3C53.0066 24.26 52.7546 25.004 52.2506 25.532C51.7466 26.06 51.0026 26.324 50.0186 26.324C49.0586 26.324 48.3146 26.06 47.7866 25.532C47.2826 25.004 47.0306 24.26 47.0306 23.3V10.916H47.7866L41.9906 20.996C41.6546 21.524 41.2946 21.92 40.9106 22.184C40.5506 22.448 40.0586 22.58 39.4346 22.58C38.8346 22.58 38.3426 22.448 37.9586 22.184C37.5746 21.92 37.2266 21.524 36.9146 20.996L31.0826 10.88H31.9106V23.3C31.9106 24.26 31.6586 25.004 31.1546 25.532C30.6506 26.06 29.9066 26.324 28.9226 26.324Z" fill="#FF3737"/>
<path d="M67.219 26.396C65.059 26.396 63.187 26.024 61.603 25.28C60.043 24.512 58.843 23.432 58.003 22.04C57.163 20.648 56.743 19.004 56.743 17.108C56.743 15.284 57.139 13.688 57.931 12.32C58.747 10.928 59.851 9.84799 61.243 9.07999C62.659 8.28799 64.267 7.89199 66.067 7.89199C67.387 7.89199 68.587 8.10799 69.667 8.53999C70.747 8.94799 71.671 9.55999 72.439 10.376C73.207 11.168 73.783 12.128 74.167 13.256C74.575 14.384 74.779 15.644 74.779 17.036C74.779 17.516 74.647 17.876 74.383 18.116C74.119 18.332 73.699 18.44 73.123 18.44H62.107V15.416H70.099L69.523 15.884C69.523 14.996 69.403 14.276 69.163 13.724C68.923 13.172 68.563 12.752 68.083 12.464C67.627 12.176 67.051 12.032 66.355 12.032C65.611 12.032 64.963 12.212 64.411 12.572C63.883 12.908 63.475 13.412 63.187 14.084C62.899 14.756 62.755 15.596 62.755 16.604V16.928C62.755 18.632 63.127 19.856 63.871 20.6C64.639 21.32 65.815 21.68 67.399 21.68C67.927 21.68 68.527 21.62 69.199 21.5C69.895 21.356 70.555 21.164 71.179 20.924C71.803 20.684 72.343 20.648 72.799 20.816C73.255 20.96 73.603 21.224 73.843 21.608C74.107 21.968 74.251 22.388 74.275 22.868C74.299 23.324 74.191 23.78 73.951 24.236C73.711 24.668 73.315 25.004 72.763 25.244C71.923 25.628 71.023 25.916 70.063 26.108C69.127 26.3 68.179 26.396 67.219 26.396Z" fill="#FF3737"/>
<path d="M87.2437 26.396C85.2517 26.396 83.5117 26.024 82.0237 25.28C80.5597 24.536 79.4197 23.468 78.6037 22.076C77.7877 20.66 77.3797 19.004 77.3797 17.108C77.3797 15.668 77.6077 14.384 78.0637 13.256C78.5197 12.104 79.1797 11.132 80.0437 10.34C80.9317 9.54799 81.9757 8.94799 83.1757 8.53999C84.3997 8.10799 85.7557 7.89199 87.2437 7.89199C87.9397 7.89199 88.6717 7.96399 89.4397 8.10799C90.2077 8.22799 90.9997 8.46799 91.8157 8.82799C92.3917 9.04399 92.7877 9.37999 93.0037 9.83599C93.2437 10.268 93.3397 10.736 93.2917 11.24C93.2677 11.744 93.1237 12.2 92.8597 12.608C92.6197 13.016 92.2717 13.292 91.8157 13.436C91.3837 13.58 90.8917 13.52 90.3397 13.256C89.9557 13.064 89.5477 12.932 89.1157 12.86C88.7077 12.764 88.3117 12.716 87.9277 12.716C87.2797 12.716 86.7037 12.812 86.1997 13.004C85.7197 13.196 85.3117 13.484 84.9757 13.868C84.6397 14.228 84.3757 14.684 84.1837 15.236C84.0157 15.788 83.9317 16.412 83.9317 17.108C83.9317 18.5 84.2797 19.592 84.9757 20.384C85.6717 21.176 86.6557 21.572 87.9277 21.572C88.3117 21.572 88.7077 21.536 89.1157 21.464C89.5237 21.368 89.9317 21.224 90.3397 21.032C90.8917 20.768 91.3837 20.72 91.8157 20.888C92.2477 21.032 92.5957 21.308 92.8597 21.716C93.1237 22.124 93.2677 22.58 93.2917 23.084C93.3157 23.564 93.2077 24.032 92.9677 24.488C92.7277 24.92 92.3197 25.244 91.7437 25.46C90.9517 25.82 90.1717 26.06 89.4037 26.18C88.6597 26.324 87.9397 26.396 87.2437 26.396Z" fill="#FF3737"/>
<path d="M103.226 26.324C102.194 26.324 101.402 26.048 100.85 25.496C100.298 24.944 100.022 24.14 100.022 23.084V13.292H96.71C94.934 13.292 94.0461 12.452 94.0461 10.772C94.0461 9.97999 94.274 9.36799 94.73 8.93599C95.21 8.50399 95.87 8.28799 96.71 8.28799H109.742C111.518 8.28799 112.406 9.11599 112.406 10.772C112.406 11.588 112.178 12.212 111.722 12.644C111.266 13.076 110.606 13.292 109.742 13.292H106.43V23.084C106.43 24.14 106.154 24.944 105.602 25.496C105.074 26.048 104.282 26.324 103.226 26.324Z" fill="#FF3737"/>
<path d="M123.926 26.396C121.766 26.396 119.894 26.024 118.31 25.28C116.75 24.512 115.55 23.432 114.71 22.04C113.87 20.648 113.45 19.004 113.45 17.108C113.45 15.284 113.846 13.688 114.638 12.32C115.454 10.928 116.558 9.84799 117.95 9.07999C119.366 8.28799 120.974 7.89199 122.774 7.89199C124.094 7.89199 125.294 8.10799 126.374 8.53999C127.454 8.94799 128.378 9.55999 129.146 10.376C129.914 11.168 130.49 12.128 130.874 13.256C131.282 14.384 131.486 15.644 131.486 17.036C131.486 17.516 131.354 17.876 131.09 18.116C130.826 18.332 130.406 18.44 129.83 18.44H118.814V15.416H126.806L126.23 15.884C126.23 14.996 126.11 14.276 125.87 13.724C125.63 13.172 125.27 12.752 124.79 12.464C124.334 12.176 123.758 12.032 123.062 12.032C122.318 12.032 121.67 12.212 121.118 12.572C120.59 12.908 120.182 13.412 119.894 14.084C119.606 14.756 119.462 15.596 119.462 16.604V16.928C119.462 18.632 119.834 19.856 120.578 20.6C121.346 21.32 122.522 21.68 124.106 21.68C124.634 21.68 125.234 21.62 125.906 21.5C126.602 21.356 127.262 21.164 127.886 20.924C128.51 20.684 129.05 20.648 129.506 20.816C129.962 20.96 130.31 21.224 130.55 21.608C130.814 21.968 130.958 22.388 130.982 22.868C131.006 23.324 130.898 23.78 130.658 24.236C130.418 24.668 130.022 25.004 129.47 25.244C128.63 25.628 127.73 25.916 126.77 26.108C125.834 26.3 124.886 26.396 123.926 26.396Z" fill="#FF3737"/>
</svg>
