<svg width="350" height="198" viewBox="0 0 350 198" fill="none" xmlns="http://www.w3.org/2000/svg">
<path d="M139.926 124.258C137.368 126.753 134.626 129.041 131.734 131.112C115.036 143.073 93.3442 147.823 73.2478 143.616C60.6154 140.972 46.7139 134.743 40.2735 122.786C33.2063 109.667 37.0102 93.9722 43.1676 81.3442C50.882 65.5234 61.3889 50.7915 72.1519 36.9677C73.0888 35.7643 72.6312 34.3451 71.7249 33.5828C70.8827 32.8745 69.6532 32.7336 68.7952 33.8604C58.3114 47.6284 48.3032 62.2091 40.4677 77.7021C33.9208 90.6469 29.6013 106.181 34.962 120.36C40.0203 133.744 53.005 141.649 66.0338 145.584C78.2968 149.287 91.5587 149.43 103.998 146.546C118.138 143.269 131.101 135.974 141.136 125.378C141.871 124.601 140.679 123.524 139.926 124.258Z" fill="#FF3737"/>
<path d="M139.926 124.258C137.368 126.753 134.626 129.041 131.734 131.112C115.036 143.073 93.3442 147.823 73.2478 143.616C60.6154 140.972 46.7139 134.743 40.2735 122.786C33.2063 109.667 37.0102 93.9722 43.1676 81.3442C50.882 65.5234 61.3889 50.7915 72.1519 36.9677C73.0888 35.7643 72.6312 34.3451 71.7249 33.5828C70.8827 32.8745 69.6532 32.7336 68.7952 33.8604C58.3114 47.6284 48.3032 62.2091 40.4677 77.7021C33.9208 90.6469 29.6013 106.181 34.962 120.36C40.0203 133.744 53.005 141.649 66.0338 145.584C78.2968 149.287 91.5587 149.43 103.998 146.546C118.138 143.269 131.101 135.974 141.136 125.378C141.871 124.601 140.679 123.524 139.926 124.258Z" fill="#FF3737"/>
<path d="M139.466 125.515C120.514 135.456 98.8687 136.803 78.4247 130.947C69.0994 128.276 56.83 123.8 53.4687 113.529C49.8657 102.522 59.0329 90.2223 64.762 81.6227C72.6196 69.8272 81.9262 59.0804 92.2996 49.4822C93.9553 47.9511 91.3657 45.5664 89.7267 47.101C89.524 47.2908 89.3217 47.481 89.1199 47.6717C79.1476 57.0922 70.2638 67.583 62.6186 79.015C56.547 88.0938 47.8986 100.009 49.9453 111.677C51.8032 122.263 62.0753 128.122 71.2757 131.377C81.864 135.124 93.175 136.985 104.397 136.695C113.689 136.455 123.102 134.706 131.734 131.112C134.68 129.885 137.535 128.444 140.263 126.774C141.091 126.267 140.296 125.079 139.466 125.515Z" fill="#FF3737"/>
<path d="M139.466 125.515C120.514 135.456 98.8687 136.803 78.4247 130.947C69.0994 128.276 56.83 123.8 53.4687 113.529C49.8657 102.522 59.0329 90.2223 64.762 81.6227C72.6196 69.8272 81.9262 59.0804 92.2996 49.4822C93.9553 47.9511 91.3657 45.5664 89.7267 47.101C89.524 47.2908 89.3217 47.481 89.1199 47.6717C79.1476 57.0922 70.2638 67.583 62.6186 79.015C56.547 88.0938 47.8986 100.009 49.9453 111.677C51.8032 122.263 62.0753 128.122 71.2757 131.377C81.864 135.124 93.175 136.985 104.397 136.695C113.689 136.455 123.102 134.706 131.734 131.112C134.68 129.885 137.535 128.444 140.263 126.774C141.091 126.267 140.296 125.079 139.466 125.515Z" fill="#FF3737"/>
<path d="M71.5808 33.4512C65.525 28.8639 59.6373 24.0632 54.131 18.8223C53.2543 17.9879 52.3873 17.1423 51.5308 16.2847C51.301 17.3469 51.0719 18.4095 50.8424 19.4727C51.9394 19.2598 53.0356 19.043 54.131 18.8223C70.7848 15.4675 87.244 11.2207 103.491 6.23323C104.29 5.98795 105.089 5.74088 105.887 5.49204C105.023 4.89303 104.159 4.29503 103.294 3.6967C103.362 4.54207 103.428 5.38758 103.491 6.23323C104.704 22.4109 105.092 38.6377 104.669 54.8552C104.639 56.0163 104.605 57.1774 104.566 58.3384C105.526 57.7082 106.486 57.0774 107.445 56.4462C106.506 55.9333 105.581 55.4031 104.669 54.8552C100.249 52.1979 96.1468 49.1256 92.3151 45.6126C90.7369 44.1655 88.6071 46.0277 89.1199 47.6717C89.2126 47.9689 89.3916 48.2589 89.6758 48.521C94.5407 53.0076 99.857 56.8264 105.642 60.007C107.061 60.787 108.468 59.5554 108.52 58.1142C109.177 39.8824 108.748 21.6528 107.258 3.47155C107.153 2.17842 105.911 1.28598 104.666 1.67656C86.5861 7.34695 68.2328 12.0217 49.6934 15.8806C48.2617 16.1787 48.0658 18.1816 49.0049 19.0686C55.5473 25.2432 62.5691 30.7543 70.3654 35.2182C71.3425 35.7774 72.4321 34.3671 71.7249 33.5828C71.6832 33.5366 71.6353 33.4925 71.5808 33.4512Z" fill="#FF3737"/>
<path d="M71.5808 33.4512C65.525 28.8639 59.6373 24.0632 54.131 18.8223C53.2543 17.9879 52.3873 17.1423 51.5308 16.2847C51.301 17.3469 51.0719 18.4095 50.8424 19.4727C51.9394 19.2598 53.0356 19.043 54.131 18.8223C70.7848 15.4675 87.244 11.2207 103.491 6.23323C104.29 5.98795 105.089 5.74088 105.887 5.49204C105.023 4.89303 104.159 4.29503 103.294 3.6967C103.362 4.54207 103.428 5.38758 103.491 6.23323C104.704 22.4109 105.092 38.6377 104.669 54.8552C104.639 56.0163 104.605 57.1774 104.566 58.3384C105.526 57.7082 106.486 57.0774 107.445 56.4462C106.506 55.9333 105.581 55.4031 104.669 54.8552C100.249 52.1979 96.1468 49.1256 92.3151 45.6126C90.7369 44.1655 88.6071 46.0277 89.1199 47.6717C89.2126 47.9689 89.3916 48.2589 89.6758 48.521C94.5407 53.0076 99.857 56.8264 105.642 60.007C107.061 60.787 108.468 59.5554 108.52 58.1142C109.177 39.8824 108.748 21.6528 107.258 3.47155C107.153 2.17842 105.911 1.28598 104.666 1.67656C86.5861 7.34695 68.2328 12.0217 49.6934 15.8806C48.2617 16.1787 48.0658 18.1816 49.0049 19.0686C55.5473 25.2432 62.5691 30.7543 70.3654 35.2182C71.3425 35.7774 72.4321 34.3671 71.7249 33.5828C71.6832 33.5366 71.6353 33.4925 71.5808 33.4512Z" fill="#FF3737"/>
<path d="M73.2478 143.616C93.3442 147.823 115.036 143.073 131.734 131.112C123.102 134.706 113.689 136.455 104.397 136.695C93.175 136.985 81.864 135.124 71.2757 131.377C62.0753 128.122 51.8032 122.263 49.9453 111.677C47.8986 100.009 56.547 88.0938 62.6186 79.015C70.2638 67.583 79.1476 57.0922 89.1199 47.6717C88.6071 46.0277 90.7369 44.1655 92.3151 45.6126C96.1468 49.1256 100.249 52.1979 104.669 54.8552C105.092 38.6377 104.704 22.4109 103.491 6.23323C87.244 11.2207 70.7848 15.4675 54.131 18.8223C59.6373 24.0632 65.525 28.8639 71.5808 33.4512C71.6353 33.4925 71.6832 33.5366 71.7249 33.5828C72.6312 34.3451 73.0888 35.7643 72.1519 36.9677C61.3889 50.7915 50.882 65.5234 43.1676 81.3442C37.0102 93.9722 33.2063 109.667 40.2735 122.786C46.7139 134.743 60.6154 140.972 73.2478 143.616Z" fill="#FF3737"/>
<path d="M73.2478 143.616C93.3442 147.823 115.036 143.073 131.734 131.112C123.102 134.706 113.689 136.455 104.397 136.695C93.175 136.985 81.864 135.124 71.2757 131.377C62.0753 128.122 51.8032 122.263 49.9453 111.677C47.8986 100.009 56.547 88.0938 62.6186 79.015C70.2638 67.583 79.1476 57.0922 89.1199 47.6717C88.6071 46.0277 90.7369 44.1655 92.3151 45.6126C96.1468 49.1256 100.249 52.1979 104.669 54.8552C105.092 38.6377 104.704 22.4109 103.491 6.23323C87.244 11.2207 70.7848 15.4675 54.131 18.8223C59.6373 24.0632 65.525 28.8639 71.5808 33.4512C71.6353 33.4925 71.6832 33.5366 71.7249 33.5828C72.6312 34.3451 73.0888 35.7643 72.1519 36.9677C61.3889 50.7915 50.882 65.5234 43.1676 81.3442C37.0102 93.9722 33.2063 109.667 40.2735 122.786C46.7139 134.743 60.6154 140.972 73.2478 143.616Z" fill="#FF3737"/>
<path d="M141.314 102.9C140.396 102.531 139.683 101.889 139.177 100.974C138.67 100.059 138.353 98.963 138.225 97.6866C137.965 95.4478 138.228 92.6294 139.016 89.2312C139.549 86.8771 140.302 84.216 141.275 81.248L142.292 78.5154L143.381 75.7522C143.697 74.8516 144.103 73.7702 144.601 72.508C145.407 70.4612 146.205 68.6873 146.993 67.1865C147.775 65.6038 148.753 64.1201 149.929 62.7356C151.025 61.5558 152.197 60.8811 153.446 60.7115C154.166 60.6848 154.832 60.7945 155.445 61.0407C157.248 61.7656 158.394 63.0564 158.884 64.9132C159.409 66.9816 159.469 69.0802 159.064 71.2093C158.667 73.8161 158.072 76.2248 157.28 78.4354C156.462 80.9122 155.629 83.2251 154.782 85.3743L153.633 88.291C153.404 88.8709 152.889 89.9283 152.087 91.4633C151.454 92.6708 150.962 93.718 150.613 94.605L150.532 94.8096C149.951 95.6828 149.406 96.7675 148.895 98.0638C148.518 99.019 147.925 99.9262 147.113 100.785C146.301 101.645 145.38 102.282 144.35 102.698C143.279 103.215 142.267 103.283 141.314 102.9ZM142.525 100.127C143.206 100.4 144.033 100.002 145.006 98.9308C145.858 97.9692 146.685 96.7209 147.487 95.186C148.336 93.6306 149.232 91.8568 150.175 89.8647C150.593 89.0051 151.077 87.876 151.628 86.4773L153.432 81.7492C154.09 79.8797 154.793 77.495 155.542 74.595C156.197 72.1317 156.507 69.8457 156.471 67.7367C156.467 66.7471 156.304 65.911 155.982 65.2282C155.66 64.5455 155.21 64.0878 154.631 63.8553C153.781 63.5134 152.889 63.9256 151.957 65.0919C150.895 66.2854 149.95 67.6837 149.121 69.2869C148.205 71.0128 147.407 72.6877 146.727 74.3115L146.011 75.9796C145.789 76.4435 145.516 77.0848 145.194 77.9035L145.113 78.1082C144.212 80.3938 143.341 83.3039 142.5 86.8385C141.257 91.5945 140.786 95.1396 141.088 97.4739C141.298 98.9415 141.777 99.8257 142.525 100.127ZM154.366 106.902C154.636 104.917 155.403 102.32 156.667 99.1136L158.563 94.6005C159.169 93.2633 159.801 91.7589 160.46 90.0874C160.444 89.5277 160.51 89.0603 160.658 88.685L160.719 88.5315C161.314 88.0201 162.062 86.6216 162.963 84.336L163.942 82.0027C164.271 81.2659 164.618 80.437 164.981 79.5159C165.774 77.5032 166.263 75.8622 166.448 74.5929C166.738 74.1564 167.069 73.8154 167.442 73.57C167.828 73.2905 168.191 73.2191 168.531 73.3559L170.777 74.2586C171.729 74.6416 172.475 75.1984 173.015 75.9291C173.568 76.6257 173.877 77.4415 173.942 78.3765C174.071 80.0487 173.76 81.84 173.007 83.7504C172.469 85.1149 172.029 86.1827 171.685 86.9536C171.228 87.9155 170.701 88.7512 170.106 89.4605C169.83 89.8629 169.529 90.1766 169.204 90.4016C168.926 90.6061 168.536 90.8446 168.035 91.1172C167.33 91.5057 166.332 91.7369 165.042 91.8109C164.506 91.8719 163.84 91.8612 163.045 91.7786L160.887 97.2538L159.699 100.57L159.176 102.197C158.559 104.162 157.989 105.81 157.464 107.14C157.303 107.55 156.999 107.822 156.551 107.959C156.09 108.129 155.638 108.125 155.196 107.947L154.366 106.902ZM163.923 89.7012C166.051 90.2011 168.19 87.722 170.341 82.2638C170.731 81.2745 170.983 80.4865 171.096 79.8996C171.155 79.4492 171.147 79.0704 171.071 78.7632C171.008 78.422 170.84 78.0976 170.567 77.7903C170.274 77.4352 169.906 77.1687 169.463 76.9909C169.477 76.9568 169.297 76.8645 168.922 76.714L167.773 79.6308C166.98 81.6435 166.291 83.4412 165.707 85.0241C165.008 86.7981 164.568 87.9647 164.387 88.5242L163.963 89.5988L163.923 89.7012ZM168.035 112.457C168.054 112.307 168.081 112.041 168.113 111.658C168.179 111.29 168.277 110.993 168.405 110.768C170.032 106.838 171.297 103.928 172.199 102.039C172.516 101.336 172.949 100.285 173.501 98.8866C174.495 96.3622 175.579 93.2612 176.753 89.5836C178.269 85.135 179.471 81.7849 180.358 79.5334C180.56 79.0217 180.946 78.6433 181.515 78.398C182.085 78.1528 182.659 78.1464 183.237 78.3789C185.176 79.1585 186.8 79.9891 188.108 80.8705C188.734 81.2805 189.082 81.6971 189.152 82.1203C189.235 82.5094 189.095 83.0655 188.731 83.7887C188.134 83.9042 187.58 83.8594 187.07 83.6542C186.9 83.5859 186.658 83.4492 186.345 83.2442C186.065 83.0529 185.276 82.6564 183.976 82.0547L183.874 82.0137C183.398 81.8222 183.059 81.9823 182.857 82.494C180.738 87.3721 179.543 90.1523 179.275 90.8345C177.945 94.4097 176.957 97.115 176.313 98.9503C176.219 99.1891 176.122 99.4859 176.021 99.8408C175.921 100.196 175.807 100.486 175.678 100.711C174.958 102.239 174.255 103.873 173.569 105.613C172.454 108.444 171.725 110.443 171.383 111.61C171.054 112.347 170.733 112.811 170.421 113.001C170.096 113.226 169.661 113.229 169.117 113.011C168.981 112.956 168.62 112.771 168.035 112.457ZM189.668 121.214C188.886 120.899 188.354 120.547 188.074 120.158C187.794 119.769 187.782 119.25 188.037 118.602C188.441 117.578 188.956 115.77 189.584 113.177L189.803 112.021L185.054 109.222C184.54 109.924 183.626 111.394 182.311 113.632C181.448 115.221 180.688 116.2 180.03 116.568C179.671 116.78 179.271 116.796 178.828 116.618C178.42 116.454 178.093 116.184 177.847 115.809C177.614 115.399 177.572 115.007 177.72 114.632L177.923 114.417L178.054 114.233C183.754 106.368 188.863 98.4042 193.381 90.3408C193.434 90.2043 193.539 89.9894 193.694 89.6961C193.862 89.3686 194.084 88.9047 194.36 88.3044C194.96 87.0832 195.459 86.1179 195.856 85.4084C196.288 84.7126 196.714 84.2318 197.134 83.966L198.869 84.6635C199.345 84.855 199.707 85.1385 199.953 85.5141C200.212 85.8555 200.261 86.231 200.1 86.6403C199.078 89.2329 197.917 93.2314 196.615 98.6356C195.225 104.163 194.113 107.984 193.28 110.099C193.199 110.303 193.076 110.866 192.91 111.788C192.771 112.641 192.654 113.186 192.56 113.425C192.466 113.664 192.233 114.756 191.86 116.701C191.521 118.461 191.258 119.58 191.069 120.058L191.049 120.109C190.754 120.86 190.293 121.228 189.668 121.214ZM190.172 110.035C190.271 109.482 190.469 108.83 190.765 108.08C191.975 105.01 193.248 100.977 194.586 95.9825L196.173 90.4557C191.551 97.8842 188.161 103.536 186.004 107.411C186.38 107.957 187.769 108.832 190.172 110.035ZM204.027 126.453C202.871 125.988 203.401 122.941 205.619 117.312L206.82 114.416L207.798 112.083L207.859 111.929L208.061 111.418C208.202 111.158 208.347 110.841 208.495 110.466C208.522 110.398 208.504 110.292 208.442 110.148C208.381 110.005 208.363 109.899 208.39 109.831L208.41 109.78C208.213 109.78 207.894 109.691 207.451 109.513C207.009 109.335 206.492 109.048 205.899 108.652C205.708 108.536 205.198 108.231 204.367 107.739L202.048 113.624C201.699 114.511 201.198 115.93 200.548 117.881C199.91 119.799 199.41 121.218 199.047 122.139C198.846 122.651 198.535 123.039 198.115 123.305C197.695 123.571 197.264 123.615 196.821 123.437C196.175 123.177 195.964 122.362 196.19 120.99C196.428 119.584 196.958 117.841 197.778 115.76L199.513 111.656C200.004 110.51 200.505 109.289 201.016 107.993L201.359 107.123L201.641 106.406C201.856 105.86 201.98 105.495 202.013 105.311L202.114 105.055L203.437 102.149C203.948 100.853 204.656 98.9048 205.562 96.3052C206.469 93.7057 207.177 91.7578 207.688 90.4614C207.849 90.0521 208.126 89.7486 208.52 89.551C208.913 89.3534 209.313 89.3367 209.722 89.5008C210.81 89.9385 210.951 91.1807 210.145 93.2275L207.542 99.5316C206.721 101.415 205.847 103.533 204.92 105.887C205.363 106.263 206.248 106.717 207.574 107.251L209.463 108.01C209.611 107.832 209.726 107.641 209.807 107.437C210.452 105.799 211.304 103.336 212.364 100.047C213.309 96.9496 214.151 94.4626 214.89 92.5864C215.038 92.2111 215.295 91.9588 215.661 91.8295C216.075 91.6796 216.486 91.6868 216.894 91.8509C217.132 91.9467 217.439 92.1687 217.814 92.5171L218.193 92.9064C216.284 97.7505 213.906 104.283 211.061 112.505L206.418 125.636C206.23 126.113 205.895 126.413 205.413 126.536C204.966 126.672 204.504 126.644 204.027 126.453ZM213.613 130.188C213.225 129.874 213.101 129.488 213.242 129.031L213.544 128.263C214.041 126.803 214.819 124.627 215.881 121.734C216.726 119.189 217.394 117.244 217.884 115.9C218.602 113.778 219.713 110.609 221.217 106.393C221.465 105.662 221.821 104.659 222.284 103.384C222.748 102.108 223.107 101.146 223.362 100.498C223.476 100.109 223.668 99.573 223.936 98.8908C224.246 98.1062 224.508 97.5399 224.724 97.192C225.277 96.1892 226.05 95.9271 227.044 96.4056C227.996 96.7886 228.292 97.5395 227.93 98.6585L227.688 99.2726L222.555 112.147L220.156 118.236L218.946 121.306C218.757 121.784 218.57 122.361 218.382 123.036C218.208 123.677 218.085 124.141 218.011 124.428C218.571 123.507 219.24 122.61 220.017 121.737C220.842 120.844 221.353 120.298 221.549 120.101C222.543 119.078 223.314 118.222 223.861 117.533C225.713 115.234 228.038 112.435 230.836 109.134C231.418 108.458 232.1 107.626 232.884 106.637C234.945 104.107 236.314 102.484 236.99 101.768C237.619 101.072 238.28 100.745 238.973 100.787C239.32 100.807 239.646 100.879 239.952 101.002C240.428 101.194 240.861 101.546 241.25 102.058L240.283 104.514C239.274 107.073 238.284 109.737 237.31 112.507C237.116 113.101 236.79 113.977 236.333 115.137L235.748 116.621C235.627 116.928 235.449 117.331 235.213 117.829C235.011 118.34 234.793 118.944 234.558 119.64L229.267 133.518C229.065 134.029 228.725 134.544 228.244 135.063C228.035 135.295 227.777 135.448 227.472 135.523C227.18 135.563 226.898 135.529 226.626 135.42C225.673 135.037 225.372 134.402 225.721 133.515C226.125 132.491 226.565 131.523 227.044 130.608C227.623 129.34 228.047 128.364 228.316 127.682C230.909 120.9 232.814 115.817 234.029 112.433C234.231 111.921 234.492 111.058 234.813 109.843L235.386 107.94C234.945 108.158 234.688 108.311 234.613 108.4L232.809 110.579C231.565 112.134 230.623 113.276 229.98 114.006L220.661 124.604L215.884 129.975C215.33 130.582 214.781 130.776 214.236 130.557C214.134 130.516 213.926 130.393 213.613 130.188ZM237.196 140.618C236.141 140.194 235.385 139.613 234.927 138.875C234.468 138.138 234.288 137.196 234.385 136.049C234.404 135.701 234.481 135.357 234.615 135.016C234.817 134.504 235.097 134.142 235.456 133.931C235.829 133.686 236.212 133.662 236.607 133.86C236.913 133.984 237.156 134.219 237.334 134.567C237.512 134.916 237.568 135.274 237.501 135.642C237.509 135.922 237.427 136.581 237.255 137.618C237.411 137.721 237.677 137.847 238.051 137.998C239.446 138.558 240.681 138.324 241.757 137.294C242.359 136.667 242.909 135.92 243.408 135.053C243.941 134.201 244.339 133.392 244.6 132.628C245.374 130.766 245.816 128.592 245.928 126.108C245.985 125.064 245.68 124.388 245.013 124.08C243.815 123.52 243.395 122.837 243.751 122.032C243.946 121.438 244.209 121.07 244.541 120.927C244.921 120.763 245.42 120.747 246.039 120.877C246.406 120.945 246.783 120.939 247.17 120.857C247.557 120.776 247.879 120.609 248.136 120.357C248.941 119.613 249.509 118.972 249.839 118.433C250.184 117.86 250.688 116.68 251.353 114.892C251.561 114.265 251.69 113.487 251.741 112.559C251.791 111.63 251.717 110.869 251.517 110.276C251.364 109.463 250.982 108.934 250.369 108.688C249.893 108.496 249.482 108.489 249.136 108.666C248.838 108.823 248.5 109.082 248.121 109.444C247.789 109.785 247.502 110.064 247.258 110.282C246.777 110.603 246.384 110.701 246.078 110.578C245.975 110.537 245.836 110.442 245.659 110.291C245.345 110.086 245.168 109.837 245.126 109.543C245.097 109.216 245.177 108.813 245.365 108.336C245.809 107.21 246.634 106.416 247.841 105.952C249.062 105.455 250.268 105.446 251.458 105.925C253.465 106.732 254.488 108.387 254.526 110.892C254.699 111.752 254.703 112.742 254.538 113.861C254.407 114.994 254.17 115.946 253.826 116.717C252.858 118.975 251.771 120.731 250.568 121.986C249.66 122.688 248.813 123.138 248.026 123.335C248.555 124.694 248.724 126.264 248.535 128.045C248.359 129.792 247.908 131.587 247.182 133.429C245.985 136.465 244.541 138.631 242.848 139.926C241.189 141.235 239.305 141.466 237.196 140.618ZM254.554 147.893C253.67 147.537 252.967 146.919 252.448 146.038C251.914 145.191 251.598 144.195 251.498 143.048C251.331 140.57 251.613 138.056 252.342 135.504C252.95 133.061 253.678 130.765 254.525 128.616C254.686 128.206 254.837 127.872 254.979 127.613L255.342 126.692C255.409 126.521 255.426 126.429 255.392 126.415L255.755 125.494L257.217 121.933C257.681 120.855 258.503 119.17 259.682 116.878C260.498 115.309 261.514 113.88 262.731 112.591C263.238 112.004 263.746 111.616 264.255 111.425C264.777 111.2 265.276 111.183 265.752 111.375C267.113 111.922 268.237 112.67 269.124 113.62C270.024 114.535 270.674 115.586 271.073 116.774C271.417 117.901 271.579 119.191 271.558 120.644C271.55 122.064 271.373 123.514 271.026 124.995C270.665 126.51 270.169 128.069 269.537 129.672L269.376 130.081C268.959 131.139 268.6 132.101 268.298 132.967L267.2 135.905C263.328 145.729 259.113 149.725 254.554 147.893ZM255.197 145.661C255.809 145.908 256.465 145.894 257.163 145.622C257.875 145.315 258.535 144.79 259.144 144.047C260.476 142.567 261.606 140.848 262.535 138.89C263.391 137.219 264.068 135.752 264.565 134.49C265.17 132.955 265.844 130.894 266.587 128.308C267.418 125.599 268.089 123.597 268.6 122.3L268.963 121.379C269.406 120.056 269.407 118.752 268.967 117.469C268.561 116.199 267.779 115.332 266.623 114.867C265.466 114.401 264.438 114.759 263.54 115.939C262.783 116.86 262.075 118.156 261.417 119.827C261.161 120.476 260.963 121.028 260.822 121.485L260.278 122.867L259.248 125.18C258.898 125.869 258.555 126.64 258.219 127.493C257.493 129.335 256.825 131.18 256.214 133.029C255.342 135.643 254.701 138.27 254.291 140.911C253.84 143.654 254.142 145.237 255.197 145.661ZM268.634 153.02C267.885 152.719 267.554 152.21 267.639 151.493C267.664 151.029 267.825 150.422 268.121 149.672C268.699 148.205 269.479 146.424 270.462 144.33C271.439 142.351 272.243 140.56 272.875 138.957C273.587 137.149 274.707 134.457 276.234 130.882L279.522 122.839C279.643 122.532 279.774 122.05 279.914 121.395L280.265 120.055L280.365 119.799C280.675 119.014 281.022 118.482 281.408 118.203C281.794 117.923 282.31 117.913 282.957 118.173C283.841 118.529 284.71 119.174 285.563 120.11C286.416 121.046 286.926 122.002 287.093 122.978C287.435 125.012 287.121 127.257 286.153 129.713C285.427 131.555 284.663 133.046 283.859 134.185C283.069 135.29 282.091 136.221 280.926 136.977C281.495 138.234 281.657 139.623 281.412 141.144C281.215 142.646 280.706 144.437 279.886 146.518C279.066 148.599 277.996 150.263 276.677 151.511C275.175 152.922 273.514 153.638 271.693 153.657C270.606 153.615 269.586 153.403 268.634 153.02ZM277.99 134.078C279.772 134.755 281.47 133.047 283.083 128.953C284.817 124.552 285.027 121.969 283.713 121.204C283.03 121.838 282.117 123.605 280.974 126.505L277.99 134.078ZM270.989 150.943C272.172 151.142 273.278 150.836 274.307 150.025C275.336 149.213 276.119 148.125 276.657 146.761C277.222 145.328 277.634 144.032 277.894 142.872C278.094 141.964 278.183 141.19 278.159 140.548C278.184 139.886 278.103 139.241 277.917 138.613C277.71 137.937 277.355 137.439 276.851 137.117C275.949 139.007 274.866 141.555 273.602 144.762C273.522 144.967 273.232 145.601 272.734 146.666L271.946 148.364C271.919 148.432 271.916 148.49 271.937 148.538L271.896 148.641L270.989 150.943ZM291.779 162.265C290.996 161.951 290.465 161.599 290.185 161.21C289.905 160.82 289.892 160.302 290.148 159.653C290.551 158.63 291.067 156.822 291.694 154.229L291.914 153.072L287.164 150.274C286.651 150.976 285.737 152.446 284.421 154.684C283.558 156.273 282.798 157.252 282.141 157.62C281.782 157.831 281.381 157.848 280.939 157.67C280.531 157.506 280.204 157.236 279.957 156.861C279.725 156.451 279.682 156.059 279.83 155.683L280.033 155.468L280.165 155.284C285.865 147.42 290.974 139.456 295.491 131.393C295.545 131.256 295.649 131.041 295.804 130.748C295.973 130.42 296.195 129.956 296.471 129.356C297.07 128.135 297.569 127.17 297.967 126.46C298.399 125.764 298.825 125.284 299.245 125.018L300.98 125.715C301.456 125.907 301.817 126.19 302.063 126.566C302.323 126.907 302.372 127.283 302.211 127.692C301.189 130.285 300.027 134.283 298.725 139.687C297.335 145.214 296.224 149.035 295.39 151.15C295.31 151.355 295.186 151.918 295.02 152.839C294.881 153.692 294.765 154.238 294.671 154.477C294.576 154.716 294.343 155.808 293.971 157.752C293.632 159.513 293.368 160.632 293.18 161.11L293.16 161.161C292.864 161.911 292.404 162.279 291.779 162.265ZM292.282 151.087C292.382 150.534 292.58 149.882 292.875 149.132C294.085 146.061 295.359 142.029 296.697 137.034L298.283 131.507C293.661 138.936 290.272 144.588 288.114 148.462C288.49 149.009 289.88 149.883 292.282 151.087ZM300.337 164.224L301.072 162.208C301.267 161.614 301.505 160.959 301.788 160.243L302.524 158.524C302.57 158.107 303.787 154.269 306.175 147.01C308.563 139.75 310.119 135.1 310.844 133.06C308.898 132.198 307.72 131.488 307.31 130.928C307.043 130.504 306.977 130.122 307.112 129.781C307.219 129.508 307.483 129.338 307.904 129.27C308.372 129.181 308.794 129.212 309.168 129.363C310.121 129.746 311.25 130.279 312.557 130.963C313.783 131.653 314.906 132.203 315.927 132.614L316.335 132.778L316.743 132.942C317.798 133.366 318.164 133.987 317.841 134.806C317.68 135.215 317.375 135.488 316.927 135.624C316.493 135.726 316.055 135.688 315.613 135.51C315.306 135.387 314.884 135.158 314.346 134.824L313.406 134.209L313.255 134.444L313.103 134.679C311.906 137.715 310.287 142.676 308.244 149.56C306.328 156.022 304.691 160.975 303.333 164.421C303.172 164.83 302.844 165.113 302.349 165.27C301.887 165.44 301.436 165.436 300.993 165.259L300.337 164.224ZM311.365 169.369C310.699 169.062 310.448 168.546 310.615 167.823L315.809 155.092L317.362 151.152L320.346 143.578C321.664 140.235 322.669 137.735 323.362 136.077C323.442 135.872 323.618 135.726 323.89 135.637C324.195 135.562 324.518 135.593 324.858 135.73C325.13 135.839 325.369 136.034 325.574 136.314C325.779 136.594 325.895 136.898 325.924 137.226C326.015 137.894 325.852 138.758 325.435 139.815C325.14 140.566 324.557 141.695 323.687 143.202C323.302 143.878 322.925 144.635 322.555 145.474C322.185 146.313 321.946 146.869 321.839 147.142C321.582 147.592 321.195 148.326 320.676 149.342C320.191 150.372 319.99 150.884 320.071 150.877C320.608 151.014 321.191 151.387 321.818 151.995C322.316 152.432 322.616 152.671 322.718 152.712C324.107 153.587 324.891 154.949 325.068 156.799C325.293 158.628 325.158 160.371 324.662 162.03C324.548 162.418 324.35 162.971 324.068 163.687C323.396 165.393 322.665 166.798 321.874 167.903C320.593 170.155 318.519 171.218 315.652 171.092C315.19 171.065 314.636 170.921 313.989 170.661C313.513 170.47 312.993 170.241 312.428 169.974C311.91 169.687 311.556 169.485 311.365 169.369ZM313.856 167.999C314.19 168.252 314.51 168.44 314.816 168.563C315.497 168.837 316.149 168.882 316.773 168.698C317.411 168.48 317.925 168.074 318.317 167.481C318.796 166.765 319.447 165.663 320.269 164.176C320.633 163.453 320.936 162.883 321.179 162.467C321.294 162.276 321.432 161.976 321.593 161.566C322.158 160.134 322.403 158.711 322.329 157.298C322.269 155.851 321.755 154.854 320.789 154.307C320.128 153.884 319.634 153.586 319.307 153.416L313.856 167.999Z" fill="#FF3737"/>
</svg>
