<svg width="440" height="371" viewBox="0 0 440 371" fill="none" xmlns="http://www.w3.org/2000/svg">
<path fill-rule="evenodd" clip-rule="evenodd" d="M249.972 329.686C292.464 329.686 329.753 299.3 308.811 258.027C287.87 216.755 365.681 218.088 388.538 189.563C416.412 154.776 408.34 7.10892 229.395 97.1337C200.73 111.555 127.112 82.298 102.692 96.8146C73.9484 113.902 33.5072 148.892 73.9484 184.734C93.8689 202.389 22.4491 248.213 53.7296 289.26C84.2515 329.311 105.647 291.131 152.116 299.3C198.585 307.469 218.414 329.686 249.972 329.686Z" fill="#64FCD9"/>
<path d="M200.653 257.884C200.653 257.884 210.437 253.46 214.089 250.381C217.742 247.303 222.283 239.656 222.283 239.656C222.283 239.656 272.163 274.287 304.687 269.347C312.18 268.209 326.782 263.42 327.713 254.983C330.256 231.944 295.077 226.057 302.761 214.374C307.451 207.242 322.023 217.856 322.023 217.856L382.46 246.435C382.46 246.435 361.58 295.915 310.911 297.897C248.581 300.337 200.653 257.884 200.653 257.884Z" fill="white"/>
<path fill-rule="evenodd" clip-rule="evenodd" d="M152.736 64.1105C152.169 63.8964 149.122 60.3104 145.255 59.6578C143.497 59.3612 145.092 61.5125 143.158 61.5319C137.398 61.5895 128.036 60.5491 126.302 61.5319C125.013 62.26 127.852 64.8035 126.302 64.9203C111.682 66.022 89.3767 80.0562 84.5374 86.8649C82.9973 89.0317 95.4531 85.3554 93.4686 86.4267C91.2411 87.629 88.7707 95.5016 87.2937 101.582C86.2712 105.769 85.6273 111.157 85.4001 117.019C85.2107 122.08 85.2865 122.918 86.0439 125.685C86.915 128.779 87.5967 129.69 88.7707 129.253C89.1873 129.107 89.3767 128.561 89.3767 127.542C89.3767 126.741 89.8312 124.338 90.3992 122.189L91.3839 118.33L91.8005 119.932C92.3307 121.789 95.4363 127.542 98.2388 131.729C98.39 131.951 99.0403 131.668 99.6267 130.306C100.161 129.064 99.9442 127.08 100.852 124.954C102.92 120.111 106.98 113.814 111.682 108.774C118.63 101.325 120.935 92.704 127.449 85.7837C139.604 72.8692 154.859 64.9119 152.736 64.1105Z" fill="white"/>
<path fill-rule="evenodd" clip-rule="evenodd" d="M93.6413 88.1838C91.6914 89.6912 88.7971 101.918 88.7474 102.122C87.7249 106.309 86.7392 120.849 87.7467 123.602C88.7543 126.355 91.5756 116.432 91.5756 116.432C91.5756 116.432 95.8398 127.077 99.6078 129.995C99.7687 130.12 95.1291 116.825 93.6413 109.064C91.6773 98.8183 94.751 87.326 93.6413 88.1838Z" fill="#E7EAEE"/>
<path fill-rule="evenodd" clip-rule="evenodd" d="M166.318 302.314C169.953 301.549 176.088 298.887 178.437 297.976C180.786 297.066 187.943 287.35 190.518 276.391C192.374 268.308 193.321 256.802 192.26 254.873C192.104 254.599 191.531 249.367 193.056 251.076C196.446 254.873 200.469 260.834 213.165 250.152C216.623 247.242 221.207 243.488 220 240.168C216.623 230.88 201.987 212.178 199.755 210.761C197.087 209.067 183.603 210.506 163.534 204.812C140.776 198.354 131.299 179.338 122.393 181.813C115.19 183.815 97.9334 196.118 93.6026 203.908C73.1564 240.687 97.9334 266.459 103.576 273.861L109.055 276.136L109.244 280.832L109.509 283.782C110.002 289.425 110.191 289.935 112.842 291.828C119.47 296.67 132.536 301.185 144.352 302.787C149.843 303.515 161.773 303.26 166.318 302.314Z" fill="white"/>
<path fill-rule="evenodd" clip-rule="evenodd" d="M111.209 279.113L111.475 282.062C111.967 287.706 112.156 288.215 114.807 290.109C118.717 292.965 124.868 295.708 131.681 297.806C136.416 299.264 141.472 300.411 146.317 301.068C151.809 301.796 163.738 301.541 168.283 300.595C170.53 300.127 152.052 286.171 141.166 290.109C132.807 293.133 113.104 270.066 121.115 264.039C130.101 257.279 113.634 230.615 113.104 224.826C112.574 219.037 110.486 217.654 110.425 217.857C110.364 218.06 110.364 218.753 110.528 220.422C111.234 227.615 111.209 279.113 111.209 279.113Z" fill="#E7EAEE"/>
<path fill-rule="evenodd" clip-rule="evenodd" d="M109.237 223.174C110.032 223.025 110.802 223.524 110.956 224.288C113.815 238.406 125.905 247.963 147.525 252.961C169.273 257.988 184.086 257.717 191.892 252.351C192.551 251.898 192.059 255.777 191.577 256.075C186.486 259.213 169.177 263.896 148.522 259.664C122.112 254.252 109.712 232.903 108.077 224.827C107.922 224.063 108.441 223.322 109.237 223.174Z" fill="#FF3737"/>
<path fill-rule="evenodd" clip-rule="evenodd" d="M98.2234 197.703C98.9264 197.316 125.157 226.217 161.155 232.759C197.153 239.301 205.868 235.14 207.269 226.217C207.39 225.447 208.138 224.917 208.938 225.033C209.739 225.15 210.291 225.868 210.17 226.638C208.394 237.947 191.737 240.637 160.662 235.539C129.976 230.505 108.938 218.545 97.6787 199.627C97.2765 198.951 97.5203 198.089 98.2234 197.703Z" fill="#FF3737"/>
<path fill-rule="evenodd" clip-rule="evenodd" d="M249.312 196.1C248.327 195.772 247.266 195.044 246.585 194.207L245.449 192.859L249.463 189.037C255.636 183.211 260.37 177.24 264.461 170.14C265.824 167.774 269.27 159.873 269.27 159.108C269.27 158.853 269.687 157.834 270.179 156.778C270.937 155.249 271.505 154.666 273.133 153.793C275.065 152.7 277.261 152.336 278.208 152.955C280.026 154.12 280.026 157.798 278.208 164.133C276.201 171.087 273.512 176.075 267.945 183.247C267.074 184.34 265.445 186.488 264.271 187.981C261.128 191.986 259.083 193.915 256.318 195.408C253.591 196.864 252.001 197.047 249.312 196.1ZM276.504 192.823L279.231 193.988C279.796 194.239 286.034 197.12 293.526 200.581C305.606 206.162 320.948 213.249 321.042 213.249C321.193 213.249 321.904 211.669 322.064 209.826C322.443 205.858 323.844 200.469 325.473 196.719C326.23 195.044 326.836 192.951 326.836 192.769C326.836 192.686 326.221 192.447 325.213 192.056C324.013 191.591 322.257 190.91 320.322 190.02C310.778 185.614 292.107 176.621 289.797 175.274C287.525 174 287.07 173.89 287.07 174.728C287.07 175.82 284.76 180.881 282.98 183.612C282.033 185.104 280.178 187.799 278.852 189.583L276.504 192.823ZM320.398 206.695C321.484 207.3 319.603 208.188 319.148 208.333C316.472 208.552 313.322 208.068 310.741 206.622C309.391 205.702 298.764 200.026 291.714 196.261C288.492 194.54 286.017 193.218 285.518 192.932C283.927 192.022 282.412 191.039 282.147 190.748C281.352 189.765 282.109 189.328 284.343 189.51C285.687 189.619 318.052 205.388 320.398 206.695ZM176.791 298.388L176.791 298.388C177.497 298.102 178.105 297.855 178.566 297.676C180.915 296.766 188.072 287.05 190.647 276.091C192.503 268.008 193.45 256.503 192.389 254.573C191.75 253.455 195.549 257.204 198.377 259.996L198.379 259.998L198.381 260L198.381 260C199.237 260.845 200.004 261.602 200.532 262.11C217.044 277.875 241.623 290.545 267.149 296.48C279.875 299.465 288.926 300.521 301.083 300.521C321.496 300.521 337.592 296.662 352.211 288.178C352.905 287.776 353.555 287.406 354.175 287.053L354.176 287.052C359.272 284.152 362.308 282.424 370.617 273.433C379.937 263.347 388.227 239.936 390.992 231.854C392.204 228.213 395.158 213.731 395.158 210.117C395.158 205.839 393.605 203.819 391.484 201.743C387.735 198.212 382.66 196.937 378.456 198.466L376.487 199.195L375.881 197.265C375.01 194.352 373.192 192.022 370.389 190.274C366.223 187.617 365.618 187.434 361.868 187.434C358.952 187.434 358.157 187.58 356.301 188.418L354.142 189.364L353.688 188.053C352.817 185.359 349.895 181.603 347.628 180.517C345.618 179.553 342.138 179.465 339.713 179.898C334.411 180.844 330.623 183.211 329.071 186.524C328.616 187.544 328.048 188.345 327.821 188.345C327.632 188.345 320.171 186.342 311.271 182.555C309.775 181.917 308.37 181.318 307.05 180.755L307.035 180.749L307.035 180.749C291.053 173.939 287.589 172.463 287.903 170.613C288.169 169.048 288.093 168.174 287.638 166.827C286.843 164.57 285.934 163.951 283.359 163.951C281.314 163.951 281.314 163.951 281.541 162.968C282.753 157.397 282.715 154.193 281.427 152.154C280.556 150.807 279.534 150.261 277.186 149.933C275.822 149.751 275.178 149.86 273.663 150.661C272.641 151.171 271.77 151.535 271.694 151.462C271.618 151.389 271.883 149.387 272.3 147.02C275.406 129.508 273.007 114.419 265.091 98.3987C265.015 98.2454 264.927 98.0641 264.827 97.8567C262.421 92.8901 252.745 72.9195 225.073 62.8426C223.821 62.3865 222.636 61.9455 221.496 61.5216C212.071 58.014 205.804 55.6822 190.685 55.7064C173.739 55.7335 168 58.0366 156.827 62.9518C155.275 63.6436 153.911 64.0441 153.798 63.8985C153.684 63.7164 152.964 63.2795 152.245 62.9154C151.525 62.5513 149.972 61.6411 148.836 60.9129C145.579 58.8012 143.572 57.9274 142.549 58.1458C141.375 58.4371 141.375 59.3837 142.549 59.8207C143.042 60.0027 143.61 60.6217 143.837 61.2406C144.329 62.5513 144.898 62.697 145.238 61.6047C145.39 61.2042 145.617 60.9129 145.731 60.9857C145.774 61.0064 145.918 61.0712 146.137 61.17L146.137 61.17L146.138 61.1703L146.138 61.1704L146.138 61.1705C146.692 61.4196 147.725 61.8847 148.836 62.4057C150.389 63.1339 152.093 63.8985 152.548 64.0805C153.381 64.3718 153.116 64.5902 149.518 66.6292C135.467 74.5663 124.03 86.909 117.629 100.963C116.645 103.075 115.774 104.385 114.865 105.114C112.555 106.97 108.01 112.25 106.949 114.325C106.381 115.454 105.169 117.201 104.223 118.221C103.314 119.24 102.329 120.551 101.988 121.097C101.685 121.68 101.382 122.08 101.269 122.007C101.193 121.898 101.306 120.114 101.572 118.039C102.14 113.196 102.14 111.922 101.685 111.813C101.003 111.631 100.019 114.179 99.6022 117.347C99.2992 119.277 99.2235 122.189 99.4128 125.175L99.6401 129.908L96.9511 125.721C96.0249 124.319 95.1129 122.916 94.466 121.922L94.4652 121.92L94.4648 121.92L94.4647 121.92L94.4622 121.916L94.4605 121.913C94.0522 121.285 93.7502 120.821 93.6184 120.624C92.6337 119.24 92.0656 117.165 92.4822 116.473C92.7094 116.073 92.6716 115.891 92.2929 115.891C91.4975 115.891 89.9448 118.33 88.9222 121.134C88.4299 122.444 87.9375 123.537 87.786 123.537C87.218 123.537 87.4831 110.502 88.089 106.315C89.3388 98.0502 92.6337 87.8556 94.1107 87.8556C94.4137 87.8556 94.6788 87.71 94.6788 87.4916C94.6788 86.8362 93.6941 87.0911 92.8988 87.9285C91.1188 89.7853 88.7707 95.5016 87.2937 101.582C86.2711 105.769 85.6273 111.157 85.4001 117.019C85.2107 122.08 85.2865 122.918 86.0439 125.685C86.915 128.779 87.5967 129.69 88.7707 129.253C89.1873 129.107 89.3767 128.561 89.3767 127.542C89.3767 126.741 89.8311 124.338 90.3992 122.189L91.3839 118.33L91.8005 119.932C92.3307 121.789 95.4363 127.542 98.2388 131.729C100.17 134.569 100.208 134.751 100.852 139.192C101.193 141.705 102.253 147.815 104.715 157.215C106.89 165.52 119.118 173.759 122.171 175.816L122.171 175.816L122.172 175.817C122.574 176.088 122.816 176.251 122.856 176.293C123.235 176.694 123.765 176.912 124.068 176.803C124.409 176.694 124.598 176.839 124.598 177.24C124.598 177.604 124.863 178.077 125.166 178.296C125.545 178.551 125.81 179.534 125.886 181.245C126.075 184.667 128.726 191.221 130.771 193.369C132.097 194.753 134.861 195.335 137.929 194.826C139.936 194.534 140.504 194.316 140.315 193.879C140.201 193.588 140.921 193.952 141.906 194.68C153.419 203.127 165.083 208.188 178.187 210.372C183.262 211.21 191.67 211.683 196.252 211.355C200.305 211.1 200.305 211.1 200.115 211.865C199.85 212.884 200.191 213.503 205.758 222.569C210.189 229.742 210.568 230.215 215.492 235.058C225.944 245.434 237.344 253.481 250.258 259.707C262.415 265.532 281.825 270.374 299.568 271.904C317.311 273.433 330.055 257.777 330.018 253.772C329.942 248.274 329.146 244.67 327.215 241.174C325.321 237.788 324.072 236.623 318.391 232.982C312.066 228.941 308.165 225.628 305.59 222.096C303.961 219.875 303.355 217.363 303.355 216.016C303.355 215.142 304.529 213.176 306.272 212.775C307.862 212.375 308.165 212.411 309.945 213.249C311.006 213.722 313.77 214.96 316.043 216.016C318.353 217.035 320.587 218.055 321.042 218.273C322.382 218.631 322.948 221.152 323.255 222.519C323.324 222.824 323.379 223.072 323.428 223.225C323.958 225.118 326.467 227.562 328.086 228.395C330.929 229.856 337.934 230.052 339.865 228.049C340.357 227.539 341.99 226.913 342.326 227.103C342.662 227.292 343.879 228.868 343.879 230.142C343.917 232.327 345.091 234.329 347.59 236.332C352.324 240.118 355.998 241.029 359.709 239.354C361.641 238.48 363.224 238.139 363.224 238.139C363.224 238.139 364.803 240.075 364.898 240.737C365.642 245.91 373.608 248.079 375.729 248.297C376.215 248.344 377.161 248.144 378.122 247.941L378.122 247.941C379.407 247.67 380.718 247.393 380.994 247.692C381.535 248.278 371.942 263.529 370.617 265.459C358.005 283.664 333.464 294.805 303.431 295.97C283.927 296.735 259.954 291.492 239.162 281.952C225.869 275.799 214.09 268.263 201.479 257.704C199.282 255.884 196.745 253.808 195.836 253.08C194.927 252.388 192.768 250.022 191.102 247.837C188.299 244.196 186.709 242.886 186.709 244.123C186.709 244.67 188.526 248.019 190.609 251.332C191.443 252.643 191.973 253.553 191.783 253.408C191.594 253.262 190.988 255.884 190.42 259.233C188.564 269.974 185.497 280.569 182.391 287.159C180.687 290.727 177.419 293.392 176.434 294.12C172.799 296.778 167.356 297.972 159.819 298.701C150.275 299.611 136.225 297.572 125.507 293.713C122.666 292.693 115.357 289.744 114.865 289.416C114.835 289.388 114.667 288.341 114.433 286.879C114.367 286.467 114.296 286.022 114.221 285.557C112.858 276.564 110.964 241.939 110.964 225.919C110.964 219.292 110.888 217.836 110.434 217.836C109.487 217.836 109.108 218.71 108.692 221.841C107.745 228.977 107.934 266.224 108.957 274.052L109.184 275.836L107.896 275.144C105.927 274.052 98.4282 266.733 95.815 263.347C93.6027 260.453 92.2878 256.745 91.3041 253.972C91.0753 253.326 90.8644 252.732 90.6643 252.21C85.1729 237.573 87.1043 221.149 94.6788 206.367C101.117 193.77 109.032 186.779 120.621 183.393C122.515 182.847 124.181 182.264 124.371 182.119C125.09 181.463 120.47 181.791 117.932 182.556C109.676 184.995 101.041 191.658 95.1711 200.178C86.915 212.12 83.2035 229.742 85.8167 244.779C86.4226 248.347 88.8843 256.066 89.566 256.612C89.6264 256.67 89.9379 257.298 90.409 258.248C91.7116 260.875 94.2343 265.963 96.0422 268.263C98.2388 271.139 104.866 277.401 107.631 279.331L109.373 280.533L109.638 283.482C110.131 289.125 110.32 289.635 112.971 291.528C119.599 296.37 132.665 300.885 144.481 302.487C149.972 303.215 161.902 302.961 166.447 302.014C169.368 301.4 173.903 299.56 176.791 298.388ZM294.455 267.826C272.452 265.969 245.865 255.883 226.626 240.3C218.521 233.71 207.993 220.894 203.827 213.795C202.956 212.338 202.312 211.647 201.555 211.465C200.759 211.246 201.441 211.028 204.698 210.518C218.446 208.261 231.815 202.763 242.608 194.935L244.199 193.806L244.653 194.862C245.676 197.229 249.615 199.632 252.531 199.632C253.705 199.632 257.643 197.92 260.029 196.355L261.658 195.299L262.983 196.573C264.195 197.738 264.423 197.811 266.695 197.811C269.308 197.811 272.452 196.682 274.194 195.08L275.141 194.243L277.829 195.954C279.269 196.937 283.283 199.085 286.729 200.797C291.88 203.345 297.334 206.294 302.522 209.353L303.355 209.863L302.56 210.882C301.727 211.974 300.175 214.05 300.175 217.217C300.175 220.785 304.034 227.196 311.422 231.599C317.226 235.058 327.215 241.861 326.836 251.806C326.79 253.007 325.397 255.993 323.541 258.687C322.329 260.398 318.959 262.947 315.891 264.44C310.665 266.952 301.462 268.408 294.455 267.826ZM92.5201 104.385C93.5426 104.604 94.2243 104.932 94.0729 105.077C93.5805 105.55 90.9673 105.332 90.3614 104.749C89.4146 103.876 89.6418 103.257 90.9673 103.002C91.649 102.893 92.6716 102.346 93.2397 101.8C93.8077 101.254 94.3001 100.999 94.3001 101.181C94.3001 101.655 92.4065 103.33 91.4597 103.694C90.8537 103.948 91.0431 104.058 92.5201 104.385ZM107.593 104.968C108.692 104.385 108.464 103.985 107.177 104.167C105.889 104.349 105.813 104.203 106.646 102.965C106.987 102.492 107.177 101.8 107.101 101.436C106.987 100.963 106.722 101.181 106.116 102.346C105.662 103.184 105.018 103.876 104.715 103.876C103.768 103.876 103.692 104.604 104.601 104.932C105.775 105.405 106.684 105.405 107.593 104.968ZM94.4894 85.0886C93.5805 85.2342 90.7401 86.3265 88.2405 87.528C85.7031 88.6931 83.5443 89.6761 83.3929 89.6397C79.5299 89.2392 84.9077 83.0497 94.6788 76.7145C104.033 70.6342 110.358 67.4302 116.228 65.7917C119.902 64.7723 124.03 64.6267 125.204 65.4641C125.848 65.9374 125.621 65.9738 122.818 66.0102C116.758 66.0102 109.752 68.9957 98.3524 76.314C92.4443 80.1005 85.5894 85.5255 85.5894 86.3993C85.5894 86.5813 86.6877 86.2172 88.0511 85.6347C90.9673 84.3604 93.9592 83.705 95.2848 83.9963C96.686 84.3604 96.3831 84.8337 94.4894 85.0886ZM109.146 88.2197C112.706 87.528 112.858 87.4916 112.858 87.1275C112.858 86.9454 111.494 86.7634 109.79 86.6906L106.722 86.5813L109.563 83.4866C111.115 81.7753 112.933 80.0641 113.577 79.6636C114.978 78.7898 115.054 78.1708 113.918 77.8067L113.047 77.5519L113.994 77.2242C114.524 77.0422 115.509 76.9693 116.19 77.0786C117.213 77.2242 117.44 77.1514 117.326 76.6416C117.213 76.1319 116.796 76.0227 114.941 76.0591C109.525 76.1319 107.215 77.5155 111.456 78.1708C112.63 78.3529 113.615 78.6441 113.615 78.8262C113.615 78.9718 113.426 79.1175 113.198 79.1175C112.479 79.1175 106.381 85.0522 105.624 86.5085C104.45 88.6567 105.094 88.9843 109.146 88.2197ZM134.142 74.093C133.043 74.1658 132.778 74.3479 132.854 74.8576L132.866 74.9318C132.908 75.1985 132.932 75.3528 132.872 75.4014C132.789 75.4681 132.546 75.3355 131.969 75.021L131.869 74.9668C131.15 74.6027 131.074 74.4207 131.491 74.1294C131.756 73.911 132.475 73.5833 133.043 73.4741L134.104 73.2192L133.309 72.4182C132.892 71.9449 132.665 71.508 132.778 71.3623C133.081 71.0711 136.793 71.4716 137.323 71.8721C137.55 72.0541 137.891 72.0177 138.118 71.7992C138.649 71.2895 139.368 71.69 139.368 72.491C139.368 72.9279 139.255 72.9643 138.914 72.6367C138.611 72.3454 138.346 72.3454 138.005 72.6002C137.702 72.8551 137.475 72.8551 137.285 72.5638C137.172 72.3818 136.452 72.1997 135.695 72.1997C134.991 72.1997 134.661 72.1997 134.597 72.3304C134.54 72.446 134.691 72.6636 134.975 73.0736C135.579 73.981 135.543 73.9838 134.155 74.092L134.142 74.093ZM128.385 64.4082C128.385 63.9349 127.931 63.0975 127.363 62.5513L126.302 61.5319L131.983 61.7503C135.126 61.896 138.686 62.2236 139.936 62.5513C141.186 62.8426 142.625 63.0611 143.155 63.0611C143.951 63.0611 143.799 62.9154 142.322 62.1508C139.747 60.8765 136.452 60.2576 130.127 59.8206C122.553 59.3109 118.728 60.0027 119.447 61.8231C119.561 62.1872 120.167 62.3693 121.076 62.3693C122.932 62.3693 125.961 63.4251 126.984 64.4082C128.082 65.4641 128.385 65.4641 128.385 64.4082ZM109.903 160.819C112.971 164.606 117.023 168.902 118.917 170.359C120.053 171.232 121.038 171.961 121.114 171.961C121.152 171.961 120.318 170.286 119.258 168.247C114.978 160.055 112.479 151.899 111.305 142.506C111.04 140.43 110.623 138.683 110.169 137.955C109.26 136.498 109.26 134.605 110.206 132.821C110.699 131.874 110.964 130.673 110.964 129.362V127.36L109.146 129.18C107.366 130.964 105.662 131.692 105.662 130.6C105.662 129.799 108.464 125.94 109.941 124.738C111.115 123.791 111.267 123.464 111.646 120.624C111.911 118.913 112.517 115.891 113.009 113.888C113.539 111.886 113.842 110.174 113.766 110.102C113.501 109.847 104.601 119.673 103.389 122.808C103.123 123.497 102.405 124.702 101.837 125.43L100.852 126.645C100.852 126.645 101.158 128.347 101.496 130.486C101.837 132.647 101.997 134.133 102.14 135.456C102.331 137.226 102.491 138.705 103.011 141.122C103.617 144.108 104.223 146.693 104.374 146.875C104.488 147.093 104.98 148.768 105.472 150.625C106.533 154.739 108.313 158.817 109.903 160.819ZM263.589 195.262L262.794 194.498C262.794 194.498 275.994 178.375 278.36 172.434C280.165 167.9 281.227 166.615 282.66 166.615C283.462 166.615 284.116 166.791 284.419 167.227C284.949 167.992 285.46 168.939 284.779 172.179C283.642 177.422 281.9 180.881 276.674 188.345C275.462 190.056 273.909 191.949 273.228 192.605C271.637 194.025 268.058 195.481 265.975 195.809C264.65 195.991 264.271 195.918 263.589 195.262Z" fill="#00160A"/>
<path d="M368.458 230.88C373.17 218.538 372.456 215.909 371.639 215.652C371.639 215.652 369.84 216.635 369.045 218.71C367.568 222.606 362.512 232.8 360.618 234.621C358.384 236.769 358.384 236.769 356.112 236.769C353.839 236.769 347.286 233.479 346.393 230.236C344.966 225.048 351.112 207.023 351.264 206.003L350.241 205.311C349.56 205.93 340.692 231.781 329.033 225.045C327.698 224.274 324.867 220.64 324.64 218.71C323.378 213.103 329.168 193.497 330.153 189.469C331.034 185.865 335.623 182.519 341.266 182.519C349.938 182.519 348.773 189.807 352.658 192.376C354.38 193.514 357.209 191.45 358.081 191.294C362.966 190.42 364.839 191.438 368.42 194.17C371.185 196.28 373.23 200.454 375.482 201.925C376.732 202.742 378.059 201.625 378.494 201.416C380.276 200.556 384.099 201.197 385.16 201.925C386.714 202.577 390.524 206.097 391.126 208.145C393.853 217.425 385.24 237.998 381.989 241.858C376.606 248.246 363.746 243.221 368.458 230.88Z" fill="white"/>
<path fill-rule="evenodd" clip-rule="evenodd" d="M150.73 197.063C161.107 203.362 171.807 207.476 184.002 208.605C193.621 209.478 206.592 208.277 215.908 205.364C223.748 202.925 234.352 196.167 241.434 190.451C255.182 179.383 263.855 162.094 267.642 143.744C268.172 141.159 268.981 134.661 268.943 128.216C268.943 120.716 265.509 100.22 255.106 88.4018C233.649 64.0272 198.379 53.0472 168.737 62.4289C158.044 65.8132 146.66 71.9449 138.063 79.9549C127.231 90.113 119.24 103.948 116.059 118.075C112.726 133.003 117.061 150.843 124.598 165.48C130.62 177.131 140.542 190.837 150.73 197.063ZM251.849 153.064C244.729 173.635 226.172 189 202.842 193.66C199.282 194.352 196.821 194.607 191.821 194.68C188.299 194.789 184.777 194.753 184.058 194.68C167.735 192.787 155.312 186.998 143.875 176.002C138.876 171.16 136.755 168.538 133.649 163.368C128.764 155.176 126.151 146.802 125.355 136.717C122.629 102.164 148.344 73.3648 184.55 70.3793C198.752 69.2142 214.507 73.4012 226.475 81.5569C230.906 84.5788 238.935 92.2247 241.434 95.7928C242.457 97.2128 252.379 111.157 254.121 119.167C256.356 129.58 255.485 142.615 251.849 153.064Z" fill="#FF3737"/>
<path fill-rule="evenodd" clip-rule="evenodd" d="M268.956 128.216C268.956 152.654 256.932 179.372 241.413 190.782C234.01 196.226 224.334 202.818 215.908 205.364C203.56 209.096 184.002 208.605 184.002 208.605C184.002 208.605 203.955 206.04 211.35 203.18C232.554 194.976 244.129 182.383 251.276 170.3C265.385 146.449 268.956 127.623 268.956 128.216Z" fill="#813131"/>
<path fill-rule="evenodd" clip-rule="evenodd" d="M184.436 190.311C174.324 189.073 164.288 185.614 156.183 180.48C151.374 177.458 144.102 170.359 140.58 165.298C135.543 158.016 132.21 150.224 130.582 141.85C129.408 135.77 129.446 126.413 130.62 120.988C131.832 115.454 133.384 111.23 136.149 105.878C139.368 99.6886 142.777 95.1375 147.889 90.2222C156.6 81.8481 166.712 76.5324 178.755 73.9838C182.656 73.1828 196.783 72.5274 197.275 73.1464C197.389 73.3284 198.146 73.8017 198.941 74.2022C199.737 74.6391 201.858 76.1683 203.6 77.6611C206.213 79.8456 207.387 81.2292 209.659 84.6516C211.212 86.9818 212.462 89.0936 212.462 89.2756C212.462 89.6761 213.674 90.4043 214.355 90.4043C215.302 90.4043 215.946 87.6736 216.135 82.8676C216.249 80.2097 216.476 78.0252 216.628 78.0252C217.158 78.0252 222.99 81.12 225.717 82.8676C231.057 86.2901 236.397 91.0961 240.336 96.1205C242.116 98.3779 242.381 98.9604 242.381 100.344C242.381 101.618 242.76 102.601 243.934 104.567C246.888 109.519 249.198 115.745 250.599 122.626C251.508 127.25 251.508 135.988 250.561 140.831C247.986 154.157 240.336 167.41 230.375 175.82C221.93 182.92 212.954 187.289 202.35 189.437C198.714 190.202 187.807 190.711 184.436 190.311ZM157.358 165.407C157.698 165.043 157.926 164.497 157.812 164.242C157.778 164.165 157.304 163.951 156.61 163.637C154.991 162.906 152.178 161.635 150.959 160.31C146.112 154.994 144.332 151.025 143.233 142.833C142.173 134.86 143.064 129.469 144.975 120.806C145.908 116.58 148.387 113.089 149.929 110.917C150.977 109.44 151.593 108.573 150.995 108.5C149.518 108.281 149.291 108.39 147.738 109.81C144.405 112.869 142.89 115.308 141.3 120.005C138.838 127.36 138.362 147.235 143.233 156.196C148.104 165.156 156.486 166.354 157.358 165.407ZM211.212 134.823C210.569 140.479 207.841 148.659 204.66 152.227C203.183 153.902 197.761 156.778 193.185 156.196C188.764 155.633 185.307 153.647 182.353 149.387C179.816 145.71 178.505 141.246 177.619 135.624C176.089 125.917 182.77 114.616 185.648 111.813C188.564 108.937 190.647 107.917 193.298 107.881C195.874 107.881 197.54 108.427 200.153 110.211C204.925 113.415 212.462 123.833 211.212 134.823ZM160.16 104.713C160.918 103.876 161.031 103.475 160.804 101.91C160.652 100.453 160.349 99.8706 159.554 99.2517C158.153 98.1594 156.411 98.1594 155.123 99.3245C154.214 100.162 154.101 100.453 154.214 102.456C154.328 104.604 154.403 104.749 155.653 105.405C157.32 106.279 158.948 106.024 160.16 104.713ZM183.792 82.2486C176.975 86.9454 174.021 88.8751 170.954 90.6956C168.53 92.1519 167.772 92.1883 167.772 90.8776C167.772 90.1858 168.303 89.4212 169.666 88.2197L171.56 86.5449L167.886 86.0716C163.758 85.5619 159.743 84.4696 158.872 83.6322C157.433 82.2122 158.683 81.8846 162.773 82.6127C164.591 82.904 168.113 83.2681 170.613 83.3409L175.158 83.523L178.452 81.2292C185.686 76.2047 193.185 73.3648 196.783 74.2386C199.017 74.7484 198.752 75.3309 196.215 75.6222C193.298 75.9499 191.518 76.8965 183.792 82.2486Z" fill="white"/>
<path d="M193.526 151.207C193.526 151.025 193.753 150.843 194.056 150.843C194.359 150.843 194.738 151.025 194.851 151.207C194.965 151.425 194.738 151.57 194.321 151.57C193.866 151.57 193.526 151.425 193.526 151.207Z" fill="#64FCD9"/>
<path d="M195.798 150.88C195.798 150.479 196.745 150.115 197.805 150.115C198.638 150.152 198.638 150.152 197.919 150.661C197.086 151.28 195.798 151.389 195.798 150.88Z" fill="#64FCD9"/>
<path d="M189.928 149.933C189.814 149.642 189.663 149.132 189.549 148.841C189.435 148.477 189.625 148.295 190.117 148.295C190.534 148.295 190.875 148.513 190.875 148.804C190.875 149.096 190.988 149.569 191.102 149.897C191.253 150.297 191.14 150.479 190.723 150.479C190.382 150.479 190.003 150.224 189.928 149.933Z" fill="#64FCD9"/>
<path d="M191.935 149.023C191.746 147.931 192.162 147.567 193.526 147.567C193.942 147.567 194.283 147.931 194.435 148.55C194.738 149.605 194.245 150.115 192.92 150.115C192.314 150.115 192.049 149.86 191.935 149.023Z" fill="#64FCD9"/>
<path d="M188.072 149.204C187.352 148.659 187.352 148.659 188.148 148.659C188.64 148.659 188.981 148.877 188.981 149.204C188.981 149.859 188.981 149.859 188.072 149.204Z" fill="#64FCD9"/>
<path d="M195.684 149.169C195.192 148.695 195.419 147.275 196.025 147.057C197.123 146.656 197.616 146.838 197.843 147.785C197.995 148.331 198.07 148.804 197.995 148.841C197.692 149.169 195.912 149.387 195.684 149.169Z" fill="#64FCD9"/>
<path d="M199.055 148.404C198.941 148.295 198.828 147.821 198.828 147.385C198.828 146.766 199.131 146.511 200.04 146.329C200.835 146.183 201.327 146.256 201.555 146.547C201.933 147.13 201.933 147.858 201.592 148.04C200.911 148.404 199.32 148.622 199.055 148.404Z" fill="#64FCD9"/>
<path d="M186.33 147.275C186.33 146.838 186.671 146.474 187.163 146.365C188.148 146.11 188.11 146.074 188.299 147.02C188.375 147.567 188.186 147.785 187.39 147.858C186.557 147.967 186.33 147.821 186.33 147.275Z" fill="#64FCD9"/>
<path d="M189.208 147.312C188.678 146.766 189.019 145.746 189.738 145.746C190.231 145.746 190.496 146.001 190.496 146.438C190.496 147.13 189.625 147.712 189.208 147.312Z" fill="#64FCD9"/>
<path d="M191.481 146.219C191.178 145.528 191.821 145.018 193.071 145.018C193.639 145.018 193.904 145.236 193.904 145.71C193.904 146.11 193.563 146.474 193.071 146.62C191.821 146.911 191.746 146.911 191.481 146.219Z" fill="#64FCD9"/>
<path d="M202.426 146.11C202.539 145.928 202.728 145.746 202.842 145.746C202.955 145.746 202.917 145.928 202.804 146.11C202.69 146.328 202.501 146.473 202.388 146.473C202.274 146.473 202.312 146.328 202.426 146.11Z" fill="#64FCD9"/>
<path d="M194.889 145.491C194.586 144.763 194.965 144.399 196.177 144.217C196.858 144.144 197.161 144.29 197.237 144.799C197.502 146.001 195.343 146.656 194.889 145.491Z" fill="#64FCD9"/>
<path d="M185.8 144.872C185.459 143.671 185.535 143.562 186.519 143.562C187.049 143.562 187.466 143.707 187.466 143.889C187.466 144.071 187.58 144.472 187.693 144.763C187.807 145.127 187.58 145.346 186.936 145.455C186.216 145.6 185.951 145.455 185.8 144.872Z" fill="#64FCD9"/>
<path d="M198.449 144.472C198.449 143.816 198.714 143.525 199.434 143.343C200.494 143.088 201.1 143.598 201.1 144.763C201.1 145.236 200.797 145.382 199.775 145.382C198.6 145.382 198.449 145.273 198.449 144.472Z" fill="#64FCD9"/>
<path d="M184.663 144.472C184.55 144.181 184.626 143.926 184.815 143.926C185.042 143.926 185.193 144.181 185.193 144.472C185.193 144.763 185.117 145.018 185.042 145.018C184.966 145.018 184.815 144.763 184.663 144.472Z" fill="#64FCD9"/>
<path d="M188.489 144.763C187.958 144.29 188.261 143.27 188.943 143.088C189.36 142.979 189.776 143.015 189.89 143.125C190.344 143.525 190.079 144.581 189.511 144.799C188.792 145.054 188.792 145.054 188.489 144.763Z" fill="#64FCD9"/>
<path d="M202.009 144.508C201.592 143.452 202.047 142.651 203.107 142.542C203.903 142.433 204.13 142.579 204.13 143.161C204.13 144.363 203.713 145.018 202.956 145.018C202.539 145.018 202.123 144.799 202.009 144.508Z" fill="#64FCD9"/>
<path d="M191.14 144.035C190.685 143.634 190.837 142.906 191.481 142.688C192.2 142.433 193.715 143.161 193.298 143.562C192.768 143.998 191.405 144.326 191.14 144.035Z" fill="#64FCD9"/>
<path d="M194.435 143.125C194.094 142.615 195.306 141.741 196.29 141.741C196.745 141.741 196.934 141.96 196.858 142.36C196.707 143.088 194.775 143.671 194.435 143.125Z" fill="#64FCD9"/>
<path d="M184.058 142.87C184.058 142.688 183.944 142.287 183.83 141.96C183.717 141.632 183.755 141.377 183.982 141.377C184.474 141.377 184.853 142.761 184.398 143.052C184.209 143.161 184.058 143.088 184.058 142.87Z" fill="#64FCD9"/>
<path d="M185.08 142.032C184.853 141.231 185.307 140.649 186.178 140.649C186.671 140.649 187.163 142.069 186.86 142.542C186.443 143.161 185.269 142.797 185.08 142.032Z" fill="#64FCD9"/>
<path d="M187.731 142.214C187.163 141.668 187.504 140.358 188.261 140.176C188.829 140.03 189.132 140.212 189.435 140.867C189.663 141.341 189.776 141.814 189.7 141.887C189.322 142.214 187.958 142.469 187.731 142.214Z" fill="#64FCD9"/>
<path d="M197.957 142.214C197.464 141.741 197.692 141.45 198.828 141.049C199.775 140.758 200.04 140.795 200.229 141.231C200.57 142.105 198.676 142.943 197.957 142.214Z" fill="#64FCD9"/>
<path d="M201.289 141.377C200.911 140.794 201.441 140.285 202.426 140.285C203.6 140.285 203.941 141.231 202.88 141.523C201.744 141.814 201.555 141.778 201.289 141.377Z" fill="#64FCD9"/>
<path d="M204.509 140.503C204.509 139.957 205.19 139.375 205.493 139.666C205.758 139.921 205.228 141.013 204.849 141.013C204.66 141.013 204.509 140.794 204.509 140.503Z" fill="#64FCD9"/>
<path d="M183.565 140.03C183.414 139.921 183.3 139.447 183.338 139.047C183.338 138.355 183.376 138.355 183.716 139.156C184.095 140.03 184.019 140.467 183.565 140.03Z" fill="#64FCD9"/>
<path d="M184.285 139.484C183.944 138.209 183.982 138.1 184.966 138.1C186.065 138.1 186.746 139.447 185.913 139.957C185.042 140.467 184.55 140.321 184.285 139.484Z" fill="#64FCD9"/>
<path d="M197.313 140.212C197.313 140.103 197.502 139.52 197.729 138.865C198.26 137.408 199.434 137.336 199.699 138.756C199.812 139.302 199.85 139.775 199.812 139.811C199.623 140.03 197.313 140.358 197.313 140.212Z" fill="#64FCD9"/>
<path d="M186.974 139.302C186.822 139.192 186.709 138.756 186.709 138.355C186.709 137.772 186.822 137.736 187.277 138.1C187.58 138.355 187.845 138.792 187.845 139.047C187.845 139.593 187.39 139.739 186.974 139.302Z" fill="#64FCD9"/>
<path d="M200.608 138.573C200.381 137.445 200.873 136.935 202.047 137.081C202.615 137.154 202.804 137.481 202.804 138.282C202.804 139.192 202.653 139.411 201.82 139.484C200.986 139.593 200.797 139.411 200.608 138.573Z" fill="#64FCD9"/>
<path d="M204.319 138.719C203.827 137.263 203.978 136.826 205.001 136.717C205.91 136.607 206.023 136.717 206.023 137.663C206.023 138.464 205.796 138.792 205.228 138.938C204.812 139.047 204.395 138.938 204.319 138.719Z" fill="#64FCD9"/>
<path d="M182.997 136.644C182.997 135.952 183.073 135.661 183.186 136.025C183.262 136.353 183.262 136.935 183.186 137.299C183.073 137.627 182.997 137.336 182.997 136.644Z" fill="#64FCD9"/>
<path d="M183.944 137.117C183.452 136.68 183.679 135.26 184.285 135.042C185.156 134.714 185.572 135.115 185.572 136.316C185.572 137.081 185.383 137.372 184.891 137.372C184.512 137.372 184.058 137.263 183.944 137.117Z" fill="#64FCD9"/>
<path d="M186.216 136.134C186.065 135.588 185.989 135.005 186.14 134.896C186.519 134.532 186.746 135.115 186.632 136.171L186.519 137.19L186.216 136.134Z" fill="#64FCD9"/>
<path d="M198.449 135.879C198.449 135.479 198.638 135.26 198.827 135.37C199.054 135.479 199.206 135.843 199.206 136.134C199.206 136.425 199.054 136.644 198.827 136.644C198.638 136.644 198.449 136.316 198.449 135.879Z" fill="#64FCD9"/>
<path d="M200.153 136.353C199.623 135.806 200.04 134.823 200.911 134.605C202.009 134.35 202.047 134.35 202.388 135.406C202.615 136.061 202.463 136.207 201.479 136.353C200.873 136.462 200.267 136.425 200.153 136.353Z" fill="#64FCD9"/>
<path d="M203.638 135.661C203.221 135.297 203.335 134.095 203.751 134.095C203.978 134.095 204.13 133.95 204.13 133.731C204.13 133.549 203.903 133.367 203.6 133.367C202.956 133.367 202.426 131.583 202.956 131.073C203.638 130.418 204.395 131.11 204.849 132.894C205.115 133.84 205.38 134.933 205.493 135.297C205.645 135.77 205.493 135.916 204.774 135.916C204.281 135.916 203.751 135.806 203.638 135.661Z" fill="#64FCD9"/>
<path d="M205.683 133.731C205.418 132.639 204.736 130.454 204.243 128.852C203.486 126.522 203.41 125.94 203.827 125.685C204.092 125.503 204.433 125.357 204.546 125.357C204.963 125.357 206.478 132.821 206.326 134.277L206.213 135.734L205.683 133.731Z" fill="#64FCD9"/>
<path d="M182.618 133.549C182.618 132.967 182.694 132.748 182.808 133.112C182.883 133.44 182.883 133.95 182.808 134.204C182.694 134.423 182.618 134.168 182.618 133.549Z" fill="#64FCD9"/>
<path d="M183.376 133.476C183.527 132.202 184.626 131.911 184.929 133.076C185.194 134.022 185.269 133.913 184.133 134.277C183.338 134.496 183.262 134.423 183.376 133.476Z" fill="#64FCD9"/>
<path d="M199.358 133.149C199.055 132.093 199.699 131.474 200.911 131.619C201.82 131.729 202.16 133.294 201.403 133.768C200.456 134.35 199.585 134.095 199.358 133.149Z" fill="#64FCD9"/>
<path d="M185.572 132.857C185.572 132.238 185.762 131.911 186.178 131.911C186.557 131.911 186.709 132.166 186.633 132.712C186.443 133.877 185.572 133.986 185.572 132.857Z" fill="#64FCD9"/>
<path d="M182.202 131.328C182.202 130.928 182.315 130.818 182.429 131.109C182.542 131.364 182.504 131.691 182.391 131.801C182.277 131.946 182.164 131.728 182.202 131.328Z" fill="#64FCD9"/>
<path d="M182.921 131.219C182.921 130.673 183.149 130.454 183.717 130.454C184.247 130.454 184.436 130.636 184.361 131.073C184.171 132.02 182.921 132.129 182.921 131.219Z" fill="#64FCD9"/>
<path d="M185.004 130.891C184.739 130.236 184.739 130.236 185.875 129.945C186.557 129.726 186.709 129.835 186.709 130.381C186.709 131.255 185.345 131.692 185.004 130.891Z" fill="#64FCD9"/>
<path d="M198.714 130.381C198.449 129.471 198.941 128.998 200.267 128.998C200.911 128.998 201.1 129.216 201.1 129.908C201.1 130.454 200.873 130.818 200.57 130.818C200.267 130.818 199.775 130.928 199.472 131.037C199.131 131.146 198.866 130.928 198.714 130.381Z" fill="#64FCD9"/>
<path d="M202.009 129.544C201.706 128.816 202.161 128.27 203.032 128.27C203.562 128.27 203.751 128.525 203.751 129.18C203.751 129.835 203.562 130.09 202.994 130.09C202.577 130.09 202.123 129.835 202.009 129.544Z" fill="#64FCD9"/>
<path d="M182.543 129.034C182.543 128.27 183.414 127.396 183.792 127.796C183.944 127.906 184.058 128.415 184.058 128.889C184.058 129.471 183.83 129.726 183.3 129.726C182.808 129.726 182.543 129.471 182.543 129.034Z" fill="#64FCD9"/>
<path d="M184.626 128.597C184.323 127.687 184.663 127.287 185.951 127.105C187.125 126.959 187.504 128.161 186.481 128.889C185.497 129.58 184.891 129.471 184.626 128.597Z" fill="#64FCD9"/>
<path d="M198.335 128.379C198.07 128.161 197.957 126.813 198.184 126.813C198.222 126.813 198.79 126.668 199.472 126.486C200.608 126.158 200.683 126.194 200.646 127.177C200.608 127.906 200.381 128.27 199.812 128.415C198.79 128.67 198.638 128.67 198.335 128.379Z" fill="#64FCD9"/>
<path d="M196.934 127.541C196.934 127.287 197.048 127.178 197.199 127.287C197.312 127.432 197.312 127.65 197.199 127.795C197.048 127.904 196.934 127.795 196.934 127.541Z" fill="#64FCD9"/>
<path d="M201.176 126.959C201.289 126.34 202.463 125.43 202.729 125.721C202.842 125.83 203.032 126.267 203.145 126.741C203.41 127.469 203.297 127.542 202.236 127.542C201.327 127.542 201.062 127.396 201.176 126.959Z" fill="#64FCD9"/>
<path d="M182.921 126.923C182.921 126.741 183.111 126.376 183.3 126.085C183.602 125.648 183.678 125.685 183.678 126.376C183.678 126.813 183.527 127.177 183.3 127.177C183.111 127.177 182.921 127.068 182.921 126.923Z" fill="#64FCD9"/>
<path d="M184.058 126.122C184.058 125.102 184.853 124.774 185.459 125.539C185.838 126.085 185.838 126.267 185.459 126.522C184.663 126.995 184.058 126.85 184.058 126.122Z" fill="#64FCD9"/>
<path d="M195.571 125.648C194.889 124.92 194.889 124.884 195.533 125.102C195.912 125.248 196.404 125.357 196.593 125.357C196.783 125.357 196.934 125.612 196.934 125.903C196.934 126.668 196.404 126.595 195.571 125.648Z" fill="#64FCD9"/>
<path d="M187.428 125.612C185.8 124.41 185.572 121.716 187.087 121.716C188.11 121.716 189.057 123.245 188.905 124.665C188.792 125.976 188.337 126.267 187.428 125.612Z" fill="white"/>
<path d="M197.805 125.83C197.956 125.721 198.183 125.721 198.335 125.83C198.448 125.976 198.335 126.085 198.07 126.085C197.805 126.085 197.692 125.976 197.805 125.83Z" fill="#64FCD9"/>
<path d="M203.524 124.41C203.638 124.083 203.751 123.755 203.751 123.682C203.751 123.609 203.941 123.537 204.13 123.537C204.357 123.537 204.509 123.864 204.509 124.265C204.509 124.702 204.243 124.993 203.903 124.993C203.486 124.993 203.372 124.811 203.524 124.41Z" fill="#64FCD9"/>
<path d="M183.679 124.301C183.679 123.464 184.474 122.08 184.929 122.08C185.724 122.08 185.156 124.41 184.323 124.556C183.982 124.629 183.679 124.52 183.679 124.301Z" fill="#64FCD9"/>
<path d="M192.2 123.9L191.064 123.645L192.086 123.391C193.147 123.1 193.904 123.318 193.904 123.936C193.904 124.3 193.866 124.3 192.2 123.9Z" fill="#64FCD9"/>
<path d="M190.875 122.153C190.875 120.66 191.746 120.442 192.541 121.753C193.071 122.626 193.109 122.808 192.617 122.808C192.314 122.808 191.821 122.918 191.481 123.027C191.026 123.209 190.875 122.99 190.875 122.153Z" fill="#64FCD9"/>
<path d="M197.464 122.663C195.76 121.935 194.662 120.005 194.662 117.711C194.662 116.073 194.813 115.672 195.836 114.762C196.48 114.179 197.123 113.706 197.313 113.706C198.146 113.706 201.214 116.51 202.236 118.257L203.41 120.26L202.16 121.534C200.721 122.99 199.131 123.391 197.464 122.663Z" fill="white"/>
<path d="M189.549 121.715C189.435 121.534 189.511 121.352 189.7 121.352C189.927 121.352 190.116 121.534 190.116 121.715C190.116 121.934 190.041 122.079 189.965 122.079C189.852 122.079 189.662 121.934 189.549 121.715Z" fill="#64FCD9"/>
<path d="M184.588 121.134C184.701 120.806 184.815 120.478 184.815 120.405C184.815 120.333 185.156 120.26 185.572 120.26C186.519 120.26 186.557 120.842 185.61 121.352C184.588 121.862 184.323 121.825 184.588 121.134Z" fill="#64FCD9"/>
<path d="M187.58 120.697C186.709 120.587 186.443 120.114 187.012 119.786C187.163 119.677 187.845 119.495 188.526 119.35C189.549 119.131 189.738 119.204 189.738 119.823C189.738 120.587 188.943 120.915 187.58 120.697Z" fill="#64FCD9"/>
<path d="M190.496 119.459C190.496 119.022 190.534 118.767 190.609 118.84C190.647 118.913 190.95 119.277 191.215 119.641C191.67 120.151 191.632 120.26 191.102 120.26C190.723 120.26 190.496 119.968 190.496 119.459Z" fill="#64FCD9"/>
<path d="M185.194 119.203C185.194 118.985 185.383 118.73 185.572 118.621C185.799 118.512 185.95 118.658 185.95 118.949C185.95 119.276 185.799 119.531 185.572 119.531C185.383 119.531 185.194 119.385 185.194 119.203Z" fill="#64FCD9"/>
<path d="M186.595 118.658C186.292 117.93 188.981 117.129 189.435 117.82C189.776 118.403 189.435 118.658 187.996 118.949C187.125 119.131 186.746 119.058 186.595 118.658Z" fill="#64FCD9"/>
<path d="M190.155 117.492C190.155 117.092 190.268 116.983 190.382 117.274C190.495 117.529 190.458 117.856 190.344 117.965C190.231 118.111 190.117 117.892 190.155 117.492Z" fill="#64FCD9"/>
<path d="M186.936 116.91C187.39 116.109 188.716 114.798 189.057 114.798C189.435 114.798 189.473 116.51 189.095 116.728C188.905 116.801 188.299 116.983 187.731 117.129C186.898 117.311 186.709 117.274 186.936 116.91Z" fill="#64FCD9"/>
<path d="M189.966 116.073C189.549 114.98 189.738 114.507 190.647 114.361C191.594 114.179 191.594 114.179 190.988 115.308C190.231 116.764 190.269 116.764 189.966 116.073Z" fill="#64FCD9"/>
<path d="M189.738 113.888C189.738 113.815 190.496 113.306 191.443 112.796C192.579 112.14 193.374 111.922 193.942 112.068C194.624 112.286 194.435 112.432 192.768 113.196C190.912 113.997 189.738 114.289 189.738 113.888Z" fill="#64FCD9"/>
<path d="M210.758 81.6297C209.735 80.2097 207.576 77.916 206.023 76.5324C204.471 75.1489 203.448 74.0202 203.751 74.0202C204.584 74.0202 210.947 75.695 212.538 76.3504C213.863 76.8965 213.901 76.9693 213.56 78.098C213.371 78.7534 213.219 80.3918 213.219 81.7389C213.219 83.1225 213.106 84.2147 212.954 84.2147C212.765 84.2147 211.818 83.0497 210.758 81.6297Z" fill="white"/>
<path d="M133.687 191.913C132.135 191.148 131.794 190.711 129.824 186.961C126.984 181.645 126.908 180.408 129.597 183.43C130.658 184.631 133.119 187.107 135.051 188.927C138.346 191.986 138.497 192.204 137.399 192.058C136.603 191.949 136.301 192.022 136.49 192.313C136.944 192.969 135.505 192.787 133.687 191.913Z" fill="white"/>
<path fill-rule="evenodd" clip-rule="evenodd" d="M197.157 258.247C196.843 257.529 197.193 256.703 197.94 256.4L198.756 256.068C206.689 252.804 211.242 250.844 214.336 247.732C217.43 244.619 217.8 240.047 218.382 237.265C218.541 236.501 220.339 237.842 221.134 237.996C221.928 238.149 222.442 238.892 222.283 239.656C221.584 243.001 219.702 246.189 216.672 249.216C213.652 252.233 207.806 255.467 199.078 258.999C198.331 259.302 197.471 258.965 197.157 258.247Z" fill="#00160A"/>
<path fill-rule="evenodd" clip-rule="evenodd" d="M233.032 112.975C233.728 112.576 234.628 112.796 235.042 113.465C239.191 120.165 241.413 127.824 241.413 135.792C241.413 159.932 221.057 179.502 195.947 179.502C189.274 179.502 182.803 178.118 176.876 175.482C176.141 175.156 173.364 172.552 176.161 173.611C178.958 174.67 189.78 177.047 196.025 177.047C219.515 177.047 236.133 158.375 236.133 135.792C236.133 128.335 233.032 121.716 232.522 114.908C232.463 114.118 232.336 113.373 233.032 112.975Z" fill="#00160A"/>
<path fill-rule="evenodd" clip-rule="evenodd" d="M87.7764 219.69C88.2949 219.092 89.2197 217.883 89.8421 218.381C92.3953 220.426 95.12 222.794 98.0345 223.252C101.067 223.727 104.665 223.727 108.824 223.243C109.628 223.15 110.359 223.701 110.456 224.474C110.553 225.247 109.98 225.949 109.176 226.043C104.76 226.557 100.89 226.557 97.5621 226.035C94.1154 225.494 90.9101 224.034 87.9647 221.676C87.3423 221.178 87.258 220.288 87.7764 219.69Z" fill="#00160A"/>
<path d="M118.917 170.359C117.023 168.902 112.971 164.606 109.903 160.819C108.313 158.817 106.533 154.739 105.472 150.625C104.98 148.768 104.488 147.093 104.374 146.875C104.223 146.693 103.617 144.108 103.011 141.122C102.102 136.899 102.294 135.538 101.496 130.486C101.158 128.347 100.852 126.645 100.852 126.645L101.837 125.43C102.405 124.702 103.123 123.497 103.389 122.808C104.601 119.673 113.501 109.847 113.766 110.102C113.842 110.174 113.539 111.886 113.009 113.888C112.517 115.891 111.911 118.913 111.646 120.624C111.267 123.464 111.115 123.791 109.941 124.738C108.464 125.94 105.662 129.799 105.662 130.6C105.662 131.692 107.366 130.964 109.146 129.18L110.964 127.36V129.362C110.964 130.673 110.699 131.874 110.206 132.821C109.26 134.605 109.26 136.498 110.169 137.955C110.623 138.683 111.04 140.43 111.305 142.506C112.479 151.899 114.978 160.055 119.258 168.247C120.318 170.286 121.152 171.961 121.114 171.961C121.038 171.961 120.053 171.232 118.917 170.359Z" fill="white"/>
<path fill-rule="evenodd" clip-rule="evenodd" d="M276.504 192.823L279.231 193.988C279.796 194.239 286.034 197.12 293.526 200.581C305.606 206.161 320.948 213.249 321.042 213.249C321.193 213.249 321.904 211.669 322.064 209.826C322.443 205.857 323.844 200.469 325.473 196.719C326.23 195.044 326.836 192.951 326.836 192.769C326.836 192.686 326.221 192.447 325.213 192.056C324.013 191.591 322.257 190.91 320.322 190.02C310.778 185.614 292.107 176.621 289.797 175.274C287.525 174 287.07 173.89 287.07 174.728C287.07 175.82 284.76 180.881 282.98 183.612C282.033 185.104 280.178 187.799 278.852 189.583L276.504 192.823ZM320.398 206.695C321.484 207.3 319.603 208.188 319.148 208.333C316.472 208.552 313.322 208.068 310.741 206.622C309.391 205.702 298.764 200.026 291.714 196.261C288.492 194.54 286.017 193.218 285.518 192.932C283.927 192.022 282.412 191.039 282.147 190.748C281.352 189.765 282.109 189.328 284.344 189.51C285.687 189.619 318.052 205.388 320.398 206.695Z" fill="#FF3737"/>
<path d="M249.312 196.1C248.327 195.772 247.266 195.044 246.585 194.207L245.449 192.859L249.463 189.037C255.636 183.211 260.181 176.845 264.271 169.745C265.635 167.378 269.687 157.834 270.179 156.778C270.937 155.249 271.505 154.666 273.133 153.793C275.065 152.7 277.261 152.336 278.208 152.955C280.026 154.12 280.026 157.798 278.208 164.133C276.201 171.087 273.512 176.075 267.945 183.247C267.074 184.34 265.445 186.488 264.271 187.981C261.128 191.986 259.083 193.915 256.318 195.408C253.591 196.864 252.001 197.047 249.312 196.1Z" fill="#FF3737"/>
<path d="M263.589 195.262L262.794 194.498C262.794 194.498 275.994 178.375 278.36 172.434C280.165 167.9 281.227 166.615 282.66 166.615C283.462 166.615 284.116 166.791 284.419 167.227C284.949 167.992 285.46 168.939 284.779 172.179C283.642 177.422 281.9 180.881 276.674 188.345C275.462 190.056 273.909 191.949 273.228 192.605C271.637 194.025 268.058 195.481 265.975 195.809C264.65 195.991 264.271 195.918 263.589 195.262Z" fill="#FF3737"/>
<path fill-rule="evenodd" clip-rule="evenodd" d="M285.762 178.403C286.526 176.723 287.07 175.258 287.07 174.728C287.07 173.89 287.525 174 289.797 175.274C292.107 176.621 310.778 185.614 320.322 190.02C323.882 191.658 326.836 192.587 326.836 192.769C326.836 192.951 284.952 180.184 285.762 178.403Z" fill="#813131"/>
<path fill-rule="evenodd" clip-rule="evenodd" d="M156.183 180.48C151.374 177.458 144.102 170.359 140.58 165.298C135.543 158.016 132.21 150.224 130.582 141.85C129.408 135.77 129.446 126.413 130.62 120.988C131.832 115.454 133.384 111.23 136.149 105.878C139.368 99.6886 142.777 95.1375 147.889 90.2223C152.903 85.4022 130.62 105.335 136.149 140.999C140.58 170.886 159.623 182.659 156.183 180.48Z" fill="#E7EAEE"/>
</svg>
