<svg width="42" height="42" viewBox="0 0 42 42" fill="none" xmlns="http://www.w3.org/2000/svg">
<g clip-path="url(#clip0_99_89)">
<path d="M17.0626 11.7652C21.4306 7.37357 32.3532 15.0569 17.0626 24.9374C1.77193 15.0569 12.6946 7.3762 17.0626 11.7652Z" fill="#64FCD9"/>
<path d="M34.125 17.0625C34.1307 20.6924 32.9734 24.2287 30.8228 27.153C30.9278 27.2317 31.0275 27.3157 31.1246 27.4102L41.2309 37.5165C41.7234 38.0087 42.0003 38.6764 42.0005 39.3727C42.0008 40.0691 41.7244 40.737 41.2322 41.2295C40.74 41.7221 40.0723 41.9989 39.3759 41.9992C38.6796 41.9994 38.0117 41.7231 37.5191 41.2308L27.4129 31.1246C27.3179 31.0308 27.2301 30.9298 27.1504 30.8227H27.1556C24.0629 33.0918 20.2958 34.2525 16.4624 34.1176C12.6289 33.9827 8.95276 32.56 6.0272 30.0791C3.10164 27.5983 1.09736 24.204 0.337845 20.4441C-0.421671 16.6842 0.107888 12.7781 1.84105 9.35616C3.57422 5.93422 6.40987 3.19611 9.89036 1.58373C13.3708 -0.0286409 17.2931 -0.421205 21.0241 0.469399C24.7551 1.36 28.0772 3.48182 30.4541 6.49239C32.8311 9.50296 34.1243 13.2267 34.125 17.0625ZM17.0625 31.5C18.9585 31.5 20.8359 31.1265 22.5875 30.401C24.3392 29.6754 25.9307 28.612 27.2714 27.2713C28.612 25.9307 29.6755 24.3391 30.401 22.5875C31.1266 20.8358 31.5 18.9584 31.5 17.0625C31.5 15.1665 31.1266 13.2891 30.401 11.5375C29.6755 9.78584 28.612 8.19427 27.2714 6.85362C25.9307 5.51297 24.3392 4.44952 22.5875 3.72396C20.8359 2.99841 18.9585 2.62497 17.0625 2.62497C13.2335 2.62497 9.56122 4.14606 6.85367 6.85362C4.14611 9.56118 2.62502 13.2334 2.62502 17.0625C2.62502 20.8915 4.14611 24.5638 6.85367 27.2713C9.56122 29.9789 13.2335 31.5 17.0625 31.5Z" fill="#FF3737"/>
</g>
<defs>
<clipPath id="clip0_99_89">
<rect width="42" height="42" fill="white"/>
</clipPath>
</defs>
</svg>
