<svg width="19" height="19" viewBox="0 0 19 19" fill="none" xmlns="http://www.w3.org/2000/svg">
<g clip-path="url(#clip0_101_303)">
<path d="M9.37012 14.1387L4.62012 15.9571C4.40117 16.0387 4.1711 15.8717 4.18223 15.6379L4.44199 10.5577C4.4457 10.4797 4.41973 10.4018 4.37149 10.3387L1.17266 6.38286C1.02422 6.20103 1.11328 5.93013 1.33965 5.86704L6.25293 4.54595C6.33086 4.52368 6.39766 4.47544 6.43848 4.40864L9.21426 0.148486C9.34043 -0.0481934 9.62988 -0.0481934 9.75606 0.148486L12.5318 4.41235C12.5764 4.47915 12.6432 4.52739 12.7174 4.54966L17.6307 5.87075C17.857 5.93013 17.9461 6.20474 17.7977 6.38657L14.6025 10.3424C14.5543 10.4055 14.5283 10.4834 14.532 10.5614L14.7918 15.6417C14.8029 15.8754 14.5729 16.0424 14.3539 15.9608L9.60391 14.1424C9.52598 14.1127 9.44434 14.1127 9.37012 14.1387Z" fill="#FFB636"/>
<path d="M16.9256 1.91858L15.4041 0.397098C15.3596 0.352567 15.3002 0.334012 15.2408 0.341434C15.1814 0.348856 15.1258 0.385965 15.0961 0.437919L13.5264 3.52913C13.4818 3.60706 13.4967 3.69983 13.5598 3.76292C13.5969 3.80003 13.6488 3.81858 13.6971 3.81858C13.7305 3.81858 13.7639 3.81116 13.7936 3.79261L16.8811 2.22659C16.933 2.1969 16.9701 2.14495 16.9775 2.08186C16.9887 2.02249 16.9664 1.96311 16.9256 1.91858ZM5.53301 3.53284L3.96328 0.441629C3.9336 0.389676 3.88164 0.352567 3.81856 0.345145C3.75918 0.337723 3.6961 0.356278 3.65528 0.400809L2.13379 1.92229C2.08926 1.96682 2.07071 2.0262 2.07813 2.08557C2.08555 2.14495 2.12266 2.20061 2.17461 2.2303L5.26582 3.80003C5.29551 3.81858 5.32891 3.826 5.36231 3.826C5.41426 3.826 5.4625 3.80745 5.49961 3.77034C5.5627 3.70354 5.57383 3.60706 5.53301 3.53284ZM10.7543 18.7477L9.67813 15.4524C9.67071 15.419 9.65215 15.3893 9.62989 15.367C9.59278 15.3299 9.54454 15.3114 9.49258 15.3114C9.40352 15.3114 9.3293 15.3707 9.30332 15.4561L8.22715 18.7514C8.21231 18.8108 8.22344 18.8739 8.26055 18.9221C8.29766 18.9703 8.35332 19 8.41641 19H10.565C10.6244 19 10.6838 18.9703 10.7209 18.9221C10.7617 18.8701 10.7729 18.8071 10.7543 18.7477Z" fill="#FFD469"/>
</g>
<defs>
<clipPath id="clip0_101_303">
<rect width="19" height="19" fill="white"/>
</clipPath>
</defs>
</svg>
