<svg width="597" height="566" viewBox="0 0 597 566" fill="none" xmlns="http://www.w3.org/2000/svg">
<path fill-rule="evenodd" clip-rule="evenodd" d="M471.827 258.422C472.821 392.272 419.26 490.051 316.861 495.603C242.228 499.649 286.874 371.645 193.336 286.657C133.462 232.256 93.9445 90.9091 241.51 54.3623C389.075 17.8157 470.833 124.572 471.827 258.422Z" fill="#64FCD9"/>
<path d="M169.654 452.78C160.364 434.061 161.882 411.41 163.799 390.217C168.21 341.47 175.002 288.976 206.238 253.852C214.5 244.562 224.584 236.686 236.157 233.889C245.125 231.722 253.764 227.94 261.622 222.742C263.516 210.617 253.08 201.07 245.788 191.702C237.623 181.211 232.529 167.906 231.425 154.185C230.771 146.063 229.211 134.997 221.759 134.65C215.633 134.366 211.022 126.286 213.481 120.147C215.94 114.007 224.499 112.231 228.845 116.958C222.645 91.5507 235.743 62.2363 257.885 51.9599C254.275 46.3158 262.155 39.5516 268.412 40.36C274.669 41.1684 280.725 45.2996 286.869 43.7733C284.763 39.7208 288.137 34.3365 292.293 33.2984C296.45 32.2603 300.715 34.2327 304.443 36.4937C328.375 51.0073 344.19 80.2766 344.265 110.193C344.884 104.733 352.381 102.863 356.047 106.633C359.714 110.403 359.539 117.15 356.936 121.859C354.332 126.569 349.895 129.66 345.502 132.348C345.613 152.187 338.711 171.976 326.546 186.699C317.693 197.412 305.151 208.776 308.056 222.858C312.765 221.719 317.529 227.658 315.881 232.613C336.072 230.774 354.914 244.096 369.219 259.78C390.189 282.773 405.261 312.127 412.293 343.671C413.521 349.181 420.692 350.683 425.129 347.743C429.566 344.804 431.846 339.244 433.868 334.021L473.808 230.847C471.233 216.948 473.316 202.582 475.402 188.585L482.326 142.132C482.955 137.915 485.653 132.351 489.215 134.109C490.446 134.716 491.132 136.03 491.567 137.476C491.768 138.147 491.915 138.847 492.037 139.518C494.196 151.429 494.886 163.658 494.083 175.769L507.909 149.915C510.146 145.732 514.782 141.104 518.243 142.834C519.544 143.113 520.426 144.532 520.612 145.979C521.105 147.946 520.687 150.311 520.124 152.352C517.602 161.491 513.491 170.102 508.075 177.59C515.377 180.313 523.834 184.447 525.112 192.763C524.354 207.841 514.187 225.15 506.692 234.137C508.412 233.002 509.536 236.378 509.194 238.542C500.973 290.538 480.938 340.253 451.391 381.98C442.671 394.294 432.545 403.824 416.659 405.542C395.011 407.884 380.816 372.978 369.06 373.912C369.06 373.912 358.059 435.995 350.095 444.287C342.13 452.579 289.791 469.992 274.018 464.187C258.246 458.383 242.47 473.905 221.759 472.349C200.294 470.736 169.654 452.78 169.654 452.78Z" fill="white"/>
<path d="M498.592 245.374C498.404 245.1 498.276 244.778 498.221 244.441C498.015 243.168 499.057 241.837 500.239 241.863C501.421 241.889 502.413 243.265 502.16 244.528C501.907 245.79 500.479 246.586 499.395 246.069C499.079 245.918 498.799 245.676 498.592 245.374V245.374Z" fill="#FF3737"/>
<path d="M305.663 112.614C304.86 112.416 304.469 111.315 304.691 110.448C304.913 109.581 305.565 108.931 306.239 108.412C310.824 104.879 317.799 105.794 321.49 110.411C321.784 110.779 322.073 111.211 322.058 111.699C322.044 112.187 321.555 112.661 321.159 112.435C319.081 111.25 316.963 110.05 314.657 109.593C312.351 109.135 309.786 109.527 308.031 111.224C307.33 111.902 306.575 112.839 305.663 112.614V112.614Z" fill="#00160A"/>
<path d="M266.303 112.443C266.051 113.289 265.043 113.599 264.258 113.359C263.474 113.12 262.844 112.501 262.179 111.987C259.993 110.297 257.221 109.651 254.549 109.841C251.877 110.03 249.293 111.008 246.9 112.32C246.351 112.621 245.699 111.923 245.732 111.253C245.766 110.584 246.227 110.04 246.692 109.602C249.181 107.259 252.565 106.188 255.846 106.373C259.127 106.558 262.299 107.935 265.001 109.978C265.769 110.558 266.591 111.472 266.303 112.443Z" fill="black"/>
<path d="M499.72 254.829C499.442 255.235 499.043 255.521 498.639 255.771C498.219 256.031 497.758 256.268 497.277 256.228C496.638 256.174 496.105 255.625 495.842 254.986C495.194 253.414 496.295 251.264 497.871 251.203C499.448 251.142 500.665 253.448 499.72 254.829V254.829Z" fill="#FF3737"/>
<path d="M359.41 320.387C360.176 320.771 359.63 322.123 358.849 322.469C358.068 322.814 357.084 322.825 356.575 323.558C356.213 324.081 356.228 324.797 356.264 325.451C356.338 326.788 356.415 328.207 355.832 329.385C355.25 330.563 353.73 331.29 352.759 330.474C351.866 329.726 351.946 328.272 351.915 327.043C351.884 325.814 351.319 324.275 350.195 324.331C344.694 324.606 339.193 324.881 333.692 325.156C332.995 325.19 332.202 325.185 331.726 324.626C331.075 323.86 331.517 322.509 332.339 321.975C333.161 321.44 334.181 321.484 335.136 321.545C339.178 321.8 343.22 322.055 347.262 322.31C347.889 322.35 348.548 322.384 349.116 322.089C349.684 321.794 350.112 321.053 349.881 320.414C349.264 318.7 350.084 316.53 351.628 315.792C352.165 315.536 352.408 314.86 352.541 314.237C352.674 313.614 352.769 312.936 353.175 312.475C353.581 312.014 354.433 311.985 354.646 312.581C355.138 313.955 356.341 314.843 357.187 315.993C358.033 317.144 358.424 319.055 357.353 319.954C357.413 320.798 358.707 320.034 359.41 320.387Z" fill="black"/>
<path d="M251.825 165.181C251.058 165.13 250.739 163.785 251.387 163.333C252.203 163.27 252.561 164.796 251.819 165.17L251.825 165.181Z" fill="#FF5151"/>
<path d="M313.185 144.131C312.965 143.697 313.195 143.07 313.629 142.923C314.063 142.777 314.577 143.151 314.62 143.646C314.5 144.289 313.641 144.581 313.208 144.126L313.185 144.131Z" fill="#FF5151"/>
<path d="M310.611 135.845C310.287 136.546 309.114 136.351 308.996 135.575C309.233 135.222 309.574 134.953 309.955 134.818C310.278 135.078 310.527 135.447 310.658 135.861L310.611 135.845Z" fill="#FF5151"/>
<path d="M294.909 167.101C295.39 167.066 295.876 167.381 296.078 167.859C295.916 168.4 295.302 168.775 294.841 168.51C294.38 168.244 294.424 167.315 294.936 167.207L294.909 167.101Z" fill="#FF5151"/>
<path d="M309.317 167.884C309.554 167.238 310.655 167.485 310.64 168.181C310.308 168.541 309.877 168.791 309.418 168.889C309.048 168.751 308.956 168.113 309.269 167.857L309.317 167.884Z" fill="#FF5151"/>
<path d="M284.516 138.703C284.03 138.706 283.673 139.388 283.918 139.847C284.163 140.305 284.882 140.302 285.123 139.841C285.363 139.38 285.001 138.701 284.516 138.703Z" fill="#FF5151"/>
<path d="M255.233 146.792C254.842 146.472 254.176 146.783 254.118 147.314C254.06 147.845 254.639 148.319 255.089 148.109C255.538 147.898 255.624 147.113 255.233 146.792Z" fill="#FF5151"/>
<path d="M320.675 148.067C320.208 148.235 319.677 147.663 319.818 147.147C319.958 146.631 320.677 146.463 321.004 146.866C321.33 147.268 321.102 148.021 320.622 148.138L320.675 148.067Z" fill="#FF5151"/>
<path d="M281.726 163.855C281.545 163.358 280.828 163.244 280.525 163.663C280.222 164.083 280.49 164.819 280.974 164.896C281.458 164.973 281.907 164.352 281.726 163.855Z" fill="#FF5151"/>
<path d="M280.961 176.986C280.621 177.095 280.358 176.642 280.3 176.26C280.636 175.565 281.798 175.759 281.929 176.532C281.723 176.871 281.327 177.058 280.96 176.989L280.961 176.986Z" fill="#FF5151"/>
<path d="M285.604 176.364C285.077 176.507 284.335 176.225 284.388 175.634C284.702 175.279 285.193 175.023 285.603 175.233C286.012 175.442 286.035 176.265 285.589 176.346L285.604 176.364Z" fill="#FF5151"/>
<path d="M309.417 176.093C309.199 175.918 309.05 175.644 309.012 175.351C309.24 174.994 309.58 174.723 309.961 174.595C310.186 174.844 310.411 175.092 310.636 175.34C310.387 175.807 309.909 176.116 309.415 176.129L309.417 176.093Z" fill="#FF5151"/>
<path d="M288.613 140.193C288.228 140.765 287.225 140.486 287.136 139.783C287.464 139.022 288.768 139.361 288.747 140.202L288.613 140.193Z" fill="#FF5151"/>
<path d="M299.296 168.306C298.86 168.765 297.978 168.286 298.049 167.629C298.12 166.972 299.081 166.732 299.406 167.29C299.166 167.483 299.069 167.862 299.182 168.163L299.296 168.306Z" fill="#FF5151"/>
<path d="M272.707 138.92C273.175 138.752 273.706 139.324 273.565 139.84C273.425 140.356 272.706 140.524 272.379 140.121C272.052 139.718 272.281 138.966 272.761 138.848L272.707 138.92Z" fill="#FF5151"/>
<path d="M284.124 155.626C284.583 155.207 285.418 155.572 285.486 156.221C285.172 156.533 284.743 156.79 284.336 156.656C283.93 156.522 283.737 155.818 284.107 155.589L284.124 155.626Z" fill="#FF5151"/>
<path d="M294.539 159.818C294.854 159.118 296.02 159.302 296.141 160.07C295.792 160.769 294.625 160.581 294.474 159.803L294.539 159.818Z" fill="#FF5151"/>
<path d="M295.183 163.83C295.505 163.311 296.422 163.647 296.393 164.274C296.184 164.636 295.848 164.907 295.47 165.02C295.093 164.799 294.939 164.217 295.151 163.811L295.183 163.83Z" fill="#FF5151"/>
<path d="M310.374 139.454C310.074 139.026 309.349 139.13 309.16 139.628C308.972 140.126 309.416 140.76 309.905 140.69C310.394 140.62 310.674 139.882 310.374 139.454Z" fill="#FF5151"/>
<path d="M302.588 179.109C302.681 178.642 303.431 178.868 303.478 179.343C303.525 179.817 303.173 180.215 302.85 180.536C302.605 180.364 302.346 180.173 302.242 179.876C302.139 179.58 302.294 179.162 302.584 179.153L302.588 179.109Z" fill="#FF5151"/>
<path d="M266.404 135.441C266.223 134.944 265.506 134.83 265.203 135.249C264.9 135.669 265.167 136.405 265.651 136.482C266.136 136.56 266.585 135.938 266.404 135.441Z" fill="#FF5151"/>
<path d="M285.028 179.109C284.78 178.679 284.092 178.708 283.875 179.158C283.658 179.607 284.025 180.244 284.49 180.225C284.954 180.206 285.276 179.54 285.028 179.109Z" fill="#FF5151"/>
<path d="M254.542 163.096C254.803 162.773 255.338 163.166 255.327 163.597C255.315 164.029 254.997 164.366 254.702 164.652C254.066 164.541 253.958 163.351 254.562 163.106L254.542 163.096Z" fill="#FF5151"/>
<path d="M288.626 172.213C288.356 172.395 288.087 172.577 287.818 172.759C287.326 172.562 287.268 171.668 287.73 171.397C288.192 171.125 288.842 171.671 288.721 172.229L288.626 172.213Z" fill="#FF5151"/>
<path d="M319.998 163.519C319.847 163.01 320.757 162.846 320.936 163.343C321.115 163.841 320.753 164.378 320.35 164.681C319.951 164.487 319.693 163.996 319.741 163.522L319.998 163.519Z" fill="#FF5151"/>
<path d="M309.008 163.983C309.303 163.518 309.949 163.374 310.387 163.676C310.501 164.373 309.694 165.014 309.123 164.679C309.067 164.45 309.011 164.221 308.955 163.992L309.008 163.983Z" fill="#FF5151"/>
<path d="M265.593 159.258C266.061 159.09 266.592 159.663 266.451 160.178C266.311 160.694 265.592 160.862 265.265 160.459C264.939 160.057 265.167 159.304 265.647 159.187L265.593 159.258Z" fill="#FF5151"/>
<path d="M316.369 131.979C316.374 131.531 316.802 131.148 317.205 131.231C317.609 131.314 317.88 131.84 317.736 132.26C317.312 132.611 316.631 132.502 316.316 132.033L316.369 131.979Z" fill="#FF5151"/>
<path d="M305.993 155.605C306.387 155.258 307.091 155.65 307.067 156.203C306.72 156.792 305.796 156.792 305.448 156.203C305.63 156.004 305.812 155.806 305.994 155.607L305.993 155.605Z" fill="#FF5151"/>
<path d="M261.244 167.41C261.642 166.95 262.432 167.029 262.748 167.56C262.508 167.921 262.194 168.291 261.786 168.313C261.378 168.334 260.993 167.754 261.275 167.432L261.244 167.41Z" fill="#FF5151"/>
<path d="M320.769 172.054C320.606 172.291 320.357 172.455 320.09 172.5C319.603 172.196 319.604 171.248 320.127 171.028C320.65 170.808 321.215 171.696 320.796 172.103L320.769 172.054Z" fill="#FF5151"/>
<path d="M255.023 172.296C255.405 172.006 255.347 171.255 254.926 171.038C254.505 170.821 253.938 171.252 253.977 171.759C254.016 172.266 254.641 172.587 255.023 172.296Z" fill="#FF5151"/>
<path d="M320.555 156.847C320.173 157.274 319.528 156.387 319.898 155.948C320.268 155.508 320.984 155.733 321.314 156.209C321.087 156.457 320.86 156.705 320.632 156.953L320.555 156.847Z" fill="#FF5151"/>
<path d="M250.772 136.456C250.668 135.731 251.742 135.257 252.127 135.859C251.807 136.318 251.487 136.777 251.167 137.237C250.934 137.059 250.773 136.774 250.731 136.468L250.772 136.456Z" fill="#FF5151"/>
<path d="M254.888 156.847C254.506 157.274 253.861 156.387 254.231 155.948C254.601 155.508 255.317 155.733 255.647 156.209C255.42 156.457 255.193 156.705 254.965 156.953L254.888 156.847Z" fill="#FF5151"/>
<path d="M313.167 136.117C312.84 135.777 312.904 135.101 313.287 134.841C313.67 134.58 314.253 134.816 314.387 135.287C314.197 135.762 313.714 136.076 313.241 136.031L313.167 136.117Z" fill="#FF5151"/>
<path d="M264.972 139.774C265.274 139.184 266.178 139.15 266.516 139.715C266.41 140.542 265.056 140.587 264.904 139.768L264.972 139.774Z" fill="#FF5151"/>
<path d="M292.528 143.189C292.536 143.611 292.402 144.034 292.158 144.36C291.733 144.621 291.164 144.037 291.311 143.529C291.458 143.021 292.116 142.839 292.52 143.137L292.528 143.189Z" fill="#FF5151"/>
<path d="M281.369 171.655C281.232 171.175 280.568 171.012 280.257 171.382C279.946 171.751 280.148 172.461 280.597 172.571C281.045 172.681 281.506 172.134 281.369 171.655Z" fill="#FF5151"/>
<path d="M295.673 175.607C295.871 176.175 295.479 176.888 294.928 176.965C294.564 176.796 294.394 176.256 294.586 175.878C294.778 175.5 295.288 175.373 295.611 175.622L295.673 175.607Z" fill="#FF5151"/>
<path d="M272.31 179.831C272.31 179.287 272.605 178.755 273.045 178.501C273.365 178.85 273.594 179.389 273.398 179.834C273.203 180.279 272.449 180.292 272.383 179.804L272.31 179.831Z" fill="#FF5151"/>
<path d="M313.322 175.303C313.705 174.876 314.35 175.763 313.98 176.202C313.61 176.642 312.894 176.417 312.563 175.941C312.79 175.693 313.018 175.445 313.245 175.197L313.322 175.303Z" fill="#FF5151"/>
<path d="M280.763 139.412C281.145 138.985 281.79 139.872 281.42 140.311C281.05 140.751 280.334 140.526 280.003 140.05C280.231 139.802 280.458 139.554 280.685 139.306L280.763 139.412Z" fill="#FF5151"/>
<path d="M258.259 164.43C257.98 164.1 258.36 163.517 258.772 163.532C259.183 163.546 259.505 163.918 259.734 164.292C259.409 164.81 258.635 164.888 258.229 164.444L258.259 164.43Z" fill="#FF5151"/>
<path d="M266.175 150.642C266.565 150.608 266.721 151.275 266.454 151.587C266.187 151.898 265.743 151.913 265.355 151.863C265.001 151.336 265.617 150.467 266.172 150.711L266.175 150.642Z" fill="#FF5151"/>
<path d="M285.334 188.054C284.928 188.621 283.925 188.329 283.829 187.617C284.176 186.945 285.338 187.285 285.331 188.056L285.334 188.054Z" fill="#FF5151"/>
<path d="M265.184 164.657C264.967 164.193 265.253 163.533 265.724 163.455C266.195 163.378 266.65 163.968 266.474 164.452C266.298 164.936 265.554 164.993 265.342 164.526L265.184 164.657Z" fill="#FF5151"/>
<path d="M280.688 180.276C280.346 180.396 280.1 179.919 280.009 179.54C280.359 178.951 281.28 178.945 281.637 179.529C281.404 179.884 281.067 180.155 280.689 180.295L280.688 180.276Z" fill="#FF5151"/>
<path d="M283.778 147.826C283.91 147.057 285.049 146.838 285.413 147.512C285.242 148.232 284.21 148.451 283.805 147.853L283.778 147.826Z" fill="#FF5151"/>
<path d="M320.769 159.99C320.632 159.511 319.969 159.348 319.657 159.717C319.346 160.086 319.549 160.796 319.997 160.907C320.445 161.017 320.906 160.47 320.769 159.99Z" fill="#FF5151"/>
<path d="M289.032 164.581C288.638 164.928 287.934 164.536 287.958 163.984C288.304 163.395 289.229 163.394 289.576 163.983C289.394 164.182 289.212 164.381 289.03 164.579L289.032 164.581Z" fill="#FF5151"/>
<path d="M281.23 186.868C281.572 186.748 281.818 187.224 281.908 187.604C281.558 188.192 280.637 188.198 280.281 187.614C280.514 187.26 280.85 186.988 281.228 186.849L281.23 186.868Z" fill="#FF5151"/>
<path d="M324.873 131.38C325.052 131.576 325.232 131.772 325.411 131.968C325.093 132.499 324.272 132.684 323.952 132.155C323.632 131.626 324.532 130.874 324.796 131.439L324.873 131.38Z" fill="#FF5151"/>
<path d="M309.435 144.365C309.788 144.703 310.446 144.459 310.538 143.957C310.629 143.454 310.107 142.953 309.663 143.117C309.218 143.282 309.083 144.027 309.435 144.365Z" fill="#FF5151"/>
<path d="M287.544 176.112C287.686 175.753 288.202 175.671 288.431 175.971C288.687 176.423 288.454 177.153 287.97 177.214C287.486 177.274 287.155 176.417 287.579 176.156L287.544 176.112Z" fill="#FF5151"/>
<path d="M265.634 167.427C265.976 167.307 266.222 167.784 266.313 168.164C266.084 168.52 265.745 168.791 265.365 168.923C265.15 168.738 265 168.464 264.953 168.169C265.181 167.919 265.409 167.67 265.636 167.421L265.634 167.427Z" fill="#FF5151"/>
<path d="M314.438 156.334C314.533 157.031 313.6 157.567 313.129 157.085C312.928 156.387 313.982 155.741 314.339 156.36L314.438 156.334Z" fill="#FF5151"/>
<path d="M277.395 155.768C277.708 155.977 277.881 156.41 277.81 156.803C277.421 156.968 276.992 157.02 276.579 156.954C276.451 156.734 276.403 156.461 276.446 156.205C276.764 156.056 277.083 155.906 277.402 155.756L277.395 155.768Z" fill="#FF5151"/>
<path d="M295.479 171.597C295.621 171.916 295.654 172.291 295.572 172.635C295.2 172.988 294.503 172.661 294.482 172.123C294.46 171.585 295.128 171.192 295.527 171.508L295.479 171.597Z" fill="#FF5151"/>
<path d="M318.013 164.55C317.58 164.98 316.746 164.638 316.68 164.002C316.824 163.634 317.254 163.437 317.595 163.582C317.936 163.727 318.131 164.191 318.01 164.568L318.013 164.55Z" fill="#FF5151"/>
<path d="M281.365 135.861C281.615 136.045 281.727 136.425 281.621 136.734C281.244 137.123 280.488 136.992 280.359 136.444C280.229 135.895 281.063 135.43 281.316 135.924L281.365 135.861Z" fill="#FF5151"/>
<path d="M255.136 160.237C255.16 159.734 254.587 159.328 254.177 159.557C253.767 159.786 253.731 160.531 254.118 160.805C254.505 161.079 255.112 160.74 255.136 160.237Z" fill="#FF5151"/>
<path d="M291.617 157.353C291.165 157.196 291.131 156.375 291.55 156.13C291.968 155.884 292.55 156.281 292.582 156.799C292.386 157.138 291.991 157.324 291.631 157.246L291.617 157.353Z" fill="#FF5151"/>
<path d="M254.397 139.4C254.093 138.954 255.038 138.573 255.253 139.077C255.467 139.58 255.087 140.149 254.673 140.472C254.373 140.261 254.213 139.836 254.29 139.455L254.397 139.4Z" fill="#FF5151"/>
<path d="M284.925 172.055C284.761 172.293 284.511 172.456 284.242 172.501C284.025 172.328 283.877 172.055 283.841 171.763C284.059 171.406 284.398 171.139 284.777 171.026C285.149 171.166 285.249 171.803 284.94 172.069L284.925 172.055Z" fill="#FF5151"/>
<path d="M317.212 172.356C316.893 172.505 316.574 172.655 316.255 172.804C316.037 172.616 315.885 172.339 315.834 172.041C316.116 171.787 316.443 171.527 316.808 171.559C317.172 171.591 317.487 172.1 317.246 172.401L317.212 172.356Z" fill="#FF5151"/>
<path d="M291.691 175.069C292.003 175.246 292.315 175.423 292.626 175.6C292.287 175.992 291.837 176.269 291.355 176.383C291.137 176.21 290.987 175.937 290.95 175.646C291.111 175.408 291.362 175.245 291.63 175.203L291.691 175.069Z" fill="#FF5151"/>
<path d="M255.098 175.341C255.348 175.525 255.46 175.905 255.354 176.214C254.978 176.603 254.222 176.472 254.092 175.924C253.962 175.375 254.796 174.91 255.049 175.404L255.098 175.341Z" fill="#FF5151"/>
<path d="M280.591 160.683C280.701 161.397 281.948 161.169 281.838 160.455C281.729 159.741 280.482 159.97 280.591 160.683Z" fill="#FF5151"/>
<path d="M294.765 142.629C295.354 142.561 295.848 143.38 295.559 143.945C295.273 144.185 294.808 144.107 294.601 143.784C294.394 143.46 294.486 142.956 294.79 142.744L294.765 142.629Z" fill="#FF5151"/>
<path d="M251.216 160.045C251.537 159.694 252.149 160.224 252.007 160.695C251.864 161.166 251.269 161.316 250.864 161.093C250.591 160.752 250.756 160.125 251.152 159.993L251.216 160.045Z" fill="#FF5151"/>
<path d="M280.68 151.563C281.011 151.047 281.928 151.393 281.898 152.022C281.632 152.421 281.119 152.599 280.692 152.441C280.492 152.202 280.484 151.799 280.674 151.552L280.68 151.563Z" fill="#FF5151"/>
<path d="M313.514 139.011C313.737 139.171 313.884 139.451 313.897 139.742C313.664 140.384 312.572 140.152 312.577 139.461C312.763 139.118 313.161 138.93 313.517 139.016L313.514 139.011Z" fill="#FF5151"/>
<path d="M262.532 179.755C262.749 180.219 262.463 180.88 261.992 180.957C261.521 181.034 261.065 180.444 261.242 179.96C261.418 179.476 262.162 179.42 262.374 179.886L262.532 179.755Z" fill="#FF5151"/>
<path d="M272.476 171.623C272.931 171.569 273.514 171.593 273.687 172.056C273.482 172.412 273.146 172.676 272.771 172.775C272.555 172.646 272.325 172.5 272.225 172.254C272.126 172.007 272.249 171.644 272.496 171.637L272.476 171.623Z" fill="#FF5151"/>
<path d="M320.633 140.204C321.069 140.038 321.198 139.303 320.848 138.972C320.499 138.641 319.852 138.887 319.765 139.383C319.678 139.88 320.196 140.37 320.633 140.204Z" fill="#FF5151"/>
<path d="M302.977 143.346C303.464 143.671 303.156 144.691 302.588 144.635C302.264 144.515 302.069 144.084 302.178 143.73C302.286 143.375 302.679 143.159 303.004 143.276L302.977 143.346Z" fill="#FF5151"/>
<path d="M288.677 179.252C288.551 178.56 287.342 178.823 287.468 179.515C287.593 180.207 288.803 179.944 288.677 179.252Z" fill="#FF5151"/>
<path d="M257.644 140.037C257.77 140.729 258.98 140.466 258.854 139.774C258.728 139.082 257.519 139.344 257.644 140.037Z" fill="#FF5151"/>
<path d="M317.621 176.386C317.324 176.918 316.39 176.581 316.442 175.961C316.552 175.607 316.945 175.393 317.27 175.512C317.594 175.63 317.792 176.06 317.685 176.415L317.621 176.386Z" fill="#FF5151"/>
<path d="M254.81 134.915C255.282 134.72 255.833 135.353 255.63 135.859C255.213 136.103 254.684 136.104 254.266 135.862C254.321 135.496 254.54 135.164 254.84 134.992L254.81 134.915Z" fill="#FF5151"/>
<path d="M280.963 144.387C280.741 144.227 280.594 143.947 280.58 143.656C280.813 143.014 281.905 143.246 281.901 143.937C281.714 144.28 281.316 144.468 280.96 144.382L280.963 144.387Z" fill="#FF5151"/>
<path d="M302.177 168.765C301.966 168.348 302.324 167.747 302.76 167.783C303.195 167.819 303.468 168.462 303.218 168.852C302.967 169.243 302.328 169.187 302.132 168.761L302.177 168.765Z" fill="#FF5151"/>
<path d="M290.949 147.835C291.096 147.592 291.351 147.431 291.618 147.416C292.205 147.671 291.993 148.864 291.361 148.86C291.047 148.656 290.875 148.221 290.954 147.831L290.949 147.835Z" fill="#FF5151"/>
<path d="M321.236 135.109C321.268 135.361 321.299 135.612 321.331 135.863C320.907 136.099 320.381 136.101 319.957 135.868C319.942 135.209 320.703 134.701 321.233 135.016L321.236 135.109Z" fill="#FF5151"/>
<path d="M277.808 183.425C277.521 182.795 276.421 183.395 276.708 184.024C276.995 184.653 278.095 184.054 277.808 183.425Z" fill="#FF5151"/>
<path d="M303.274 151.402C302.819 150.907 301.955 151.858 302.41 152.352C302.865 152.847 303.729 151.896 303.274 151.402Z" fill="#FF5151"/>
<path d="M292.036 135.271C291.748 134.641 290.649 135.241 290.936 135.87C291.223 136.499 292.323 135.9 292.036 135.271Z" fill="#FF5151"/>
<path d="M317.245 168.451C316.967 167.796 315.822 168.377 316.1 169.032C316.378 169.687 317.523 169.106 317.245 168.451Z" fill="#FF5151"/>
<path d="M253.886 168.31C254.167 168.935 255.259 168.346 254.977 167.722C254.695 167.097 253.604 167.686 253.886 168.31Z" fill="#FF5151"/>
<path d="M299.15 180.127C299.004 180.371 298.748 180.531 298.482 180.547C297.894 180.292 298.107 179.098 298.739 179.103C299.053 179.307 299.225 179.742 299.145 180.131L299.15 180.127Z" fill="#FF5151"/>
<path d="M277.934 159.951C277.652 159.327 276.561 159.915 276.843 160.54C277.125 161.164 278.216 160.576 277.934 159.951Z" fill="#FF5151"/>
<path d="M313.505 147.386C313.851 147.781 313.484 148.578 312.988 148.508C312.627 148.394 312.428 147.881 312.604 147.518C312.78 147.156 313.281 147.048 313.569 147.311L313.505 147.386Z" fill="#FF5151"/>
<path d="M287.662 188.208C287.481 188.009 287.299 187.811 287.118 187.612C287.456 187.021 288.377 187.009 288.727 187.592C288.552 188.038 288.098 188.334 287.655 188.288L287.662 188.208Z" fill="#FF5151"/>
<path d="M321.453 144.092C321.272 144.29 321.09 144.488 320.908 144.686C320.368 144.317 320.357 143.31 320.89 142.928C321.298 143.119 321.569 143.615 321.527 144.099L321.453 144.092Z" fill="#FF5151"/>
<path d="M269.06 143.349C269.207 143.106 269.463 142.945 269.729 142.93C270.316 143.185 270.104 144.378 269.472 144.374C269.158 144.17 268.986 143.735 269.065 143.345L269.06 143.349Z" fill="#FF5151"/>
<path d="M255.746 144.397C255.407 144.597 254.926 144.405 254.785 144.014C254.643 143.622 254.874 143.123 255.247 143.015C255.745 143.105 256.018 143.859 255.71 144.297L255.746 144.397Z" fill="#FF5151"/>
<path d="M299.192 148.129C299.189 147.433 297.972 147.438 297.975 148.135C297.978 148.831 299.194 148.826 299.192 148.129Z" fill="#FF5151"/>
<path d="M292.309 172.059C292.022 171.43 290.922 172.029 291.209 172.659C291.497 173.288 292.596 172.689 292.309 172.059Z" fill="#FF5151"/>
<path d="M323.311 140.037C323.437 140.729 324.647 140.466 324.521 139.774C324.395 139.082 323.186 139.344 323.311 140.037Z" fill="#FF5151"/>
<path d="M287.238 159.931C287.639 159.471 288.433 159.554 288.747 160.089C288.522 160.445 288.185 160.714 287.806 160.839C287.52 160.635 287.304 160.317 287.208 159.958L287.238 159.931Z" fill="#FF5151"/>
<path d="M312.643 159.85C313.09 159.559 313.758 159.868 313.878 160.42C313.619 160.807 313.118 160.975 312.705 160.813C312.505 160.576 312.496 160.175 312.686 159.928L312.643 159.85Z" fill="#FF5151"/>
<path d="M287.715 155.887C287.555 155.566 287.919 155.17 288.25 155.22C288.582 155.27 288.822 155.589 288.984 155.909C288.734 156.472 287.863 156.493 287.591 155.941L287.715 155.887Z" fill="#FF5151"/>
<path d="M323.918 163.84C324.215 163.307 325.148 163.644 325.097 164.265C324.987 164.619 324.593 164.832 324.269 164.714C323.944 164.595 323.747 164.166 323.854 163.81L323.918 163.84Z" fill="#FF5151"/>
<path d="M284.243 159.659C284.625 159.428 285.175 159.82 285.142 160.296C285.109 160.771 284.521 161.07 284.164 160.796C283.807 160.522 283.857 159.824 284.247 159.609L284.243 159.659Z" fill="#FF5151"/>
<path d="M287.395 167.873C287.626 167.659 287.997 167.654 288.232 167.861C288.252 168.398 287.961 168.934 287.52 169.171C287.081 168.947 287.001 168.18 287.382 167.853L287.395 167.873Z" fill="#FF5151"/>
<path d="M319.659 168.485C320.114 168.98 320.978 168.029 320.523 167.534C320.067 167.04 319.204 167.991 319.659 168.485Z" fill="#FF5151"/>
<path d="M277.519 144.559C276.999 144.086 277.607 142.953 278.238 143.218C278.523 143.751 278.1 144.544 277.536 144.535L277.519 144.559Z" fill="#FF5151"/>
<path d="M277.661 139.613C277.379 138.989 276.288 139.577 276.569 140.201C276.851 140.826 277.942 140.238 277.661 139.613Z" fill="#FF5151"/>
<path d="M250.59 140.501C250.372 140.326 250.223 140.052 250.186 139.76C250.409 139.407 250.743 139.138 251.118 139.011C251.499 139.512 251.181 140.418 250.592 140.513L250.59 140.501Z" fill="#FF5151"/>
<path d="M312.987 172.885C312.556 172.883 312.229 172.293 312.433 171.879C312.637 171.464 313.277 171.444 313.497 171.848C313.717 172.253 313.386 172.862 312.956 172.838L312.987 172.885Z" fill="#FF5151"/>
<path d="M320.372 131.484C320.756 131.621 321.095 131.909 321.312 132.282C321.005 132.771 320.311 132.9 319.873 132.55C319.998 132.195 320.124 131.839 320.249 131.484L320.372 131.484Z" fill="#FF5151"/>
<path d="M284.242 167.871C284.249 167.458 284.653 167.111 285.022 167.202C285.39 167.294 285.618 167.797 285.461 168.173C285.035 168.49 284.379 168.337 284.108 167.857L284.242 167.871Z" fill="#FF5151"/>
<path d="M290.877 152.057C290.676 151.639 290.993 151.046 291.424 151.032C291.856 151.018 292.204 151.589 292.026 152.019C291.707 152.252 291.26 152.253 290.94 152.022L290.877 152.057Z" fill="#FF5151"/>
<path d="M262.423 135.732C262.29 136.294 261.548 136.541 261.151 136.155C261.002 135.809 261.163 135.336 261.492 135.205C261.821 135.074 262.237 135.349 262.262 135.731L262.423 135.732Z" fill="#FF5151"/>
<path d="M257.378 160.57C257.255 160.224 257.434 159.787 257.753 159.658C258.071 159.528 258.468 159.731 258.582 160.081C258.479 160.629 257.805 160.933 257.378 160.625L257.378 160.57Z" fill="#FF5151"/>
<path d="M269.194 168.616C268.978 168.436 268.828 168.163 268.784 167.87C269.01 167.626 269.235 167.382 269.461 167.139C270.045 167.412 269.83 168.597 269.196 168.607L269.194 168.616Z" fill="#FF5151"/>
<path d="M258.242 172.761C257.809 172.934 257.442 172.163 257.761 171.8C258.081 171.436 258.703 171.62 258.926 172.062C258.7 172.309 258.474 172.557 258.249 172.804L258.242 172.761Z" fill="#FF5151"/>
<path d="M257.701 136.616C257.382 136.187 257.741 135.415 258.246 135.445C258.561 135.65 258.735 136.084 258.658 136.476C258.365 136.632 258.023 136.678 257.703 136.603L257.701 136.616Z" fill="#FF5151"/>
<path d="M310.223 156.057C310.61 156.172 310.449 156.903 310.058 156.998C309.667 157.092 309.294 156.801 308.987 156.519C309.26 156.112 309.784 155.929 310.223 156.087L310.223 156.057Z" fill="#FF5151"/>
<path d="M316.745 156.446C316.532 156.275 316.319 156.105 316.106 155.934C316.441 155.32 317.393 155.301 317.748 155.901C317.558 156.243 317.161 156.43 316.803 156.346L316.745 156.446Z" fill="#FF5151"/>
<path d="M323.301 136.421C323.06 136.054 323.378 135.455 323.79 135.471C324.202 135.488 324.486 136.062 324.297 136.463C323.986 136.7 323.541 136.702 323.229 136.469L323.301 136.421Z" fill="#FF5151"/>
<path d="M299.155 160.693C298.762 161.04 298.058 160.648 298.083 160.096C298.214 159.848 298.47 159.685 298.732 159.683C299.1 159.827 299.33 160.3 299.234 160.714L299.155 160.693Z" fill="#FF5151"/>
<path d="M265.974 174.807C266.189 174.984 266.403 175.162 266.617 175.34C266.269 175.705 265.831 175.965 265.361 176.085C265.04 175.663 265.409 174.89 265.91 174.937L265.974 174.807Z" fill="#FF5151"/>
<path d="M262.485 143.346C262.198 142.717 261.099 143.316 261.386 143.946C261.673 144.575 262.773 143.976 262.485 143.346Z" fill="#FF5151"/>
<path d="M257.566 175.647C257.73 175.41 257.98 175.246 258.249 175.2C258.465 175.379 258.615 175.652 258.658 175.945C258.431 176.193 258.204 176.441 257.977 176.689C257.669 176.472 257.5 176.041 257.57 175.647L257.566 175.647Z" fill="#FF5151"/>
<path d="M283.853 136.147C284.235 136.659 285.129 135.862 284.747 135.35C284.365 134.838 283.471 135.635 283.853 136.147Z" fill="#FF5151"/>
<path d="M316.385 152.026C316.352 151.34 317.435 151.065 317.682 151.698C317.602 152.329 316.694 152.567 316.361 152.044L316.385 152.026Z" fill="#FF5151"/>
<path d="M323.92 160.544C323.696 161.008 322.882 160.593 323.063 160.107C323.109 159.731 323.542 159.481 323.852 159.654C324.162 159.826 324.233 160.355 323.982 160.618L323.92 160.544Z" fill="#FF5151"/>
<path d="M288.34 147.936C287.907 148.11 287.539 147.338 287.859 146.975C288.178 146.611 288.801 146.796 289.023 147.237C288.798 147.485 288.572 147.732 288.346 147.98L288.34 147.936Z" fill="#FF5151"/>
<path d="M262.09 175.257C262.383 175.073 262.753 175.474 262.707 175.84C262.66 176.206 262.365 176.469 262.071 176.65C261.577 176.388 261.597 175.453 262.102 175.217L262.09 175.257Z" fill="#FF5151"/>
<path d="M272.626 136.771C272.487 136.139 273.231 135.411 273.661 135.859C273.634 136.215 273.595 136.602 273.366 136.857C273.138 137.112 272.652 137.094 272.56 136.751L272.626 136.771Z" fill="#FF5151"/>
<path d="M299.708 183.115C299.741 183.801 298.657 184.076 298.411 183.443C298.491 182.812 299.399 182.574 299.732 183.097L299.708 183.115Z" fill="#FF5151"/>
<path d="M269.602 175.335C268.978 175.429 269.141 176.732 269.765 176.639C270.39 176.546 270.227 175.242 269.602 175.335Z" fill="#FF5151"/>
<path d="M298.461 175.207C299.003 175.585 299.01 176.596 298.474 176.984C297.935 176.598 297.933 175.587 298.471 175.198L298.461 175.207Z" fill="#FF5151"/>
<path d="M273.428 147.827C272.996 148.147 272.333 147.995 272.054 147.513C272.339 147.262 272.666 147.001 273.031 147.033C273.396 147.066 273.71 147.577 273.467 147.876L273.428 147.827Z" fill="#FF5151"/>
<path d="M284.793 184.172C284.57 184.636 283.755 184.222 283.937 183.736C283.982 183.359 284.416 183.11 284.726 183.282C285.035 183.454 285.107 183.983 284.855 184.246L284.793 184.172Z" fill="#FF5151"/>
<path d="M251.402 152.423C250.969 152.596 250.602 151.825 250.921 151.461C251.24 151.098 251.863 151.282 252.085 151.723C251.86 151.971 251.634 152.218 251.408 152.466L251.402 152.423Z" fill="#FF5151"/>
<path d="M310.513 132.429C310.289 132.894 309.475 132.479 309.656 131.993C309.702 131.616 310.135 131.367 310.445 131.539C310.755 131.711 310.826 132.241 310.575 132.503L310.513 132.429Z" fill="#FF5151"/>
<path d="M295.012 139.473C295.178 139.945 295.009 140.531 294.626 140.814C294.374 140.475 294.107 140.069 294.192 139.643C294.277 139.216 294.951 139.046 295.045 139.47L295.012 139.473Z" fill="#FF5151"/>
<path d="M284.791 163.83C285.108 164.26 284.75 165.03 284.245 165.002C284.018 164.859 283.869 164.579 283.867 164.293C283.999 163.891 284.432 163.639 284.81 163.744L284.791 163.83Z" fill="#FF5151"/>
<path d="M287.577 136.319C287.539 136.97 288.677 137.048 288.715 136.397C288.752 135.745 287.614 135.667 287.577 136.319Z" fill="#FF5151"/>
<path d="M306.402 147.084C306.62 147.259 306.77 147.533 306.806 147.826C306.612 148.166 306.218 148.353 305.858 148.275C305.534 147.853 305.901 147.076 306.404 147.121L306.402 147.084Z" fill="#FF5151"/>
<path d="M291.765 187.608C291.602 187.846 291.351 188.009 291.082 188.055C290.866 187.877 290.716 187.604 290.675 187.311C290.882 187.041 291.179 186.796 291.498 186.85C291.817 186.903 292.028 187.416 291.767 187.625L291.765 187.608Z" fill="#FF5151"/>
<path d="M317.481 147.522C317.205 147.991 316.56 148.139 316.134 147.833C315.939 147.514 316.247 147.055 316.597 147.027C316.946 146.998 317.262 147.252 317.501 147.533L317.481 147.522Z" fill="#FF5151"/>
<path d="M265.3 144.182C265.034 143.831 265.341 143.201 265.757 143.22C266.174 143.238 266.442 143.848 266.216 144.231C265.991 144.614 265.405 144.625 265.146 144.267L265.3 144.182Z" fill="#FF5151"/>
<path d="M277.522 179.835C277.602 180.072 277.555 180.355 277.404 180.547C276.984 180.762 276.392 180.328 276.496 179.834C276.601 179.341 277.434 179.357 277.457 179.863L277.522 179.835Z" fill="#FF5151"/>
<path d="M313.254 168.274C312.949 168.245 312.927 167.698 313.179 167.508C313.432 167.317 313.771 167.38 314.071 167.451C314.214 167.659 314.264 167.939 314.204 168.19C313.908 168.342 313.566 168.384 313.247 168.308L313.254 168.274Z" fill="#FF5151"/>
<path d="M284.242 143.194C284.516 143.194 284.79 143.194 285.064 143.193C285.193 143.415 285.242 143.69 285.197 143.948C284.889 144.082 284.533 144.215 284.238 144.05C283.942 143.885 283.923 143.277 284.252 143.236L284.242 143.194Z" fill="#FF5151"/>
<path d="M299.751 143.53C299.538 142.92 298.472 143.365 298.686 143.975C298.899 144.585 299.964 144.139 299.751 143.53Z" fill="#FF5151"/>
<path d="M316.407 144.545C316.338 144.208 316.404 143.805 316.665 143.61C316.927 143.416 317.378 143.592 317.379 143.938C317.33 144.239 317.265 144.569 317.042 144.752C316.818 144.936 316.399 144.808 316.41 144.503L316.407 144.545Z" fill="#FF5151"/>
<path d="M251.463 144.831C251.033 144.99 250.548 144.429 250.716 143.968C250.885 143.507 251.59 143.467 251.801 143.906C251.669 144.166 251.537 144.426 251.405 144.686L251.463 144.831Z" fill="#FF5151"/>
<path d="M268.51 184.026C268.464 183.476 269.178 183.071 269.564 183.428C269.73 183.731 269.615 184.176 269.329 184.339C269.042 184.503 268.643 184.352 268.511 184.03L268.51 184.026Z" fill="#FF5151"/>
<path d="M303.042 164.648C303.479 164.21 302.713 163.297 302.276 163.736C301.839 164.174 302.605 165.087 303.042 164.648Z" fill="#FF5151"/>
<path d="M281.23 169.182C280.854 169.313 280.472 168.783 280.632 168.388C280.792 167.992 281.33 167.896 281.638 168.165C281.731 168.557 281.551 169.006 281.224 169.196L281.23 169.182Z" fill="#FF5151"/>
<path d="M305.677 133.225C305.265 132.785 305.879 131.875 306.384 132.175C306.779 132.601 306.192 133.477 305.702 133.194L305.677 133.225Z" fill="#FF5151"/>
<path d="M281.505 147.666C281.046 147.723 280.459 147.689 280.285 147.221C280.561 146.83 281.069 146.656 281.5 146.807C281.699 147.047 281.707 147.449 281.517 147.698L281.505 147.666Z" fill="#FF5151"/>
<path d="M302.145 139.408C302.609 139.198 303.167 139.837 302.954 140.334C302.735 140.587 302.321 140.59 302.1 140.34C301.878 140.091 301.892 139.639 302.13 139.407L302.145 139.408Z" fill="#FF5151"/>
<path d="M298.334 135.569C298.498 135.331 298.748 135.168 299.017 135.122C299.234 135.3 299.383 135.573 299.424 135.867C299.262 136.104 299.012 136.267 298.743 136.311C298.526 136.134 298.376 135.86 298.339 135.566L298.334 135.569Z" fill="#FF5151"/>
<path d="M281.464 156.258C281.171 156.806 280.301 156.776 280.04 156.209C280.289 155.642 281.163 155.616 281.44 156.167L281.464 156.258Z" fill="#FF5151"/>
<path d="M262.071 171.586C262.365 171.543 262.587 171.95 262.491 172.257C262.395 172.564 262.097 172.744 261.805 172.801C261.589 172.623 261.44 172.35 261.399 172.057C261.561 171.819 261.812 171.656 262.08 171.614L262.071 171.586Z" fill="#FF5151"/>
<path d="M292.248 179.966C292.26 180.2 292.272 180.434 292.285 180.667C292.02 181.081 291.294 180.858 291.265 180.354C291.236 179.851 291.932 179.531 292.241 179.905L292.248 179.966Z" fill="#FF5151"/>
<path d="M306.403 167.422C306.621 167.601 306.77 167.875 306.812 168.168C306.649 168.406 306.399 168.569 306.131 168.614C305.914 168.436 305.765 168.162 305.724 167.869C305.886 167.631 306.137 167.468 306.406 167.427L306.403 167.422Z" fill="#FF5151"/>
<path d="M272.641 184.319C272.541 183.988 272.625 183.574 272.896 183.389C273.167 183.205 273.601 183.369 273.647 183.714C273.531 183.972 273.415 184.23 273.299 184.489C273.068 184.46 272.837 184.431 272.605 184.402L272.641 184.319Z" fill="#FF5151"/>
<path d="M292.338 140.055C292.369 140.456 291.978 140.824 291.621 140.729C291.263 140.635 291.068 140.113 291.263 139.772C291.564 139.457 292.154 139.635 292.264 140.074L292.338 140.055Z" fill="#FF5151"/>
<path d="M261.508 164.113C261.781 163.68 262.556 164.055 262.445 164.567C262.33 164.825 262.074 165 261.812 165C261.51 164.874 261.361 164.431 261.516 164.121L261.508 164.113Z" fill="#FF5151"/>
<path d="M316.826 139.001C317.161 139.57 316.502 140.433 315.93 140.175C315.851 139.613 316.284 139.031 316.803 139L316.826 139.001Z" fill="#FF5151"/>
<path d="M257.554 151.722C257.538 151.163 258.242 150.768 258.648 151.109C258.859 151.729 257.888 152.282 257.544 151.738L257.554 151.722Z" fill="#FF5151"/>
<path d="M323.364 151.266C323.55 150.999 323.896 150.88 324.188 150.984C324.323 151.19 324.371 151.461 324.317 151.708C324.092 151.852 323.867 151.996 323.641 152.14C323.342 152.007 323.198 151.567 323.352 151.258L323.364 151.266Z" fill="#FF5151"/>
<path d="M295.339 135.541C295.736 135.84 295.393 136.687 294.924 136.566C294.688 136.44 294.528 136.16 294.528 135.873C294.644 135.543 295.049 135.38 295.333 135.549L295.339 135.541Z" fill="#FF5151"/>
<path d="M262.232 139.729C262.629 140.027 262.286 140.874 261.817 140.753C261.581 140.627 261.421 140.347 261.421 140.06C261.537 139.73 261.942 139.567 262.226 139.737L262.232 139.729Z" fill="#FF5151"/>
<path d="M295.866 151.119C295.571 151.584 294.926 151.727 294.489 151.425C294.481 150.719 295.598 150.479 295.835 151.135L295.866 151.119Z" fill="#FF5151"/>
<path d="M272.341 168.469C272.505 168.232 272.755 168.068 273.024 168.023C273.241 168.2 273.39 168.474 273.431 168.767C273.268 169.004 273.018 169.167 272.75 169.212C272.532 169.035 272.383 168.76 272.345 168.466L272.341 168.469Z" fill="#FF5151"/>
<path d="M277.811 148.128C277.647 148.365 277.397 148.529 277.128 148.574C276.911 148.397 276.762 148.123 276.721 147.83C276.884 147.593 277.134 147.43 277.402 147.385C277.62 147.562 277.769 147.837 277.807 148.131L277.811 148.128Z" fill="#FF5151"/>
<path d="M316.421 160.412C316.637 159.865 317.484 159.843 317.723 160.379C317.48 160.952 316.6 160.985 316.321 160.431L316.421 160.412Z" fill="#FF5151"/>
<path d="M295.314 187.592C295.087 187.744 294.86 187.895 294.633 188.046C294.418 187.874 294.271 187.602 294.238 187.313C294.434 186.974 294.829 186.788 295.189 186.864C295.319 187.08 295.366 187.355 295.314 187.608L295.314 187.592Z" fill="#FF5151"/>
<path d="M294.776 179.536C294.65 179.203 295.148 179.039 295.474 179.091C295.616 179.412 295.657 179.785 295.588 180.133C295.391 180.276 295.142 180.33 294.911 180.278C294.78 180.063 294.734 179.788 294.785 179.536L294.776 179.536Z" fill="#FF5151"/>
<path d="M272.341 144.242C272.505 144.005 272.755 143.841 273.024 143.796C273.241 143.974 273.39 144.247 273.431 144.54C273.268 144.777 273.018 144.941 272.75 144.985C272.532 144.808 272.383 144.533 272.345 144.24L272.341 144.242Z" fill="#FF5151"/>
<path d="M309.685 151.271C309.986 151.125 310.141 151.671 310.092 152.028C309.799 152.184 309.459 152.231 309.139 152.161C309.01 151.944 308.961 151.671 309.007 151.417C309.204 151.274 309.456 151.223 309.686 151.28L309.685 151.271Z" fill="#FF5151"/>
<path d="M262.475 147.834C262.544 148.083 262.501 148.366 262.362 148.577C262.125 148.638 261.866 148.585 261.666 148.434C261.668 148.134 261.67 147.834 261.672 147.534C261.903 147.21 262.484 147.42 262.492 147.831L262.475 147.834Z" fill="#FF5151"/>
<path d="M273.595 160.858C273.322 161.292 272.547 160.917 272.658 160.404C272.773 160.146 273.029 159.971 273.292 159.971C273.594 160.098 273.743 160.541 273.588 160.851L273.595 160.858Z" fill="#FF5151"/>
<path d="M266.308 146.973C266.574 147.037 266.673 147.483 266.463 147.672C266.008 147.723 265.428 147.697 265.254 147.235C265.445 146.822 265.98 146.657 266.34 146.9L266.308 146.973Z" fill="#FF5151"/>
<path d="M281.231 183.573C281.448 183.752 281.598 184.026 281.639 184.319C281.477 184.557 281.227 184.72 280.959 184.765C280.742 184.587 280.592 184.313 280.552 184.02C280.714 183.782 280.965 183.619 281.234 183.578L281.231 183.573Z" fill="#FF5151"/>
<path d="M290.942 159.787C291.289 159.511 291.854 159.678 292.026 160.107C291.75 160.497 291.242 160.669 290.812 160.518C290.628 160.316 290.713 159.912 290.959 159.818L290.942 159.787Z" fill="#FF5151"/>
<path d="M269.764 156.97C269.491 157.404 268.717 157.028 268.827 156.516C268.942 156.258 269.198 156.083 269.461 156.083C269.763 156.21 269.912 156.652 269.757 156.963L269.764 156.97Z" fill="#FF5151"/>
<path d="M291.643 167.71C291.346 167.211 290.473 167.832 290.771 168.331C291.068 168.831 291.94 168.21 291.643 167.71Z" fill="#FF5151"/>
<path d="M262.405 160.246C262.346 160.871 261.349 160.986 261.172 160.387C261.369 159.905 262.075 159.817 262.366 160.237L262.405 160.246Z" fill="#FF5151"/>
<path d="M287.816 184.423C287.225 184.179 287.438 182.976 288.07 182.991C288.361 183.453 288.228 184.167 287.795 184.467L287.816 184.423Z" fill="#FF5151"/>
<path d="M258.466 147.772C258.257 147.605 258.048 147.438 257.84 147.271C258.057 146.697 258.949 146.675 259.189 147.239C259.034 147.477 258.786 147.638 258.521 147.673L258.466 147.772Z" fill="#FF5151"/>
<path d="M298.604 171.451C299.005 171.751 298.928 172.545 298.478 172.746C297.935 172.549 298.033 171.471 298.601 171.395L298.604 171.451Z" fill="#FF5151"/>
<path d="M316.515 136.624C316.812 137.123 317.685 136.502 317.387 136.003C317.09 135.504 316.217 136.125 316.515 136.624Z" fill="#FF5151"/>
<path d="M290.975 183.142C291.194 182.594 292.045 182.577 292.282 183.116C292.052 183.664 291.192 183.658 290.967 183.108L290.975 183.142Z" fill="#FF5151"/>
<path d="M276.908 135.805C277.06 135.577 277.213 135.348 277.366 135.12C277.892 135.357 277.911 136.333 277.395 136.595C277.178 136.426 277.03 136.154 276.998 135.865L276.908 135.805Z" fill="#FF5151"/>
<path d="M309.705 147.643C309.355 147.581 309.399 146.922 309.732 146.792C310.065 146.661 310.429 146.916 310.634 147.231C310.442 147.57 310.046 147.755 309.689 147.673L309.705 147.643Z" fill="#FF5151"/>
<path d="M305.751 160.109C305.924 159.686 306.472 159.514 306.824 159.772C306.931 160.098 306.737 160.502 306.431 160.592C306.124 160.682 305.772 160.439 305.714 160.098L305.751 160.109Z" fill="#FF5151"/>
<path d="M273.281 155.495C273.63 155.557 273.586 156.215 273.253 156.346C272.92 156.477 272.556 156.222 272.351 155.907C272.544 155.568 272.939 155.383 273.297 155.464L273.281 155.495Z" fill="#FF5151"/>
<path d="M302.287 160.85C302.584 161.35 303.457 160.729 303.159 160.229C302.862 159.73 301.989 160.351 302.287 160.85Z" fill="#FF5151"/>
<path d="M278.095 176.259C278.551 175.934 277.983 174.98 277.526 175.305C277.07 175.631 277.638 176.584 278.095 176.259Z" fill="#FF5151"/>
<path d="M313.188 152.259C312.98 152.092 312.771 151.924 312.562 151.757C312.779 151.183 313.672 151.162 313.911 151.725C313.757 151.963 313.508 152.125 313.243 152.159L313.188 152.259Z" fill="#FF5151"/>
<path d="M310.343 160.074C310.124 160.622 309.272 160.639 309.035 160.1C309.266 159.552 310.126 159.558 310.35 160.108L310.343 160.074Z" fill="#FF5151"/>
<path d="M321.014 151.7C320.795 152.248 319.943 152.265 319.706 151.725C319.936 151.178 320.797 151.183 321.021 151.733L321.014 151.7Z" fill="#FF5151"/>
<path d="M268.4 172.299C268.55 171.957 268.699 171.615 268.849 171.273C269.147 171.497 269.417 171.869 269.332 172.253C269.246 172.637 268.627 172.746 268.555 172.359L268.4 172.299Z" fill="#FF5151"/>
<path d="M324.412 147.8C324.099 147.636 323.786 147.473 323.473 147.31C323.677 146.984 324.018 146.689 324.369 146.782C324.721 146.875 324.821 147.552 324.466 147.63L324.412 147.8Z" fill="#FF5151"/>
<path d="M305.863 175.211C306.103 175.14 306.372 175.191 306.576 175.348C306.468 175.772 306.206 176.147 305.859 176.372C305.434 176.199 305.441 175.394 305.868 175.23L305.863 175.211Z" fill="#FF5151"/>
<path d="M250.846 156.258C250.675 155.579 251.873 155.236 252.028 155.92C251.855 156.33 251.317 156.487 250.98 156.228L250.846 156.258Z" fill="#FF5151"/>
<path d="M250.878 147.942C250.529 147.88 250.573 147.221 250.906 147.091C251.239 146.96 251.603 147.215 251.808 147.53C251.615 147.869 251.22 148.054 250.862 147.972L250.878 147.942Z" fill="#FF5151"/>
<path d="M303.007 171.457C302.992 171.757 302.821 172.042 302.575 172.177C302.071 171.924 302.076 170.978 302.583 170.732C302.799 170.901 302.946 171.173 302.978 171.462L303.007 171.457Z" fill="#FF5151"/>
<path d="M258.255 169.263C257.841 169.268 257.778 168.614 257.861 168.171C258.069 167.944 258.445 167.942 258.655 168.166C258.747 168.558 258.567 169.006 258.241 169.197L258.255 169.263Z" fill="#FF5151"/>
<path d="M306.779 172.067C306.645 171.482 305.623 171.761 305.757 172.346C305.891 172.931 306.912 172.652 306.779 172.067Z" fill="#FF5151"/>
<path d="M306.248 140.615C305.954 140.797 305.634 140.273 305.807 139.955C305.98 139.637 306.375 139.567 306.712 139.6C306.849 139.989 306.619 140.482 306.249 140.589L306.248 140.615Z" fill="#FF5151"/>
<path d="M295.17 147.12C295.519 147.182 295.475 147.841 295.142 147.972C294.809 148.102 294.445 147.848 294.24 147.532C294.433 147.193 294.828 147.008 295.185 147.09L295.17 147.12Z" fill="#FF5151"/>
<path d="M255.254 151.366C255.425 152.046 254.227 152.388 254.072 151.704C254.245 151.295 254.783 151.137 255.12 151.396L255.254 151.366Z" fill="#FF5151"/>
<path d="M273.562 163.833C273.838 164.168 273.699 164.792 273.312 164.95C272.702 164.798 273 163.519 273.602 163.704L273.562 163.833Z" fill="#FF5151"/>
<path d="M284.568 150.962C284.605 151.217 284.643 151.471 284.68 151.725C284.333 152.009 283.761 151.847 283.583 151.415C283.768 151.076 284.164 150.891 284.515 150.981L284.568 150.962Z" fill="#FF5151"/>
<path d="M265.509 180.431C264.946 180.578 264.866 179.452 265.356 179.115C265.8 179.339 265.889 180.109 265.511 180.448L265.509 180.431Z" fill="#FF5151"/>
<path d="M277.932 187.498C278.281 187.56 278.238 188.218 277.905 188.349C277.572 188.48 277.208 188.225 277.003 187.91C277.195 187.571 277.591 187.386 277.948 187.467L277.932 187.498Z" fill="#FF5151"/>
<path d="M306.254 151.125C306.321 151.373 306.279 151.654 306.143 151.865C305.784 151.956 305.369 151.78 305.199 151.423C305.391 151.011 305.926 150.845 306.287 151.087L306.254 151.125Z" fill="#FF5151"/>
<path d="M305.175 135.871C305.328 135.629 305.583 135.467 305.851 135.442C306.269 135.63 306.272 136.415 305.855 136.607C305.628 136.36 305.4 136.113 305.173 135.866L305.175 135.871Z" fill="#FF5151"/>
<path d="M261.942 151.708C261.635 152.011 261.064 151.858 260.919 151.436C261.058 150.769 262.228 151.094 262.059 151.753L261.942 151.708Z" fill="#FF5151"/>
<path d="M292.192 164.227C292.363 164.907 291.165 165.249 291.01 164.565C291.183 164.156 291.721 163.998 292.058 164.257L292.192 164.227Z" fill="#FF5151"/>
<path d="M298.044 139.423C298.341 139.268 298.74 139.43 298.872 139.758C298.648 140.002 298.424 140.246 298.2 140.49C297.832 140.339 297.74 139.709 298.046 139.44L298.044 139.423Z" fill="#FF5151"/>
<path d="M301.871 136.499C301.599 136.292 301.595 135.781 301.864 135.569C302.133 135.356 302.575 135.52 302.67 135.868C302.512 136.192 302.218 136.434 301.888 136.508L301.871 136.499Z" fill="#FF5151"/>
<path d="M302.753 175.946C302.725 176.361 302.144 176.56 301.904 176.237C301.78 175.844 302.01 175.401 302.334 175.183C302.474 175.428 302.613 175.672 302.753 175.917L302.753 175.946Z" fill="#FF5151"/>
<path d="M327.742 144.076C327.515 144.15 327.259 144.104 327.065 143.955C326.982 143.563 327.143 143.11 327.469 142.923C327.847 143.133 327.998 143.718 327.777 144.113L327.742 144.076Z" fill="#FF5151"/>
<path d="M287.522 144.095C287.265 143.724 287.413 143.107 287.804 142.922C288.113 143.129 288.281 143.559 288.205 143.945C288.008 144.087 287.757 144.138 287.527 144.082L287.522 144.095Z" fill="#FF5151"/>
<path d="M305.637 143.581C305.791 143.35 305.946 143.119 306.1 142.889C306.436 143.077 306.624 143.533 306.531 143.933C306.309 144.264 305.72 144.052 305.722 143.641L305.637 143.581Z" fill="#FF5151"/>
<path d="M309.958 180.286C309.701 179.915 309.85 179.297 310.24 179.112C310.549 179.319 310.717 179.749 310.642 180.136C310.444 180.278 310.194 180.328 309.963 180.272L309.958 180.286Z" fill="#FF5151"/>
<path d="M268.918 151.88C268.743 151.617 268.841 151.191 269.11 151.051C269.378 150.91 269.743 151.094 269.821 151.408C269.71 151.816 269.266 152.074 268.894 151.946L268.918 151.88Z" fill="#FF5151"/>
<path d="M265.688 182.556C265.999 182.718 266.31 182.88 266.621 183.043C266.446 183.424 266.025 183.65 265.642 183.567C265.447 183.318 265.437 182.918 265.62 182.658L265.688 182.556Z" fill="#FF5151"/>
<path d="M295.514 183.562C295.549 183.814 295.583 184.065 295.618 184.317C295.423 184.467 295.164 184.513 294.935 184.439C294.534 184.096 295.046 183.24 295.494 183.502L295.514 183.562Z" fill="#FF5151"/>
<path d="M306.565 180.131C306.547 180.432 306.376 180.717 306.13 180.855C305.808 180.669 305.634 180.222 305.734 179.839C305.957 179.511 306.543 179.726 306.54 180.135L306.565 180.131Z" fill="#FF5151"/>
<path d="M299.017 151.868C298.837 152.053 298.657 152.238 298.477 152.423C298.102 152.338 297.957 151.712 298.251 151.443C298.545 151.174 299.083 151.439 299.093 151.858L299.017 151.868Z" fill="#FF5151"/>
<path d="M324.304 143.65C324.463 144.106 324.096 144.675 323.649 144.664C323.267 144.221 323.84 143.354 324.345 143.611L324.304 143.65Z" fill="#FF5151"/>
<path d="M324.193 156.654C323.887 156.794 323.735 156.247 323.784 155.888C324.129 155.618 324.686 155.788 324.853 156.215C324.699 156.451 324.451 156.612 324.187 156.646L324.193 156.654Z" fill="#FF5151"/>
<path d="M258.652 143.941C258.72 144.384 258.194 144.78 257.839 144.552C257.825 144.227 257.829 143.855 258.052 143.639C258.275 143.423 258.749 143.639 258.64 143.942L258.652 143.941Z" fill="#FF5151"/>
<path d="M302.031 184.168C301.809 184.001 301.662 183.722 301.638 183.43C301.811 182.972 302.529 182.969 302.704 183.425C302.478 183.673 302.253 183.922 302.027 184.17L302.031 184.168Z" fill="#FF5151"/>
<path d="M277.129 172.504C276.912 172.325 276.762 172.052 276.721 171.758C276.884 171.521 277.134 171.357 277.403 171.311C277.667 171.676 277.511 172.303 277.113 172.471L277.129 172.504Z" fill="#FF5151"/>
<path d="M302.011 156.969C301.797 156.589 302.145 156.012 302.549 156.077C302.952 156.418 302.448 157.282 301.995 157.025L302.011 156.969Z" fill="#FF5151"/>
<path d="M259.025 155.841C259.285 156.342 258.472 156.934 258.149 156.478C257.869 156.056 258.617 155.522 258.933 155.913L259.025 155.841Z" fill="#FF5151"/>
<path d="M313.248 132.147C313.466 132.055 313.73 132.11 313.901 132.284C314.086 132.656 313.705 133.179 313.332 133.066C312.959 132.953 312.879 132.29 313.212 132.075L313.248 132.147Z" fill="#FF5151"/>
<path d="M310.251 171.293C310.465 171.672 310.117 172.25 309.713 172.184C309.31 171.843 309.814 170.979 310.267 171.236L310.251 171.293Z" fill="#FF5151"/>
<path d="M298.602 157.084C298.243 157.266 298.019 156.633 298.064 156.204C298.258 155.953 298.672 155.977 298.84 156.249C299.008 156.52 298.873 156.95 298.589 157.052L298.602 157.084Z" fill="#FF5151"/>
<path d="M273.583 151.559C273.75 151.831 273.639 152.257 273.364 152.391C273.09 152.524 272.725 152.331 272.652 152.012C272.826 151.669 273.226 151.483 273.573 151.584L273.583 151.559Z" fill="#FF5151"/>
<path d="M277.547 152.075C277.317 152.115 277.087 152.155 276.856 152.195C276.627 151.824 276.988 151.231 277.39 151.32C277.659 151.385 277.757 151.837 277.543 152.027L277.547 152.075Z" fill="#FF5151"/>
<path d="M269.203 140.512C268.712 140.647 268.778 139.667 269.184 139.337C269.614 139.494 269.612 140.31 269.182 140.466L269.203 140.512Z" fill="#FF5151"/>
<path d="M265.652 171.592C265.866 171.971 265.518 172.549 265.115 172.483C264.711 172.142 265.216 171.278 265.668 171.535L265.652 171.592Z" fill="#FF5151"/>
<path d="M261.303 156.74C261.452 156.534 261.601 156.328 261.751 156.122C262.093 156.137 262.325 156.637 262.133 156.948C261.941 157.259 261.431 157.211 261.29 156.869L261.303 156.74Z" fill="#FF5151"/>
<path d="M302.275 147.397C302.123 147.081 302.276 146.637 302.581 146.508C302.8 146.668 302.946 146.941 302.965 147.228C302.874 147.514 302.482 147.611 302.287 147.397L302.275 147.397Z" fill="#FF5151"/>
<path d="M265.063 156.669C264.912 156.352 265.065 155.909 265.37 155.78C265.588 155.94 265.735 156.213 265.754 156.5C265.663 156.785 265.271 156.883 265.076 156.669L265.063 156.669Z" fill="#FF5151"/>
<path d="M327.802 139.6C327.838 139.862 327.874 140.124 327.91 140.387C327.671 140.438 327.433 140.49 327.194 140.541C326.969 140.151 327.322 139.549 327.741 139.61L327.802 139.6Z" fill="#FF5151"/>
<path d="M269.492 159.929C269.688 160.33 269.329 160.899 268.916 160.84C268.789 160.62 268.742 160.347 268.785 160.091C268.983 159.948 269.235 159.897 269.466 159.953L269.492 159.929Z" fill="#FF5151"/>
<path d="M268.935 148.237C268.505 148.097 268.493 147.283 268.919 147.128C269.345 147.282 269.335 148.097 268.905 148.239L268.935 148.237Z" fill="#FF5151"/>
<path d="M269.613 180.126C269.638 180.415 269.456 180.71 269.201 180.792C268.867 180.747 268.675 180.239 268.885 179.949C269.094 179.66 269.59 179.745 269.708 180.091L269.613 180.126Z" fill="#FF5151"/>
<path d="M272.724 176.409C272.573 176.092 272.726 175.649 273.031 175.52C273.25 175.68 273.396 175.953 273.415 176.24C273.324 176.525 272.932 176.623 272.737 176.409L272.724 176.409Z" fill="#FF5151"/>
<path d="M269.038 135.572C269.066 135.123 269.551 134.674 269.865 134.964C269.908 135.257 269.909 135.598 269.711 135.8C269.513 136.003 269.084 135.851 269.139 135.561L269.038 135.572Z" fill="#FF5151"/>
<path d="M306.264 164.85C306.004 164.991 305.686 164.648 305.744 164.337C305.801 164.026 306.11 163.832 306.4 163.828C306.639 164.13 306.573 164.657 306.269 164.878L306.264 164.85Z" fill="#FF5151"/>
<path d="M276.896 167.804C277.047 167.602 277.198 167.401 277.349 167.2C277.673 167.185 277.922 167.644 277.754 167.947C277.586 168.251 277.098 168.223 276.96 167.902L276.896 167.804Z" fill="#FF5151"/>
<path d="M299.014 165.015C298.781 165.079 298.525 165.037 298.319 164.9C298.322 164.498 298.642 164.073 299.002 164.156C299.362 164.24 299.361 164.983 298.993 164.962L299.014 165.015Z" fill="#FF5151"/>
<path d="M295.445 155.504C295.755 155.597 295.913 156.056 295.738 156.35C295.478 156.418 295.192 156.351 294.981 156.174C295.125 155.925 295.27 155.676 295.414 155.427L295.445 155.504Z" fill="#FF5151"/>
<path d="M269.042 163.628C269.489 163.61 269.27 164.413 268.917 164.711C268.683 164.412 268.755 163.893 269.059 163.683L269.042 163.628Z" fill="#FF5151"/>
<path d="M313.102 163.681C313.459 163.87 313.365 164.58 312.974 164.651C312.51 164.552 312.647 163.591 313.117 163.651L313.102 163.681Z" fill="#FF5151"/>
<path d="M287.348 151.819C287.125 151.686 287.264 151.263 287.512 151.198C287.759 151.134 288.005 151.289 288.219 151.439C288.208 151.848 287.614 152.038 287.403 151.7L287.348 151.819Z" fill="#FF5151"/>
<path d="M277.676 164.723C277.504 165.112 276.854 165.01 276.789 164.583C276.88 164.075 277.759 164.225 277.704 164.739L277.676 164.723Z" fill="#FF5151"/>
<path d="M258.138 179.248C258.238 178.896 258.793 178.887 258.904 179.234C258.795 179.583 258.238 179.575 258.138 179.222L258.138 179.248Z" fill="#FF5151"/>
<path d="M272.913 187.323C273.013 186.972 273.568 186.962 273.679 187.31C273.57 187.659 273.013 187.65 272.913 187.298L272.913 187.323Z" fill="#FF5151"/>
<path d="M327.566 135.847C327.49 136.182 327.077 136.36 326.812 136.172C326.681 135.903 326.783 135.512 327.043 135.404C327.304 135.295 327.64 135.572 327.577 135.869L327.566 135.847Z" fill="#FF5151"/>
<path d="M320.299 176.497C320.115 176.332 319.93 176.167 319.746 176.002C319.732 175.648 320.153 175.376 320.43 175.56C320.708 175.743 320.682 176.277 320.389 176.428L320.299 176.497Z" fill="#FF5151"/>
<path d="M313.109 180.441C312.84 180.311 312.94 179.766 313.234 179.759C313.626 179.772 313.419 180.66 313.119 180.384L313.109 180.441Z" fill="#FF5151"/>
<path d="M274.018 461.7C256.796 444.501 242.218 424.146 231.077 401.743C226.378 392.293 222.179 381.675 223.938 371.093C227.228 351.299 220.428 331.408 215.072 312.161C209.715 292.913 205.921 271.177 214.537 253.4C200.945 267.101 195.494 287.861 192.58 307.819C185.825 354.087 189.627 402.152 203.547 446.467C187.203 413.761 186.56 374.63 188.11 337.401C189.316 308.431 192.28 277.582 208.927 255.003C183.298 277.851 175.5 316.42 169.845 352.038C164.535 385.484 159.808 420.586 169.654 452.78C160.364 434.061 161.882 411.41 163.799 390.217C168.21 341.47 175.002 288.976 206.238 253.852C214.5 244.562 224.584 236.686 236.157 233.889C245.125 231.722 253.764 227.94 261.622 222.742C263.516 210.617 253.08 201.07 245.788 191.702C237.623 181.211 232.529 167.906 231.425 154.185C230.771 146.063 229.211 134.997 221.759 134.65C215.633 134.366 211.022 126.286 213.481 120.147C215.94 114.007 224.499 112.231 228.845 116.958C222.645 91.5507 235.743 62.2363 257.885 51.9599C254.275 46.3158 262.155 39.5516 268.412 40.36C274.669 41.1684 280.725 45.2996 286.869 43.7733C284.763 39.7208 288.137 34.3365 292.293 33.2984C296.45 32.2603 300.715 34.2327 304.443 36.4937C328.375 51.0073 344.19 80.2766 344.265 110.193C344.884 104.733 352.381 102.863 356.047 106.633C359.714 110.403 359.539 117.15 356.936 121.859C354.332 126.569 349.895 129.66 345.502 132.348C345.613 152.187 338.711 171.976 326.546 186.699C317.693 197.412 305.151 208.776 308.056 222.858C312.765 221.719 317.529 227.658 315.881 232.613C336.072 230.774 354.914 244.096 369.219 259.78C390.189 282.773 405.261 312.127 412.293 343.671C413.521 349.181 420.692 350.683 425.129 347.743C429.566 344.804 431.846 339.244 433.868 334.021C447.181 299.63 460.494 265.239 473.808 230.847C469.351 200.914 473.316 202.582 475.402 188.585C481.109 172.316 480.018 157.616 482.326 142.132C482.955 137.915 485.653 132.351 489.215 134.109C491.016 134.998 491.652 137.399 492.037 139.518C494.196 151.429 494.886 163.658 494.083 175.769C498.691 167.151 503.3 158.533 507.909 149.915C510.431 145.199 516.002 139.917 519.5 143.819C521.422 145.963 520.917 149.479 520.124 152.352C517.602 161.491 513.491 170.102 508.075 177.59C515.377 180.313 523.834 184.447 525.112 192.763C525.643 196.213 524.748 199.724 523.689 203.025C520.006 214.5 514.187 225.15 506.692 234.137C508.412 233.002 509.536 236.378 509.194 238.542C500.973 290.538 480.938 340.253 451.391 381.98C442.671 394.294 430.842 406.995 416.659 405.542C407.781 404.633 400.279 398.265 393.333 392.154C385.854 385.573 378.375 378.992 370.895 372.411C388.306 376.662 398.001 400.404 415.711 402.747C430.111 404.653 442.198 391.47 450.901 378.786C479.298 337.397 498.693 288.677 507.046 237.753C495.69 239.837 483.87 238.82 472.952 234.821C462.119 271.536 448.476 307.26 432.212 341.497C429.401 347.414 424.4 354.293 418.627 352.141C416.043 351.178 414.296 348.585 412.84 346.06C398.287 320.829 394.905 287.184 373.679 268.439C382.234 326.435 368.746 385.411 353.479 441.735C365.167 397.845 372.287 352.504 374.657 306.867C375.201 296.389 375.472 285.68 372.76 275.614C370.047 265.547 363.854 256.074 354.866 252.388C349.011 294.012 314.72 324.974 306.042 366.004C299.026 399.181 288.242 431.405 274.018 461.7ZM309.267 347.758C322.314 320.647 339.417 295.827 350.037 267.478C352.451 261.033 354.443 253.372 351.16 247.403C349.975 245.248 348.209 243.561 346.472 241.912C343.726 239.305 340.715 236.571 337.089 236.249C332.279 235.821 328.107 239.754 325.012 243.803C317.507 253.62 312.661 265.485 308.052 277.245C297.028 305.375 286.781 334.005 280.336 363.785C273.891 393.565 271.321 424.65 275.753 454.866C281.366 427.155 300.237 403.676 302.824 375.435C303.25 370.784 303.222 366.063 304.147 361.499C305.13 356.656 307.155 352.149 309.267 347.758ZM335.094 91.883C333.328 88.1599 331.123 84.5988 328.109 82.004C321.395 76.224 311.94 76.2087 303.539 77.9263C298.169 79.0242 292.901 80.7173 287.842 82.9712C286.521 83.5595 285.119 84.1993 283.715 83.9205C282.312 83.6416 281.05 81.9878 281.625 80.5611C281.736 80.2867 281.907 80.0319 281.936 79.7337C282.019 78.8986 281.047 78.4805 280.287 78.3607C268.725 76.5384 256.414 78.6696 246.694 85.7522C236.975 92.8349 230.246 105.185 230.606 117.948C230.687 120.812 232.657 123.155 234.635 125.036C237.659 127.913 240.992 130.402 244.543 132.436C246.137 133.35 248.323 134.074 249.542 132.626C251.958 129.754 255.973 129.531 259.542 129.615C271.946 129.905 284.417 131.469 296.713 129.663C304.204 128.562 311.5 126.225 318.962 124.91C321.248 124.508 323.608 124.204 325.861 124.787C328.113 125.371 330.265 127.009 330.982 129.415C333.888 125.826 336.501 121.954 338.78 117.86C339.464 116.632 340.128 115.355 340.381 113.944C340.605 112.691 340.494 111.398 340.342 110.132C339.578 103.778 337.793 97.5723 335.094 91.883ZM316.49 181.037C320.868 178.938 323.328 173.849 324.984 168.947C328.931 157.265 330.2 144.514 328.643 132.177C328.486 130.937 328.276 129.637 327.553 128.667C326.407 127.13 324.358 126.892 322.545 126.972C318.282 127.162 314.134 128.446 309.984 129.529C301.246 131.809 292.295 133.226 283.311 133.259C274.433 133.292 265.57 131.976 256.699 132.352C254.933 132.427 253.066 132.608 251.633 133.738C249.361 135.53 248.961 139.002 248.871 142.063C248.525 153.7 249.782 165.392 252.584 176.625C252.753 177.3 252.943 178.004 253.392 178.502C253.876 179.039 254.578 179.248 255.241 179.46C265.958 182.891 275.23 192.717 286.371 191.869C294.635 191.241 301.584 184.761 309.674 182.809C311.959 182.257 314.346 182.064 316.49 181.037ZM224.867 373.272C224.202 383.831 229.667 393.553 234.923 402.442C240.244 411.439 245.564 420.437 250.885 429.435C243.038 400.887 239.336 371.175 236.818 341.494C234.19 310.502 232.884 278.708 240.637 248.759C241.867 244.007 243.341 239.276 245.721 235.078C238.585 234.875 230.993 235.472 225.171 239.989C221.387 242.925 218.701 247.282 216.711 251.865C210.562 266.027 210.547 282.556 213.265 297.948C215.984 313.34 221.257 328.028 225.389 343.039C226.59 347.401 227.705 351.88 227.559 356.432C227.376 362.136 225.225 367.579 224.867 373.272ZM259.529 184.053C255.851 182.508 251.389 181.248 249.927 177.249C249.24 175.371 249.407 173.27 249.209 171.26C249.011 169.249 248.24 167.044 246.519 166.3C242.373 164.51 238.397 162.252 234.672 159.574C236.52 171.453 241.44 182.741 248.715 191.792C252.359 196.325 256.583 200.317 259.812 205.212C263.04 210.107 265.236 216.265 264.047 222.158C263.668 224.036 266.136 224.853 267.895 224.808C279.577 224.506 291.258 224.149 302.937 223.737C304.916 223.668 306.083 221.141 306.037 218.977C305.991 216.813 305.194 214.722 305.22 212.557C305.258 209.377 307.042 206.568 308.858 204.082C314.236 196.718 320.518 190.201 326.109 183.029C331.7 175.856 336.682 167.821 338.808 158.688C335.108 165.511 327.302 169.028 324.407 176.3C322.765 180.428 318.791 182.857 314.856 184.184C310.921 185.511 306.751 186.05 302.995 187.897C301.069 188.843 299.293 190.115 297.408 191.153C290.783 194.8 282.8 195.379 275.793 192.72C270.089 190.556 265.166 186.419 259.529 184.053ZM493.462 202.094C497.521 201.83 502.424 203.556 505.112 200.222C505.727 199.459 506.134 198.408 505.91 197.421C505.606 196.076 504.312 195.336 503.133 194.827C495.606 191.577 487.181 190.862 479.285 192.804C476.535 193.48 474.928 196.255 474.326 199.265C473.723 202.274 473.869 205.533 474.326 208.573C475.485 216.296 476.644 224.018 477.803 231.74C477.855 232.088 477.911 232.448 478.09 232.741C478.359 233.182 478.847 233.386 479.305 233.557C485.01 235.681 491.079 236.629 497.099 236.335C499.493 236.218 502.081 235.804 503.762 233.936C511.985 224.796 517.997 213.299 521.028 200.914C519.378 202.529 517.258 203.785 515.05 203.598C512.842 203.412 510.696 201.358 510.84 198.942C506.607 202.508 501.621 206.282 496.387 205.098C492.386 204.192 487.968 206.13 485.65 209.809C484.237 209.402 484.78 207.012 485.809 205.877C487.824 203.654 490.604 202.28 493.462 202.094ZM250.4 270.833C247.629 271.304 244.87 271.869 242.135 272.544C240.211 273.019 237.92 273.985 237.671 276.124C237.175 280.388 236.906 284.684 236.865 288.982C257.787 283.587 280.003 284.312 300.594 291.062C302.782 285.459 304.97 279.856 307.157 274.253C288.734 268.799 269.26 267.626 250.4 270.833ZM327.699 237.223C324.388 235.307 320.533 234.538 316.817 235.051C316.083 235.153 315.259 235.375 314.906 236.084C313.495 238.919 310.41 240.144 307.557 240.97C293.2 245.126 278.04 245.033 263.323 242.84C260.587 242.433 257.814 241.938 255.328 240.624C252.843 239.31 250.645 237.049 249.908 234.141C247.949 234.109 246.772 236.448 246.076 238.45C243.971 244.504 242.151 250.677 240.628 256.936C264.487 251.028 289.703 251.792 313.226 259.136C315.471 256.139 317.137 252.627 318.085 248.895C318.527 247.153 319.75 245.8 320.927 244.53C323.184 242.094 325.442 239.658 327.699 237.223ZM288.729 325.472C291.035 319.898 292.993 314.152 294.585 308.288C276.215 304.961 257.403 304.572 238.931 307.135C238.147 307.243 237.278 307.41 236.805 308.101C236.389 308.709 236.41 309.538 236.45 310.296C236.647 314.056 236.843 317.817 237.04 321.577C237.093 322.588 237.534 323.953 238.441 323.749C255.018 320.013 272.398 320.608 288.729 325.472ZM517.869 152.883C518.395 151.456 518.9 149.956 518.786 148.423C518.671 146.889 517.757 145.318 516.374 145.034C515.512 144.857 514.623 145.198 513.876 145.702C512.046 146.936 510.898 149.056 509.823 151.092C504.955 160.312 500.087 169.532 495.219 178.751C494.588 179.947 492.764 179.576 492.072 178.422C491.379 177.268 491.472 175.775 491.569 174.399C492.388 162.867 491.774 151.215 489.75 139.863C489.624 139.158 489.483 138.429 489.095 137.849C487.971 136.169 485.347 136.753 484.215 138.427C483.083 140.101 483.018 142.337 483.003 144.418C482.89 160.275 483.027 176.694 477.167 191.2C483.119 188.674 489.819 188.31 495.971 190.177C496.85 190.444 497.762 190.758 498.658 190.572C499.555 190.387 500.407 189.494 500.25 188.511C499.663 184.829 502.081 181.482 504.207 178.555C509.857 170.774 514.474 162.098 517.869 152.883ZM313.77 228.806C313.365 226.988 311.875 225.319 310.17 225.486C292.779 227.188 275.288 227.672 257.84 226.934C256.807 226.89 255.719 226.855 254.803 227.378C254.156 227.747 253.651 228.372 253.308 229.076C251.915 231.933 253.329 235.659 255.703 237.595C258.076 239.531 261.134 240.096 264.072 240.501C276.898 242.271 289.97 242.085 302.704 239.64C305.453 239.112 308.273 238.438 310.549 236.671C312.825 234.904 314.431 231.77 313.77 228.806ZM282.766 345.22C282.867 344.84 282.963 344.408 282.78 344.067C282.585 343.703 282.157 343.595 281.776 343.524C267.951 340.961 253.8 342.22 239.825 343.486C239.429 343.522 238.98 343.591 238.758 343.95C238.585 344.23 238.609 344.598 238.641 344.934C239.046 349.271 239.451 353.608 239.855 357.945C239.933 358.778 240.256 359.858 241.021 359.815C253.173 359.137 265.384 359.725 277.434 361.57C278.2 361.687 278.66 360.689 278.876 359.877C280.172 354.991 281.469 350.106 282.766 345.22ZM274.841 384.242C274.901 383.619 274.936 382.907 274.54 382.453C274.238 382.105 273.769 382.015 273.334 381.948C263.874 380.508 254.262 381.531 244.757 382.555C244.282 382.606 243.732 382.708 243.503 383.166C243.345 383.48 243.395 383.864 243.45 384.218C244.087 388.373 244.725 392.528 245.362 396.684C245.454 397.281 245.744 398.049 246.292 397.96C255.359 396.482 265.008 396.048 273.3 400.319C273.814 394.96 274.328 389.601 274.841 384.242ZM236.811 157.967C240.236 160.538 243.996 162.576 247.942 163.998C246.224 155.337 245.887 146.35 246.952 137.564C247.087 136.453 245.942 135.735 244.997 135.3C239.472 132.754 234.458 128.893 230.404 124.064C230.823 133.23 231.729 142.37 233.117 151.421C233.326 152.778 233.558 154.173 234.23 155.337C234.863 156.432 235.835 157.234 236.811 157.967ZM328.11 167.273C331.79 164.005 335.012 160.15 337.864 156.011C339.403 153.777 340.853 151.424 341.705 148.788C342.562 146.138 342.784 143.296 342.886 140.487C343.153 133.136 342.64 125.75 341.36 118.527C338.406 122.914 335.451 127.301 332.497 131.688C332.044 132.362 331.58 133.059 331.405 133.873C331.265 134.526 331.322 135.207 331.372 135.875C332.161 146.44 331.046 157.17 328.11 167.273ZM271.037 435.571C271.684 435.714 271.98 434.726 271.996 434.005C272.09 429.694 272.183 425.383 272.277 421.072C272.286 420.684 272.291 420.279 272.137 419.928C271.854 419.281 271.142 419.035 270.507 418.854C266.917 417.834 263.275 416.806 259.565 416.855C256.485 416.896 253.434 417.682 250.354 417.599C250.005 417.589 249.549 417.652 249.476 418.025C249.451 418.155 249.484 418.288 249.518 418.416C250.877 423.573 252.666 428.595 254.856 433.399C255.143 434.028 255.486 434.704 256.086 434.959C256.509 435.139 256.981 435.072 257.432 435.011C261.955 434.392 266.57 434.582 271.037 435.571ZM344.934 111.845C344.229 113.036 343.606 114.337 343.49 115.749C343.419 116.615 343.543 117.485 343.666 118.344C344.141 121.655 344.616 124.967 345.092 128.278C345.119 128.47 345.151 128.674 345.269 128.82C345.544 129.164 346.055 128.982 346.428 128.775C347.932 127.94 349.453 127.092 350.723 125.878C351.742 124.905 352.571 123.72 353.353 122.513C354.986 119.99 356.486 117.176 356.592 114.087C356.698 110.998 354.965 107.64 352.183 107.083C349.238 106.492 346.56 109.097 344.934 111.845ZM216.961 118.402C215.833 119.483 215.424 121.2 215.236 122.827C215.065 124.318 215.035 125.87 215.508 127.28C216.16 129.226 217.71 130.684 219.426 131.566C221.142 132.447 223.031 132.825 224.896 133.195C225.817 133.378 226.738 133.56 227.659 133.743C227.887 133.788 228.156 133.819 228.318 133.638C228.452 133.486 228.451 133.25 228.443 133.04C228.291 129.313 228.139 125.586 227.986 121.859C227.922 120.275 226.886 118.88 225.61 118.129C224.333 117.377 222.847 117.174 221.398 117.134C219.833 117.09 218.139 117.274 216.961 118.402ZM512.891 182.181C512.214 181.373 511.214 181.002 510.253 180.688C509.235 180.354 508.136 180.049 507.126 180.413C505.979 180.825 505.221 181.997 504.616 183.139C503.701 184.865 502.942 186.69 502.353 188.579C502.145 189.248 501.956 189.951 502.043 190.651C502.13 191.351 502.567 192.047 503.202 192.177C505.795 192.709 508.06 194.845 508.922 197.571C510.126 194.812 511.331 192.053 512.536 189.294C513.034 188.152 513.538 186.99 513.71 185.739C513.881 184.489 513.672 183.114 512.891 182.181ZM521.918 187.96C520.684 186.692 518.632 186.781 517.206 187.779C515.78 188.776 514.892 190.482 514.318 192.224C513.664 194.207 513.346 196.322 513.384 198.429C513.393 198.933 513.427 199.453 513.639 199.899C514.151 200.977 515.503 201.218 516.58 200.921C518.934 200.271 520.502 197.881 521.665 195.552C522.265 194.352 522.822 193.093 522.978 191.737C523.134 190.38 522.829 188.896 521.918 187.96ZM273.701 457.067C273.122 453.408 272.543 449.75 271.964 446.091C271.897 445.666 271.807 445.197 271.489 444.94C271.281 444.771 271.012 444.726 270.755 444.689C267.772 444.265 264.741 444.244 261.752 444.626C265.279 449.257 269.298 453.441 273.701 457.067Z" fill="#00160A"/>
<path d="M240.865 288.401L242.761 287.987L244.657 287.572L246.174 287.158L248.071 286.743L250.726 286.328L253.76 285.914L258.69 285.499H259.828H260.966H262.104H270.448L276.137 285.914L279.93 286.328L285.239 287.158L289.411 287.987L292.825 288.816L297.376 290.06L300.031 290.889L300.41 291.303L294.342 308.302L283.722 306.643L279.55 306.229L274.62 305.814L267.034 305.4H257.932L247.312 306.229L240.485 307.058L236.693 307.887L237.072 290.06V288.816L240.865 288.401Z" fill="#FF3737"/>
<path d="M237.072 290.06L238.589 289.231L239.727 288.816L240.865 288.401M237.072 290.06L236.693 307.887L240.485 307.058L247.312 306.229L257.932 305.4H267.034L274.62 305.814L279.55 306.229L283.722 306.643L294.342 308.302L300.41 291.303L300.031 290.889L297.376 290.06L292.825 288.816L289.411 287.987L285.239 287.158L279.93 286.328L276.137 285.914L270.448 285.499H262.104H260.966H259.828H258.69L253.76 285.914L250.726 286.328L248.071 286.743L246.174 287.158L244.657 287.572L242.761 287.987L240.865 288.401M237.072 290.06V288.816L240.865 288.401" stroke="#FF3737"/>
<path d="M236.363 308.352H236.615L236.363 308.9V308.352Z" fill="#FF3737" stroke="#FF3737" stroke-width="0.1"/>
<path d="M244.278 256.063L240.865 256.893L237.83 275.964L238.21 274.72L239.348 273.476L241.244 272.647L246.554 271.403L253.381 270.159L261.725 269.33L269.31 268.916L280.688 269.33L290.928 270.574L297.755 271.818L304.203 273.476L306.858 274.305L313.305 258.965L311.409 258.551L309.513 258.136L305.72 256.893L301.927 256.063L299.272 255.649L294.342 254.82L288.653 253.99L283.722 253.576L278.033 253.161H273.103H268.551H267.793H267.034H266.276L260.207 253.576L256.415 253.99L253.381 254.405L248.45 255.234L244.278 256.063Z" fill="#FF3737" stroke="#FF3737" stroke-width="0.5"/>
<path d="M238.21 323.642L237.072 321.983L238.589 344.371L239.348 343.542L242.761 343.127L248.071 342.713L254.898 342.298L263.242 341.883L270.827 342.298L276.516 342.713L282.205 343.542L282.584 344.371L288.653 325.3L284.86 324.471L279.171 323.227L271.586 321.983L262.483 321.154L253.001 321.569L248.829 321.983L245.037 322.398L240.485 323.227L238.21 323.642Z" fill="#FF3737" stroke="#FF3737" stroke-width="0.1"/>
<path d="M240.485 359.711L239.727 358.052L243.52 384.172V383.342L243.899 382.928L245.037 382.513L248.071 382.099L253.381 381.684L258.69 381.269H264H267.793L271.586 381.684L273.861 382.099L274.62 382.513L274.999 383.342L278.792 360.54L278.412 360.955L277.654 361.369H276.895L273.861 360.955L269.689 360.54L264.759 360.125L259.449 359.711H256.415H253.381H250.346H245.795H242.002H240.485Z" fill="#FF3737" stroke="#FF3737" stroke-width="0.3"/>
<path d="M239.727 358.052V360.124V357.638" stroke="black" stroke-width="0.3"/>
<path d="M245.795 397.853L245.416 397.024L249.588 417.753L254.898 417.339L257.932 416.924H261.725L266.276 417.753L269.31 418.583L270.827 418.997L271.586 419.412L272.344 420.241L273.103 400.341L270.827 399.097L268.551 398.268L266.655 397.853L264.759 397.439L261.725 397.024H260.207H256.415H254.139H253.381L249.588 397.439L246.554 397.853H245.795Z" fill="#FF3737" stroke="#FF3737" stroke-width="0.3"/>
<path d="M256.415 435.166L255.277 434.337L261.725 444.702L264.759 444.287H267.034L270.827 444.702L271.586 445.116L271.965 445.531V434.337L271.586 435.166L271.206 435.581L269.31 435.166L264.759 434.752H260.966H259.449L256.415 435.166Z" fill="#FF3737" stroke="#FF3737" stroke-width="0.3"/>
<path d="M271.965 445.946L272.344 442.629" stroke="#00160A" stroke-width="0.3"/>
</svg>
